<svg xmlns="http://www.w3.org/2000/svg" viewBox="0 0 500 500"><g id="freepik--background-complete--inject-8"><path d="M42.91,225s75.57-43.44,122.43-43.44c56.28,0,111,19.35,131.7,25.75,54.49,16.79,160,17.69,160,17.69Z" style="fill:#dbdbdb"></path><path d="M457.09,225s-42.91-25.27-91.38-25.27c-33.84,0-82.4,5.23-128.13,13.81C220.16,216.77,129.51,225,129.51,225Z" style="fill:#c7c7c7"></path><path d="M63,157.94c5.27,0,137-.92,174.15-.92,2.6,0-.69-4.5-2.12-4.82-4.58-1-9.34-1-14-1.53a45.87,45.87,0,0,1-13.33-3.34c-3.66-1.55-7.31-3.33-11.27-4-7.66-1.2-14.39,3-21.57,4.78a16.31,16.31,0,0,1-13.07-1.78c-3.32-2-6.34-4.38-9.81-6.14a53.86,53.86,0,0,0-43-2,50.41,50.41,0,0,0-9.42,4.82c-3.51,2.3-6.53,5.25-10,7.52-7.8,5.05-17.45,3.41-25.95,6.3C63.09,157.06,62.56,157.94,63,157.94Z" style="fill:#ebebeb"></path><path d="M305.59,60.76c7,0,124.38.77,131.76.53a.57.57,0,0,0,.28-1c-4.65-2.31-9.92-1.84-14.76-3.47-2.84-1-4.59-2.82-6.56-5a13.53,13.53,0,0,0-6.11-4,12.93,12.93,0,0,0-6.65-.21c-2.38.57-4.45,1.93-6.72,2.79-5.64,2.13-11.12.11-15.15-4.06-3.32-3.44-6.59-6.69-11.1-8.54a14.71,14.71,0,0,0-11.76-.16c-4.31,2-7.26,5.87-11.31,8.23-4.79,2.8-10.53,2.14-15.82,3s-9.36,5.31-14,7.88a9.94,9.94,0,0,1-5.06,1.57c-1,0-2.06-.31-3.08-.44-1.6-.2-3.12-.15-4.2,1.18C305.08,59.38,305.14,60.76,305.59,60.76Z" style="fill:#ebebeb"></path><path d="M40.37,94.18c5.1,0,90.81.57,96.19.4.39,0,.6-.58.22-.77-3.4-1.69-7.25-1.35-10.78-2.54-2.08-.7-3.35-2-4.79-3.61a9.92,9.92,0,0,0-4.46-2.91,9.43,9.43,0,0,0-4.86-.15c-1.74.41-3.25,1.41-4.91,2-4.12,1.56-8.12.08-11.06-3-2.42-2.51-4.81-4.88-8.1-6.23a10.78,10.78,0,0,0-8.59-.12c-3.14,1.43-5.3,4.29-8.25,6-3.5,2.05-7.69,1.57-11.56,2.18s-6.83,3.88-10.22,5.75a7.32,7.32,0,0,1-3.7,1.15c-.76,0-1.5-.23-2.25-.32a3.07,3.07,0,0,0-3.06.86C40,93.18,40,94.18,40.37,94.18Z" style="fill:#ebebeb"></path><path d="M363.32,149.45c5.09,0,90.8.56,96.19.39.39,0,.59-.58.21-.77-3.4-1.68-7.25-1.34-10.78-2.53-2.07-.7-3.35-2.06-4.79-3.62a10,10,0,0,0-4.46-2.91,9.39,9.39,0,0,0-4.85-.15,42,42,0,0,0-4.91,2c-4.12,1.55-8.12.08-11.06-3-2.43-2.51-4.81-4.88-8.11-6.23a10.72,10.72,0,0,0-8.58-.12c-3.15,1.42-5.3,4.29-8.26,6-3.5,2-7.68,1.56-11.55,2.18s-6.84,3.87-10.23,5.75a7.24,7.24,0,0,1-3.69,1.14,21.37,21.37,0,0,1-2.25-.32,3.09,3.09,0,0,0-3.07.87C362.94,148.44,363,149.45,363.32,149.45Z" style="fill:#ebebeb"></path><path d="M188.64,135.53c.1.29,135.1,0,133.39,0-.77,0,1.18-1.16.42-1.53-4.39-2.18-9.2-2.25-14-2.69a21.51,21.51,0,0,1-8.18-2c-2.54-1.33-4.13-3.64-5.93-5.78a25.34,25.34,0,0,0-23.05-8.73c-9.6,1.5-17.17,8.81-26.78,10.16-5.78.81-11.24-1.43-16.89-2.22A20.7,20.7,0,0,0,215,125.08c-3,1.51-5.85,2.78-9.3,3-2.64.19-5.29-.12-7.94-.14A17.75,17.75,0,0,0,186,132.63C185.6,133,184.24,135.53,188.64,135.53Z" style="fill:#ebebeb"></path></g><g id="freepik--Trees--inject-8"><path d="M44.82,200.91c1.75,1.75,22.1,2.53,29.5,2.53s27.74-.78,29.49-2.53-22.9-137-29.49-137S43.08,199.17,44.82,200.91Z" style="fill:#455a64"></path><path d="M44.41,166.45c5,1.92,23.65,9.5,27.67,11.71,0-.84,0-1.69,0-2.54q-6.75-4-13.51-7.88c-4.83-2.81-10-5.32-14.53-8.64-.22-.16-.1-.61.2-.48,5,2.07,9.59,5.13,14.22,7.85s9.11,5.45,13.62,8.24q0-9.72.08-19.44A153.8,153.8,0,0,1,51,144.48c-.23-.14-.08-.56.19-.45a155.53,155.53,0,0,1,21,10.37c0-3.37,0-6.74.07-10.11.19-17.35.22-34.73.66-52.08C68.51,90,64,88,59.55,85.78c-.29-.15-.09-.66.22-.54C64.25,87,68.56,89.07,73,91c.24-9,.58-17.91,1.12-26.85a.23.23,0,0,1,.46,0c.62,16.62.57,33.27.36,49.9,4.58-3.65,9.45-6.88,14.11-10.42.18-.14.35.17.18.3-4.87,3.71-9.42,7.81-14.3,11.5,0,.94,0,1.88,0,2.82,5-2.27,10-4.38,15-6.52.4-.17.75.39.35.58-5.11,2.45-10.2,5-15.37,7.26-.12,8.24-.26,16.48-.36,24.72-.19,14.39-.51,28.77-.81,43.16q14-7.11,28.29-13.82c.36-.17.68.34.32.55a296.92,296.92,0,0,1-28.64,14.38c-.25,11.95-.5,23.91-.65,35.86a.57.57,0,0,1-1.13,0c.17-15.25.19-30.49.23-45.74-4.93-1.22-23.59-9.21-28-11.4C43.61,167.06,43.93,166.27,44.41,166.45Z" style="fill:#37474f"></path><path d="M398.53,201.47c1.7,1.71,21.57,2.47,28.8,2.47s27.1-.76,28.81-2.47S433.78,67.68,427.33,67.68,396.82,199.77,398.53,201.47Z" style="fill:#455a64"></path><path d="M398.13,167.82c4.91,1.87,23.1,9.27,27,11.43,0-.82,0-1.65,0-2.48-4.38-2.58-8.79-5.14-13.19-7.7-4.72-2.74-9.79-5.2-14.19-8.43-.22-.16-.1-.6.2-.48,4.85,2,9.36,5,13.89,7.67s8.89,5.33,13.3,8q0-9.49.08-19a151.11,151.11,0,0,1-20.73-10.53c-.23-.14-.08-.56.19-.45A152.3,152.3,0,0,1,425.25,156c0-3.29,0-6.58.07-9.87.19-16.95.22-33.92.65-50.87-4.31-2.18-8.75-4.1-13.06-6.28-.29-.15-.09-.64.22-.52,4.37,1.7,8.58,3.73,12.88,5.62.23-8.75.56-17.49,1.09-26.22a.23.23,0,0,1,.46,0c.6,16.23.55,32.48.35,48.74,4.46-3.57,9.23-6.73,13.77-10.18.18-.14.35.16.18.29-4.76,3.62-9.2,7.63-14,11.23,0,.92,0,1.84,0,2.76,4.85-2.22,9.76-4.28,14.66-6.38.38-.16.73.39.33.58-5,2.39-9.95,4.83-15,7.08-.12,8-.26,16.1-.36,24.15-.18,14.05-.49,28.1-.79,42.15q13.71-6.93,27.63-13.49c.36-.17.66.33.31.53a291,291,0,0,1-28,14c-.25,11.67-.49,23.35-.64,35a.56.56,0,0,1-1.11,0c.17-14.89.19-29.78.23-44.67-4.82-1.2-23-9-27.37-11.13C397.34,168.41,397.65,167.63,398.13,167.82Z" style="fill:#37474f"></path><path d="M129,204.21c1.51,1.51,19.07,2.18,25.45,2.18s24-.67,25.46-2.18S160.12,86,154.42,86,127.46,202.7,129,204.21Z" style="fill:#37474f"></path><path d="M128.62,174.47c4.34,1.65,20.41,8.2,23.88,10.1,0-.73,0-1.46,0-2.19q-5.82-3.42-11.66-6.8c-4.17-2.43-8.65-4.6-12.54-7.46-.19-.14-.09-.53.18-.42,4.28,1.79,8.27,4.44,12.27,6.78s7.86,4.71,11.75,7.11q0-8.39.07-16.78a132.32,132.32,0,0,1-18.31-9.31c-.2-.12-.07-.48.16-.39a135.35,135.35,0,0,1,18.16,8.95c0-2.91,0-5.82.06-8.72.16-15,.19-30,.57-44.95-3.81-1.92-7.73-3.62-11.54-5.55-.25-.13-.08-.57.19-.46,3.86,1.51,7.59,3.3,11.38,5,.21-7.72.5-15.45,1-23.16a.2.2,0,0,1,.4,0c.54,14.34.49,28.7.31,43.06,3.95-3.15,8.16-5.94,12.18-9,.15-.12.3.14.15.26-4.2,3.19-8.13,6.74-12.34,9.92,0,.81,0,1.62,0,2.44,4.29-2,8.63-3.78,13-5.63.34-.15.65.34.3.5-4.41,2.11-8.8,4.27-13.26,6.26-.1,7.12-.22,14.23-.32,21.34-.16,12.41-.43,24.83-.7,37.25q12.12-6.14,24.42-11.93c.32-.15.59.29.28.47a252.51,252.51,0,0,1-24.72,12.41c-.21,10.32-.43,20.64-.56,31a.49.49,0,0,1-1,0c.14-13.16.16-26.32.2-39.48-4.26-1.06-20.36-8-24.19-9.84C127.92,175,128.2,174.31,128.62,174.47Z" style="fill:#455a64"></path><path d="M320.86,199.7c1.84,1.84,23.21,2.65,31,2.65s29.14-.81,31-2.65-24.05-143.88-31-143.88S319,197.87,320.86,199.7Z" style="fill:#37474f"></path><path d="M320.43,163.51c5.28,2,24.84,10,29.07,12.3,0-.89,0-1.78,0-2.67q-7.08-4.17-14.19-8.28c-5.07-3-10.53-5.59-15.26-9.07-.23-.17-.11-.65.21-.52,5.22,2.18,10.07,5.4,14.94,8.26s9.56,5.72,14.3,8.65q0-10.22.09-20.42a162.58,162.58,0,0,1-22.29-11.33c-.25-.15-.08-.6.2-.48a163.53,163.53,0,0,1,22.1,10.89c0-3.54,0-7.07.07-10.61.2-18.23.23-36.48.7-54.71-4.64-2.34-9.42-4.4-14.05-6.75-.31-.16-.09-.69.23-.56,4.71,1.83,9.24,4,13.85,6,.25-9.4.61-18.8,1.19-28.19a.24.24,0,0,1,.48,0c.65,17.46.6,34.93.38,52.41,4.8-3.84,9.92-7.23,14.81-11,.19-.14.38.18.19.32-5.11,3.89-9.89,8.2-15,12.08,0,1,0,2,0,3,5.21-2.38,10.5-4.6,15.76-6.85.41-.18.78.41.36.61-5.36,2.57-10.71,5.2-16.14,7.62-.12,8.66-.27,17.31-.38,26-.2,15.11-.53,30.22-.85,45.33q14.75-7.45,29.72-14.51c.38-.18.71.35.33.57a309.51,309.51,0,0,1-30.08,15.1c-.26,12.56-.52,25.12-.68,37.67a.6.6,0,0,1-1.19,0c.18-16,.2-32,.25-48-5.19-1.28-24.78-9.67-29.43-12C319.59,164.14,319.92,163.31,320.43,163.51Z" style="fill:#455a64"></path><path d="M149.09,207.31c-1.28,1.28-16.22,1.85-21.65,1.85s-20.37-.57-21.65-1.85,16.81-100.56,21.65-100.56S150.37,206,149.09,207.31Z" style="fill:#455a64"></path><path d="M149.39,182c-3.69,1.41-17.36,7-20.31,8.6,0-.62,0-1.24,0-1.87q5-2.91,9.91-5.78c3.55-2.07,7.36-3.91,10.67-6.34.16-.12.07-.45-.15-.36A88.55,88.55,0,0,0,139.06,182c-3.36,2-6.68,4-10,6.05,0-4.76,0-9.52-.06-14.28a113.3,113.3,0,0,0,15.57-7.92c.18-.1.06-.41-.14-.33A115.76,115.76,0,0,0,129,173.16c0-2.47,0-4.95-.05-7.42-.14-12.74-.16-25.49-.49-38.23,3.24-1.63,6.58-3.08,9.82-4.72.21-.11.06-.48-.16-.39-3.29,1.28-6.46,2.8-9.68,4.22-.18-6.57-.43-13.14-.83-19.7a.17.17,0,0,0-.34,0c-.45,12.2-.42,24.41-.26,36.63-3.36-2.68-6.94-5.05-10.36-7.65-.13-.1-.26.12-.13.22,3.58,2.72,6.92,5.73,10.5,8.44l0,2.07c-3.64-1.66-7.34-3.21-11-4.79-.29-.12-.54.29-.25.43,3.75,1.8,7.48,3.63,11.28,5.33q.14,9.08.27,18.14c.14,10.56.37,21.12.59,31.68q-10.31-5.21-20.77-10.14c-.26-.12-.49.25-.23.4a219.54,219.54,0,0,0,21,10.56c.19,8.77.37,17.55.48,26.33a.42.42,0,0,0,.83,0c-.12-11.2-.14-22.39-.17-33.58,3.62-.9,17.31-6.76,20.57-8.37C150,182.46,149.74,181.88,149.39,182Z" style="fill:#37474f"></path><path d="M398.29,207.31c-1.28,1.28-16.21,1.85-21.65,1.85s-20.36-.57-21.65-1.85,16.81-100.56,21.65-100.56S399.57,206,398.29,207.31Z" style="fill:#455a64"></path><path d="M398.59,182c-3.69,1.41-17.36,7-20.31,8.6,0-.62,0-1.24,0-1.87q5-2.91,9.92-5.78c3.55-2.07,7.36-3.91,10.67-6.34.16-.12.07-.45-.15-.36A87.76,87.76,0,0,0,388.27,182c-3.36,2-6.69,4-10,6.05q0-7.14-.06-14.28a113.42,113.42,0,0,0,15.58-7.92c.17-.1.06-.41-.14-.33a115.17,115.17,0,0,0-15.44,7.61c0-2.47,0-4.95-.06-7.42-.13-12.74-.16-25.49-.48-38.23,3.24-1.63,6.58-3.08,9.82-4.72.21-.11.06-.48-.17-.39-3.29,1.28-6.45,2.8-9.68,4.22-.17-6.57-.42-13.14-.83-19.7a.17.17,0,1,0-.33,0c-.46,12.2-.42,24.41-.27,36.63-3.36-2.68-6.94-5.05-10.35-7.65-.14-.1-.26.12-.13.22,3.57,2.72,6.91,5.73,10.49,8.44l0,2.07c-3.64-1.66-7.33-3.21-11-4.79-.29-.12-.55.29-.26.43,3.75,1.8,7.49,3.63,11.28,5.33q.14,9.08.27,18.14c.14,10.56.37,21.12.6,31.68q-10.31-5.21-20.77-10.14c-.27-.12-.5.25-.24.4a220.72,220.72,0,0,0,21,10.56c.19,8.77.37,17.55.49,26.33a.41.41,0,0,0,.82,0c-.12-11.2-.14-22.39-.17-33.58,3.63-.9,17.32-6.76,20.57-8.37C399.19,182.46,399,181.88,398.59,182Z" style="fill:#37474f"></path></g><g id="freepik--Floor--inject-8"><path d="M38.64,225c135.41-.62,287.31-.62,422.72,0-135.41.61-287.31.61-422.72,0Z" style="fill:#263238"></path></g><g id="freepik--Rocks--inject-8"><path d="M427,238.47a46.38,46.38,0,0,1,8.28,13.44,26.66,26.66,0,0,1,1.38,8.08,32.23,32.23,0,0,1-.66,8.82.34.34,0,0,1-.66-.09,76.5,76.5,0,0,0,.33-8.29,27.69,27.69,0,0,0-1.19-8.3A56.1,56.1,0,0,0,427,238.51S427,238.45,427,238.47Z" style="fill:#455a64"></path><path d="M433.74,262.12a24.49,24.49,0,0,1,1.07-6.18c1.24-3.78,2.71-7.65,5.35-10.69.07-.08.23,0,.16.13-2.26,3.33-3.39,7.22-4.57,11a28.45,28.45,0,0,0-1,6.16,40.25,40.25,0,0,1-.68,6.5c-.05.22-.44.25-.47,0A34.27,34.27,0,0,1,433.74,262.12Z" style="fill:#37474f"></path><path d="M422.92,246.15a33.32,33.32,0,0,1,9.78,8.8c1.37,1.85,1.81,4.15,2.28,6.36a36.12,36.12,0,0,1,.9,7.53c0,.44-.72.57-.79.11-.33-2.25-.6-4.5-1-6.74s-.69-4.81-2-6.72a38.57,38.57,0,0,0-9.32-9.15A.11.11,0,0,1,422.92,246.15Z" style="fill:#455a64"></path><path d="M386.16,300.69c-.22,1.8-.56,3.58-.93,5.35-.2,1-.42,2-.62,3a7.25,7.25,0,0,0-.26,3.36h0a.81.81,0,0,1,0,.15v0a.13.13,0,0,1-.23,0,.19.19,0,0,1,0-.07l0,0a4.32,4.32,0,0,1-.39-.93,23.42,23.42,0,0,1-.89-2.6,22.55,22.55,0,0,1-.88-5.54,19,19,0,0,1,.53-5c.32-1.31.77-3.26,1.75-4.26s1.61.55,1.87,1.28A12.05,12.05,0,0,1,386.16,300.69Z" style="fill:#7C61B3"></path><path d="M384.55,296.88c-.65,0-1.13,2.11-1.36,3a18.19,18.19,0,0,0-.56,4.41,23.25,23.25,0,0,0,1.36,7.83c0,.1.06.2.1.3l0,0a.25.25,0,0,0,0,.07.13.13,0,0,0,.23,0c0-.22-.07-.44-.1-.66s-.05-.39-.06-.59a31.42,31.42,0,0,1,.4-6.49C384.92,302.35,385.42,296.88,384.55,296.88Zm-.47,14.88c0,.29.08.58.13.86-.06-.2-.13-.41-.19-.62a26.28,26.28,0,0,1-1.24-6.91,18.68,18.68,0,0,1,.29-3.95,18.39,18.39,0,0,1,.51-2.07c.09-.28.57-2.05,1-2s.35,1.66.36,1.7c0,.31,0,.63,0,1,0,.66-.05,1.32-.11,2-.12,1.43-.33,2.84-.5,4.26A24.8,24.8,0,0,0,384.08,311.76Z" style="fill:#fff"></path><path d="M396.48,305.65a17,17,0,0,1-5.32,5.69c-1.12.82-2.28,1.6-3.42,2.39a18.71,18.71,0,0,0-3,2.28l-.11.12a4.5,4.5,0,0,0-.61.84.07.07,0,0,1-.06,0,.3.3,0,0,1,0,.1s0,0,0,0,0-.08,0-.11h0a.08.08,0,0,1,0-.09l0,0s0-.08,0-.11c.34-2.75,2.26-5.52,3.88-7.63a14.64,14.64,0,0,1,6.13-4.95c.63-.24,2.07-.91,2.71-.4S396.74,305.16,396.48,305.65Z" style="fill:#7C61B3"></path><path d="M394.62,305.66c-.57-.57-2.25.84-2.67,1.17a27.87,27.87,0,0,0-3.48,3.39,25,25,0,0,0-4.45,6.43h0l-.06.07s0,.08,0,.12l0,0a.08.08,0,0,0,0,.09l.08-.1q.32-.39.66-.75a1.31,1.31,0,0,1,.11-.12,54.38,54.38,0,0,1,5.21-4.6,25.64,25.64,0,0,0,3.46-3.37C393.72,307.72,395.1,306.14,394.62,305.66Zm-.52,1.26c-1.42,2.36-3.88,4.08-6,5.79a29.39,29.39,0,0,0-4,3.76,26.73,26.73,0,0,1,4.11-5.78,35.34,35.34,0,0,1,2.83-2.91,15.17,15.17,0,0,1,1.71-1.38,5.93,5.93,0,0,1,1.17-.62C394.78,305.54,394.34,306.52,394.1,306.92Z" style="fill:#fff"></path><path d="M383.68,322.56a.17.17,0,0,1-.13.07l0,0a0,0,0,0,1,0,.06,0,0,0,0,1-.06,0,23.64,23.64,0,0,1-5.48-8,12.62,12.62,0,0,1-.79-4c0-.92-.08-2.78.71-3.45,1.59-1.35,3,4.39,3.26,5.25.39,1.58.65,3.18,1,4.77s.92,3.43,1.44,5.13A.14.14,0,0,1,383.68,322.56Z" style="fill:#7C61B3"></path><path d="M383.68,322.56a3.83,3.83,0,0,1-.25-.44,26.9,26.9,0,0,1-2.87-7.71,24.17,24.17,0,0,0-1.06-4c-.12-.32-.52-1.54-1.05-.92-.27.32,0,2.64.07,3.23a16.39,16.39,0,0,0,1.29,3.94,27.72,27.72,0,0,0,3.64,5.92,1,1,0,0,0,.13.16,0,0,0,0,0,0-.06l0,0A.14.14,0,0,0,383.68,322.56Zm-3.23-4.93a19.66,19.66,0,0,1-1.53-3.82,14.82,14.82,0,0,1-.33-1.61,8,8,0,0,1-.11-1.28c0-1.05.09-1.32.26-1.36s.26.09.57.72a6.4,6.4,0,0,1,.45,1.27c.16.62.3,1.24.44,1.87.27,1.25.52,2.5.89,3.73a20.56,20.56,0,0,0,2.21,5A31.66,31.66,0,0,1,380.45,317.63Z" style="fill:#fff"></path><path d="M390.81,317.06a7.94,7.94,0,0,1-1.46,3c-1.32,1.82-3,3.33-4.45,5.06-.21.25-.42.52-.63.79,0,0-.19.41-.18.38s0-.16.07-.4h0a31.73,31.73,0,0,1,1.94-6.72,16.48,16.48,0,0,1,2.1-3.3c.41-.46,1.37-1.46,2.1-1.24S390.92,316.48,390.81,317.06Z" style="fill:#7C61B3"></path><path d="M389.63,316.32c-.77-.48-2.76,3.08-3,3.54a22.63,22.63,0,0,0-2.27,5.42c-.06.22-.12.43-.17.65s-.07.39-.07.39.16-.34.18-.38l.11-.13c.17-.22.34-.44.52-.65.86-1.3,1.75-2.58,2.59-3.89a20.65,20.65,0,0,0,1.61-3C389.2,318.08,390,316.53,389.63,316.32Zm-.22,1c-1.1,3.09-3.34,5.53-5.05,8.28l-.08.13a2.17,2.17,0,0,1,.07-.24,26,26,0,0,1,1.81-4.52,25.3,25.3,0,0,1,1.53-2.55,13.8,13.8,0,0,1,.95-1.32c.16-.18.62-.64.77-.56S389.48,317.12,389.41,317.33Z" style="fill:#fff"></path><path d="M398.56,291.53c-2.29,5.27-8.31,7.72-10.92,12.81l0,0c-.08.16-.15.32-.22.48a.11.11,0,0,1-.18,0,.08.08,0,0,1,0-.08l.06-.12a27.23,27.23,0,0,1,3.22-9.23,13.94,13.94,0,0,1,5.62-6c.62-.32,1.82-1,2.51-.46S398.85,290.88,398.56,291.53Z" style="fill:#7C61B3"></path><path d="M396.5,291.75c-.29-.21-.74.05-1,.18a8.52,8.52,0,0,0-1.74,1.19,14.38,14.38,0,0,0-2.77,3.3,29.89,29.89,0,0,0-3.28,6.63c-.17.54-.33,1.07-.45,1.61,0,.07,0,.14,0,.2a.11.11,0,0,0,.18,0c.06-.16.14-.31.21-.46a.08.08,0,0,0,0,0,18.28,18.28,0,0,1,1.64-3,40.65,40.65,0,0,1,3.44-4.07C393.17,296.74,397.51,292.49,396.5,291.75Zm-.37,1.22a20,20,0,0,1-2.72,3.3c-1,1.07-1.92,2.12-2.85,3.2a20.09,20.09,0,0,0-2,2.74,16.22,16.22,0,0,0-1.26,2.54,22.18,22.18,0,0,1,.9-2.64l0,0a39,39,0,0,1,2.22-4.43l0-.06a17.74,17.74,0,0,1,2.54-3.54,10.68,10.68,0,0,1,1.81-1.54c.75-.49,1.41-.8,1.6-.56S396.34,292.61,396.13,293Z" style="fill:#fff"></path><path d="M390.55,297.71c-.69,1.48-1.35,3-2,4.5-.31.71-.62,1.42-.92,2.13a.08.08,0,0,1,0,0l-.33.77a47.88,47.88,0,0,0-2.69,7.13,20.87,20.87,0,0,0-.55,4c0,.14,0,.28,0,.41h0c0,.07,0,.15,0,.22V317c0,1.16,0,2.32,0,3.44,0,1.58.16,3.14.31,4.7a.57.57,0,0,0,0,.13c0,.08,0,.15,0,.22v.11a1.5,1.5,0,0,0,0,.2c.05.5.09,1,.14,1.5H384a31.15,31.15,0,0,1-.59-4.64v-.1c0-.15,0-.3,0-.45a5.25,5.25,0,0,1,0-.56c0-.45,0-.9,0-1.34a33.71,33.71,0,0,1,.55-7.77,2.09,2.09,0,0,0,0-.21l0-.09a.8.8,0,0,1,0-.15l.06-.24.12-.42,0-.13a50.41,50.41,0,0,1,2.65-6.4l.53-1.13.3-.63c.16-.31.32-.63.47-.94l0,0c.73-1.48,1.5-2.95,2.22-4.43C390.47,297.58,390.58,297.64,390.55,297.71Z" style="fill:#7C61B3"></path><path d="M442.07,269.87H427.73s1.54-3.43,2.91-4.26a12,12,0,0,1,7.08-.92C439.71,265.23,442.07,269.87,442.07,269.87Z" style="fill:#a6a6a6"></path><path d="M368.8,329.63H391s-2.71-8-9.89-8.2S368.8,329.63,368.8,329.63Z" style="fill:#c7c7c7"></path><path d="M424.23,273.6h-7.15s.92-2.08,2-2.5a5.7,5.7,0,0,1,4.11,1A6.29,6.29,0,0,1,424.23,273.6Z" style="fill:#c7c7c7"></path><path d="M293.78,260.24H246.89s7.65-8.76,13.42-10.42,14.16-2.66,19-1.56S293.78,260.24,293.78,260.24Z" style="fill:#a6a6a6"></path><path d="M289.77,262.21H277.19s1.61-3.66,3.51-4.39,6.22.66,7.24,1.68A11.68,11.68,0,0,1,289.77,262.21Z" style="fill:#c7c7c7"></path><path d="M127.77,262.21h-17s2.18-5,4.76-5.95,8.41.9,9.8,2.28A15.73,15.73,0,0,1,127.77,262.21Z" style="fill:#c7c7c7"></path><path d="M415.67,344.19c6.76,7.95,12.78,16.9,16.47,26.73,1.92,5.11,2.5,10.65,2.76,16.07a65.06,65.06,0,0,1-1.31,17.56c-.17.72-1.38.58-1.32-.18a154.17,154.17,0,0,0,.66-16.51c-.18-5.46-.53-11.32-2.37-16.51-3.39-9.56-9.06-18.89-15-27.1C415.56,344.2,415.63,344.14,415.67,344.19Z" style="fill:#455a64"></path><path d="M429,391.24A49.71,49.71,0,0,1,431.14,379c2.48-7.52,5.4-15.24,10.65-21.27.15-.18.46.05.32.24-4.5,6.62-6.74,14.37-9.09,21.93a55.92,55.92,0,0,0-1.92,12.27c-.35,4.22-.32,8.81-1.35,12.92-.11.44-.88.5-.95,0C428.18,400.59,428.7,395.71,429,391.24Z" style="fill:#37474f"></path><path d="M428.27,391.24A49.25,49.25,0,0,0,426.14,379c-2.47-7.52-5.39-15.24-10.65-21.27-.15-.18-.45.05-.32.24,4.5,6.62,6.75,14.37,9.09,21.93a56.54,56.54,0,0,1,1.93,12.27c.34,4.22.32,8.81,1.35,12.92.11.44.88.5.95,0C429.1,400.59,428.58,395.71,428.27,391.24Z" style="fill:#455a64"></path><path d="M407.49,359.46A66.35,66.35,0,0,1,427,377c2.73,3.68,3.6,8.25,4.54,12.65a71.41,71.41,0,0,1,1.79,15c0,.87-1.43,1.13-1.57.21-.66-4.46-1.2-8.94-2-13.4s-1.37-9.58-3.91-13.38c-4.84-7.23-11.64-13.06-18.56-18.21C407.06,359.67,407.24,359.32,407.49,359.46Z" style="fill:#455a64"></path><path d="M458.85,413.34H403.58s6.76-19.89,24.66-20.44S458.85,413.34,458.85,413.34Z" style="fill:#c7c7c7"></path><path d="M96,246.31C89.7,253.66,84.13,261.93,80.72,271c-1.78,4.72-2.31,9.85-2.55,14.86a59.71,59.71,0,0,0,1.21,16.23A.62.62,0,0,0,80.6,302,141.27,141.27,0,0,1,80,286.69c.17-5.05.49-10.46,2.19-15.26C85.31,262.58,90.56,254,96,246.37,96.05,246.32,96,246.27,96,246.31Z" style="fill:#455a64"></path><path d="M83.61,289.81a45.55,45.55,0,0,0-2-11.36c-2.29-7-5-14.09-9.85-19.67-.13-.16-.41.05-.29.23,4.16,6.12,6.23,13.28,8.41,20.28a51.63,51.63,0,0,1,1.77,11.34c.32,3.9.3,8.14,1.25,11.95.11.41.82.46.88,0C84.38,298.46,83.9,293.94,83.61,289.81Z" style="fill:#37474f"></path><path d="M103.51,260.43a61.46,61.46,0,0,0-18,16.19c-2.52,3.41-3.33,7.63-4.2,11.7a66.71,66.71,0,0,0-1.65,13.86c0,.8,1.32,1,1.45.2.61-4.14,1.11-8.28,1.82-12.4s1.27-8.86,3.62-12.37c4.47-6.69,10.76-12.07,17.15-16.84A.2.2,0,0,0,103.51,260.43Z" style="fill:#455a64"></path><path d="M58.39,279.26c-2.5.09-5.28.23-7.35-1.39-1.91-1.49-3.61-3.72-3.36-6.28.07-.73.24-1.18,1-.87,1.19.48,2.11,1.79,2.93,2.71a25.12,25.12,0,0,0,3.47,3.29c.89.68,1.84,1.27,2.75,1.93l.34.25.13.1h.07a.11.11,0,0,1,.1.05s0,0,0,.05A.12.12,0,0,1,58.39,279.26Z" style="fill:#7C61B3"></path><path d="M58.51,279.1c-2.19,0-4.56.06-6.32-1.43a10.16,10.16,0,0,1-2-2.48c-.25-.41-1-1.64-.7-2.13.57-.89,3.19,2.73,3.55,3.07a10.73,10.73,0,0,0,4.85,2.52l.34.25a11.85,11.85,0,0,1-3.64-1.4c-1.56-.93-2.43-2.3-3.64-3.58-.27-.28-1.06-1.21-1.36-.63-.2.38.54,1.59.69,1.84a10.44,10.44,0,0,0,1.93,2.36c1.75,1.53,4.11,1.47,6.32,1.56C58.5,279.07,58.51,279.08,58.51,279.1Z" style="fill:#fff"></path><path d="M59.77,280.78c0,.1,0,.2-.06.29h0a0,0,0,0,1,0,.05.1.1,0,0,1-.13-.05s0,0,0-.06l0,0,0-.08h0v0c-.44-1.65-.61-3.37-1.08-5s-1-3.13-1.32-4.74c-.2-1-.91-6.11,1.34-5.47,1,.28,1.68,1.72,2,2.58a10.54,10.54,0,0,1,.83,3.66C61.53,275,60.39,277.81,59.77,280.78Z" style="fill:#7C61B3"></path><path d="M60.48,274.44a11.88,11.88,0,0,0-.36-3.46c-.1-.39-.58-2.26-1.22-2.21-.41,0-.48.83-.51,1.1a10.57,10.57,0,0,0,.44,3.39,47.26,47.26,0,0,1,.83,6.81c0,.14,0,.29-.06.43s0,.24-.05.36,0,.08,0,.13,0,.06,0,.09a.11.11,0,0,0,.14.05l0-.28a1.85,1.85,0,0,1,0,.23h0c0-.08,0-.15,0-.23a.13.13,0,0,0,0-.06v-.37A52.28,52.28,0,0,0,60.48,274.44Zm-.75,5.14q-.1-2-.39-4c-.15-1.06-.35-2.12-.57-3.17a11.18,11.18,0,0,1-.29-1.81c0-.46.05-2.18.93-1.12a6.9,6.9,0,0,1,.87,3.37,16.69,16.69,0,0,1-.06,3.16C60.1,277.22,59.9,278.4,59.73,279.58Z" style="fill:#fff"></path><path d="M61.11,287.64H61c-2.29-.12-5.33.1-7.23-1.41-1.4-1.12-2.78-3.32-2.34-5.2.51-2.1,3.36.43,4.11,1a69.67,69.67,0,0,1,5.6,5.44l0,0h0S61.16,287.62,61.11,287.64Z" style="fill:#7C61B3"></path><path d="M61.19,287.57l-.4-.25q-2.25-1.41-4.37-3c-.35-.27-2.92-2.56-3.31-1.74-.23.49.62,1.5.89,1.84a6.92,6.92,0,0,0,1.73,1.55c1.52.94,3.37,1.15,5.09,1.61l.24.06,0,0h0S61.21,287.6,61.19,287.57Zm-4.52-1.3a7.27,7.27,0,0,1-2-1.33c-.38-.37-1.73-1.73-1.37-2.29.19-.3.35-.14.71,0a5.5,5.5,0,0,1,.48.28c.39.26.74.55,1.09.83.63.51,1.27,1,1.92,1.46,1.06.78,2.15,1.5,3.26,2.2A36,36,0,0,1,56.67,286.27Z" style="fill:#fff"></path><path d="M65.28,282.93a13.49,13.49,0,0,1-3.91,6.84l0,0a.08.08,0,0,1-.11,0,.09.09,0,0,1,0-.13l.12-.12c.37-3.1.79-6.19,1.11-9.3.07-.73.65-5.4,2.08-4.64.89.47,1,2.38,1,3.24A13.33,13.33,0,0,1,65.28,282.93Z" style="fill:#7C61B3"></path><path d="M64.45,278.77c-.08-.26-.21-.52-.5-.34-.56.35-.78,2.54-.87,3.15-.39,2.5-1,4.91-1.58,7.36l-.15.62-.14.19a.09.09,0,0,0,.11,0,.14.14,0,0,0,0-.06c.07-.08.13-.17.19-.25h0a16.1,16.1,0,0,0,2.26-4.4,15.29,15.29,0,0,0,.67-3.07A9,9,0,0,0,64.45,278.77Zm-2.93,10.54-.08.12.07-.25a44.71,44.71,0,0,0,1.4-5.7c.17-1,.27-2,.47-2.94.09-.41.29-1.58.63-1.77s.33.27.37.53,0,.54,0,.71A15.79,15.79,0,0,1,61.52,289.31Z" style="fill:#fff"></path><path d="M61.75,296.46h-.46l0-1.2c0-1.62-.12-3.25-.21-4.87-.06-.92-.12-1.84-.22-2.75a.28.28,0,0,1,0-.09l0-.23a2,2,0,0,0,0-.24,19.6,19.6,0,0,0-1.56-6c-.3-.63-.61-1.24-1-1.86l-.09-.17,0,0a1.62,1.62,0,0,0-.1-.18l-.08-.13c-1.05-1.86-2.26-3.64-3.41-5.43-.33-.51-.66-1-1-1.54a.41.41,0,0,1-.05-.09l-.08-.11c-1.44-2.28-2.85-4.57-4.35-6.8-.06-.08.08-.15.13-.07,1,1.48,2.06,2.93,3.1,4.4l.41.58.82,1.16c.54.77,1.07,1.55,1.6,2.33a67.92,67.92,0,0,1,4.2,6.8l.26.54c0,.11.11.23.15.34l.18.39a21.34,21.34,0,0,1,1.54,7.19l0,.52c0,.08,0,.16,0,.24s0,.08,0,.13,0,.11,0,.16h0v.12c0,.15,0,.3,0,.45.07,1.62.11,3.24.15,4.86C61.71,295.42,61.73,295.94,61.75,296.46Z" style="fill:#7C61B3"></path><path d="M48.12,267.08c-1.25-1.68-2.85-5.15-1-6.95a2,2,0,0,1,2.61-.19,5.66,5.66,0,0,1,1.72,3.13c.85,2.94,1.41,5.94,2.46,8.82,0,0,.09.25.12.31s-.08.09-.1,0-.07-.19-.1-.28C51.83,270.5,49.6,269.07,48.12,267.08Z" style="fill:#7C61B3"></path><path d="M53.92,271.9l0,0a20.79,20.79,0,0,1-1.17-2.18,42.72,42.72,0,0,1-1.8-4.81c-.2-.63-1.1-3.72-2.2-2.49a2.75,2.75,0,0,0-.32,2.07,7.6,7.6,0,0,0,1,2.89,14.09,14.09,0,0,0,4.15,4.34l.22.17,0,.07,0,0s0,0,0,0a.07.07,0,0,0,.1-.05A.06.06,0,0,0,53.92,271.9Zm-.49-.34A16.59,16.59,0,0,1,49.91,268a8.91,8.91,0,0,1-1.14-2.34,7.36,7.36,0,0,1-.25-1.13,5.14,5.14,0,0,1-.05-.87c0-.64.28-1.33.66-1.4s.62.19.92.72a4.18,4.18,0,0,1,.28.56c.2.48.36,1,.52,1.47.26.81.52,1.62.81,2.43.2.55.41,1.09.65,1.62a19.67,19.67,0,0,0,1.37,2.66Z" style="fill:#fff"></path><path d="M70.5,282.12c-.13,1-.32,2-.52,3-.12.57-.24,1.13-.35,1.7a4,4,0,0,0-.15,1.88h0v.08h0a.08.08,0,0,1-.13,0l0,0h0a2.63,2.63,0,0,1-.21-.53,14,14,0,0,1-.51-1.46,13.1,13.1,0,0,1-.49-3.11,10.62,10.62,0,0,1,.3-2.81,5.54,5.54,0,0,1,1-2.39c.5-.51.91.31,1,.72A6.72,6.72,0,0,1,70.5,282.12Z" style="fill:#7C61B3"></path><path d="M69.6,280c-.37,0-.64,1.19-.77,1.7a10.41,10.41,0,0,0-.32,2.48,13.14,13.14,0,0,0,.77,4.4,1.21,1.21,0,0,0,0,.18h0l0,0a.07.07,0,0,0,.13,0,2.2,2.2,0,0,1-.06-.37c0-.11,0-.22,0-.33a17.72,17.72,0,0,1,.22-3.64C69.8,283.06,70.08,280,69.6,280Zm-.27,8.37c0,.16,0,.32.07.48,0-.12-.07-.23-.11-.35a15.06,15.06,0,0,1-.69-3.88,11,11,0,0,1,.16-2.22,8.94,8.94,0,0,1,.29-1.16c0-.16.32-1.16.55-1.11s.19.93.19.95c0,.18,0,.36,0,.54,0,.37,0,.74-.06,1.11-.07.8-.18,1.6-.28,2.4A14.06,14.06,0,0,0,69.33,288.35Z" style="fill:#fff"></path><path d="M76.3,284.91a9.74,9.74,0,0,1-3,3.2c-.63.46-1.28.9-1.92,1.34a11.23,11.23,0,0,0-1.67,1.28l-.06.07a2.62,2.62,0,0,0-.34.48.05.05,0,0,1,0,0,.08.08,0,0,1,0,.05s0,0,0,0v-.07h0a0,0,0,0,1,0,0v0a.17.17,0,0,0,0-.07,9.79,9.79,0,0,1,2.18-4.29,8.29,8.29,0,0,1,3.45-2.78c.35-.13,1.16-.51,1.52-.22S76.44,284.63,76.3,284.91Z" style="fill:#7C61B3"></path><path d="M75.25,284.92c-.32-.32-1.26.47-1.5.66a16,16,0,0,0-2,1.9,14,14,0,0,0-2.5,3.62h0l0,0s0,.05,0,.07v0s0,0,0,0l0,0c.12-.15.24-.29.37-.43l.06-.07a31.25,31.25,0,0,1,2.93-2.58,15.83,15.83,0,0,0,1.95-1.89C74.75,286.08,75.52,285.19,75.25,284.92Zm-.29.71a14.17,14.17,0,0,1-3.35,3.25A15.45,15.45,0,0,0,69.38,291a15.27,15.27,0,0,1,2.31-3.26,18.8,18.8,0,0,1,1.59-1.63,7,7,0,0,1,1-.77,3.24,3.24,0,0,1,.66-.36C75.34,284.85,75.1,285.4,75,285.63Z" style="fill:#fff"></path><path d="M69.1,294.42s0,0-.07,0l0,0s0,0,0,0h0a13.21,13.21,0,0,1-3.07-4.5,6.76,6.76,0,0,1-.45-2.22c0-.52,0-1.56.4-1.94.9-.76,1.71,2.47,1.83,2.95.22.89.37,1.79.57,2.68s.52,1.93.81,2.89A0,0,0,0,1,69.1,294.42Z" style="fill:#7C61B3"></path><path d="M69.1,294.42l-.14-.25a15.25,15.25,0,0,1-1.61-4.33,13.41,13.41,0,0,0-.59-2.26c-.07-.18-.3-.86-.59-.52a5.1,5.1,0,0,0,0,1.82,9.63,9.63,0,0,0,.73,2.22,15.4,15.4,0,0,0,2,3.32l.07.09s0,0,0,0l0,0S69.09,294.44,69.1,294.42Zm-1.81-2.77a11.35,11.35,0,0,1-.86-2.15,9.18,9.18,0,0,1-.19-.91,5.83,5.83,0,0,1-.06-.72c0-.59,0-.74.15-.76s.15.05.32.4a3.84,3.84,0,0,1,.25.72c.09.35.17.7.25,1,.15.7.29,1.41.5,2.09a11.47,11.47,0,0,0,1.24,2.82A17.52,17.52,0,0,1,67.29,291.65Z" style="fill:#fff"></path><path d="M73.11,291.33a4.4,4.4,0,0,1-.82,1.7c-.74,1-1.69,1.88-2.5,2.85-.12.14-.24.29-.35.44a1.9,1.9,0,0,1-.11.21s0-.08,0-.22h0a18.86,18.86,0,0,1,1.09-3.78,9.26,9.26,0,0,1,1.19-1.85c.23-.26.77-.82,1.17-.7S73.17,291,73.11,291.33Z" style="fill:#7C61B3"></path><path d="M72.45,290.91c-.43-.27-1.55,1.73-1.7,2A12.56,12.56,0,0,0,69.47,296c0,.12-.07.24-.1.36s0,.22,0,.22a2,2,0,0,0,.11-.21l.06-.08c.09-.12.19-.25.29-.36.49-.73,1-1.45,1.46-2.19a11.56,11.56,0,0,0,.9-1.66C72.21,291.9,72.64,291,72.45,290.91Zm-.12.56c-.62,1.74-1.88,3.11-2.84,4.66l0,.07,0-.13a14.34,14.34,0,0,1,1-2.54,14.64,14.64,0,0,1,.86-1.43,8.36,8.36,0,0,1,.53-.75c.09-.1.35-.36.44-.31S72.37,291.36,72.33,291.47Z" style="fill:#fff"></path><path d="M77.47,277c-1.29,3-4.68,4.35-6.14,7.2v0l-.13.26a.06.06,0,0,1-.1,0,0,0,0,0,1,0-.05l0-.06a15.43,15.43,0,0,1,1.81-5.19,7.83,7.83,0,0,1,3.16-3.36c.35-.18,1-.56,1.41-.26S77.63,276.61,77.47,277Z" style="fill:#7C61B3"></path><path d="M76.31,277.1c-.17-.12-.41,0-.56.1a4.65,4.65,0,0,0-1,.67,7.76,7.76,0,0,0-1.56,1.86,16.32,16.32,0,0,0-1.84,3.72,9.46,9.46,0,0,0-.26.91l0,.11a.06.06,0,0,0,.1,0l.12-.26,0,0a9.57,9.57,0,0,1,.92-1.69,23.16,23.16,0,0,1,1.93-2.29C74.44,279.9,76.88,277.52,76.31,277.1Zm-.21.69a11.23,11.23,0,0,1-1.53,1.85c-.53.6-1.08,1.19-1.6,1.8A10.69,10.69,0,0,0,71.84,283a8.28,8.28,0,0,0-.71,1.43,13.08,13.08,0,0,1,.51-1.49h0a21.59,21.59,0,0,1,1.25-2.5l0,0a10.61,10.61,0,0,1,1.42-2,5.6,5.6,0,0,1,1-.86c.42-.28.79-.45.9-.32S76.22,277.58,76.1,277.79Z" style="fill:#fff"></path><path d="M73,280.45c-.38.83-.75,1.68-1.12,2.53l-.51,1.19,0,0-.18.43a26.19,26.19,0,0,0-1.51,4,11.75,11.75,0,0,0-.31,2.22c0,.08,0,.16,0,.24h0v.2c0,.65,0,1.3,0,1.93,0,.89.09,1.76.17,2.64,0,0,0,.05,0,.08s0,.08,0,.12v.06a.45.45,0,0,0,0,.11c0,.28,0,.56.07.85H69.3a19,19,0,0,1-.32-2.61v-.06a2.11,2.11,0,0,1,0-.25c0-.11,0-.21,0-.32s0-.5,0-.75a18.28,18.28,0,0,1,.31-4.37s0-.08,0-.12,0,0,0-.05,0-.05,0-.08l0-.13a2.17,2.17,0,0,1,.07-.24l0-.07a28.39,28.39,0,0,1,1.49-3.6l.3-.63c.05-.12.11-.24.17-.36l.26-.53h0c.41-.84.84-1.66,1.25-2.5C72.92,280.38,73,280.41,73,280.45Z" style="fill:#7C61B3"></path><path d="M48.17,301.65H80.64s-3.49-7.76-6.57-9.64-11.51-3.32-16-2.08S48.17,301.65,48.17,301.65Z" style="fill:#a6a6a6"></path><path d="M69.64,305.46H90.19s-2.51-7.4-9.17-7.61S69.64,305.46,69.64,305.46Z" style="fill:#c7c7c7"></path></g><g id="freepik--Icon--inject-8"><circle cx="296.74" cy="131.76" r="31.19" style="fill:#7C61B3"></circle><g id="freepik--u5Zjqx--inject-8"><path d="M321.43,126.87l-2.21,2.18L318,130.31a30,30,0,0,0-42.49,0l-1.19-1.24-2.18-2.19-.06,0v-.06l.16-.13c.93-.82,1.83-1.68,2.79-2.47a32.1,32.1,0,0,1,6.44-4.1,32.71,32.71,0,0,1,8.54-2.88c1.42-.26,2.85-.39,4.27-.56.49-.06,3.64-.07,3.74-.07,1,.08,1.94.12,2.91.22a33.56,33.56,0,0,1,7.84,1.87,35.51,35.51,0,0,1,5.3,2.48,33.57,33.57,0,0,1,5.06,3.55c.79.68,1.55,1.39,2.33,2.09Z" style="fill:#fff"></path><path d="M282.47,137.24,279,133.78a24.49,24.49,0,0,1,14.17-7.11c8.24-1.12,15.32,1.38,21.31,7.06L311,137.21a20.16,20.16,0,0,0-28.51,0Z" style="fill:#fff"></path><path d="M307.5,140.71,304,144.18a10.3,10.3,0,0,0-14.6,0L286,140.74A15.13,15.13,0,0,1,307.5,140.71Z" style="fill:#fff"></path><path d="M299.86,147.32a3.13,3.13,0,1,1-3.13-3.13A3.13,3.13,0,0,1,299.86,147.32Z" style="fill:#fff"></path></g><path d="M297.78,166.87l0-.5c.66,0,1.33-.05,2-.11l0,.5C299.12,166.81,298.45,166.85,297.78,166.87Zm-2,0c-.67,0-1.34-.09-2-.16l.05-.5c.65.07,1.31.12,2,.16Zm6-.31-.07-.49c.65-.1,1.31-.21,1.95-.34l.1.49C303.1,166.32,302.43,166.44,301.77,166.53Zm-10-.1c-.66-.1-1.32-.22-2-.34l.1-.49c.64.12,1.29.24,1.95.33Zm13.92-.7-.13-.48c.64-.17,1.27-.35,1.9-.56l.15.48C307,165.37,306.34,165.56,305.7,165.73Zm-17.84-.08c-.66-.17-1.31-.35-1.93-.54l.14-.48c.62.19,1.26.37,1.91.53Zm21.65-1.16-.18-.46c.61-.24,1.22-.5,1.82-.77l.2.45C310.75,164,310.13,164.25,309.51,164.49Zm-25.48,0c-.63-.24-1.26-.49-1.86-.75l.19-.46c.6.26,1.22.51,1.84.74Zm-3.68-1.59c-.6-.3-1.19-.62-1.77-.95l.25-.44c.57.33,1.15.64,1.74.94Zm32.8-.06-.23-.45c.58-.3,1.16-.63,1.71-1l.26.43C314.33,162.18,313.74,162.51,313.15,162.83Zm-36.27-2c-.56-.37-1.11-.76-1.64-1.16l.3-.39c.53.39,1.07.77,1.62,1.13Zm39.7-.13-.28-.41c.54-.37,1.07-.76,1.59-1.16l.31.39C317.67,160,317.13,160.38,316.58,160.75Zm-42.9-2.28c-.51-.43-1-.88-1.49-1.35l.35-.36c.47.46,1,.91,1.46,1.33Zm46.07-.17-.33-.37c.5-.44,1-.89,1.46-1.34l.34.36Q320.52,157.64,319.75,158.3Zm-49-2.62c-.45-.49-.89-1-1.3-1.52l.39-.31c.41.5.84,1,1.28,1.49Zm51.83-.17-.37-.34c.45-.49.89-1,1.3-1.49l.39.31C323.52,154.5,323.08,155,322.62,155.51Zm-54.35-2.95c-.38-.55-.76-1.11-1.11-1.67l.42-.27c.35.56.72,1.11,1.1,1.65Zm56.89-.15-.4-.3c.38-.52.76-1.07,1.12-1.63l.42.27C325.93,151.32,325.55,151.87,325.16,152.41Zm-59-3.26c-.32-.58-.63-1.18-.91-1.78l.45-.22c.28.6.58,1.19.89,1.77Zm61.18-.12-.43-.24c.32-.58.64-1.17.92-1.75l.45.22C328,147.85,327.67,148.45,327.33,149Zm-62.9-3.5c-.24-.61-.48-1.25-.69-1.88l.47-.16c.21.62.44,1.25.69,1.85Zm64.68-.1-.46-.19c.25-.61.49-1.23.71-1.85l.47.17C329.61,144.19,329.37,144.82,329.11,145.43Zm-66-3.7c-.18-.63-.34-1.29-.49-1.95l.49-.1c.14.64.3,1.29.48,1.92Zm67.31-.08-.49-.14c.19-.63.36-1.27.51-1.91l.48.11C330.81,140.36,330.64,141,330.46,141.65Zm-68.18-3.83c-.1-.66-.2-1.33-.27-2l.5-.06c.07.66.16,1.32.27,2Zm69.08-.07-.49-.09c.11-.65.2-1.31.27-2l.5.06C331.57,136.42,331.47,137.09,331.36,137.75Zm-69.51-3.92c0-.66-.06-1.33-.06-2h.5q0,1,.06,2Zm70-.07-.5,0c0-.65.06-1.31.06-2v-.16h.5v.16C331.87,132.43,331.85,133.1,331.81,133.76Zm-69.47-3.91-.5,0c0-.66.09-1.34.16-2l.5.06C262.43,128.53,262.38,129.19,262.34,129.85Zm69-.22c0-.64-.09-1.3-.17-2l.49-.06c.08.68.14,1.35.18,2Zm-68.54-3.72-.5-.08c.11-.64.23-1.31.37-2l.49.11C263,124.62,262.86,125.28,262.76,125.91Zm68.08-.2c-.12-.65-.25-1.3-.4-1.94l.49-.12c.15.65.29,1.31.4,2Zm-67.25-3.66-.48-.13c.17-.64.37-1.29.58-1.92l.48.16C264,120.78,263.76,121.42,263.59,122.05Zm66.34-.19c-.18-.62-.39-1.25-.62-1.88l.47-.17c.23.64.44,1.28.63,1.91Zm-65.08-3.56-.47-.18c.25-.62.52-1.24.8-1.84l.45.21C265.35,117.08,265.09,117.7,264.85,118.3Zm63.74-.15c-.26-.6-.54-1.2-.83-1.79l.45-.23c.3.6.58,1.21.84,1.82Zm-62.07-3.43-.44-.23c.32-.59.65-1.17,1-1.74l.43.26C267.16,113.57,266.83,114.15,266.52,114.72Zm60.31-.1c-.32-.57-.66-1.14-1-1.69l.42-.27c.37.56.72,1.14,1,1.71Zm-58.24-3.25-.4-.29c.38-.54.78-1.08,1.2-1.6l.39.31C269.37,110.3,269,110.83,268.59,111.37Zm56.09-.07c-.39-.53-.8-1-1.21-1.56l.38-.31c.42.51.84,1,1.23,1.58Zm-53.62-3-.37-.34c.44-.49.91-1,1.39-1.44l.35.35C272,107.32,271.5,107.8,271.06,108.29Zm51.11,0c-.44-.47-.91-1-1.38-1.41l.34-.36c.48.47,1,1,1.41,1.44Zm-48.29-2.72-.32-.38c.5-.43,1-.86,1.56-1.26l.3.4C274.89,104.69,274.38,105.1,273.88,105.53Zm45.45,0c-.5-.43-1-.85-1.54-1.25l.3-.39c.53.4,1.06.83,1.56,1.26ZM277,103.14l-.28-.42c.55-.37,1.13-.72,1.7-1.06l.25.43C278.14,102.42,277.57,102.77,277,103.14Zm39.15,0c-.54-.36-1.1-.72-1.66-1.06l.26-.43c.57.34,1.14.71,1.69,1.08Zm-35.74-1.95-.23-.45c.59-.3,1.2-.59,1.81-.85l.2.45C281.62,100.57,281,100.85,280.44,101.15Zm32.35-.08c-.58-.31-1.18-.6-1.77-.87l.2-.45c.61.27,1.22.57,1.81.88Zm-28.74-1.5-.17-.47c.62-.24,1.26-.45,1.9-.65l.15.48C285.3,99.12,284.67,99.34,284.05,99.57Zm25.14-.13c-.61-.24-1.24-.46-1.87-.66l.15-.48c.64.21,1.28.43,1.9.67Zm-21.36-1-.12-.48c.63-.17,1.29-.32,2-.45l.1.49C289.11,98.08,288.46,98.23,287.83,98.39Zm17.59-.16c-.63-.16-1.28-.31-1.92-.44l.09-.49c.66.13,1.32.28,2,.44Zm-13.71-.62-.08-.5c.66-.1,1.33-.18,2-.25l.05.49C293,97.42,292.36,97.51,291.71,97.61Zm9.84-.15c-.65-.09-1.31-.16-2-.21l0-.5c.67,0,1.34.13,2,.22Zm-5.91-.27,0-.5c.37,0,.74,0,1.12-.06h.89v.5h-.87Z" style="fill:#7C61B3"></path><path d="M297,212.36h-.5v-1.72h.5Zm0-3.72h-.5v-2h.5Zm0-4h-.5v-2h.5Zm0-4h-.5v-2h.5Zm0-4h-.5v-2h.5Zm0-4h-.5v-2h.5Zm0-4h-.5v-2h.5Zm0-4h-.5v-2h.5Zm0-4h-.5v-2h.5Zm0-4h-.5v-2h.5Zm0-4h-.5v-2h.5Zm0-4h-.5v-2h.5Z" style="fill:#7C61B3"></path><path d="M295.23,212.29a1.51,1.51,0,1,0,1.51-1.5A1.51,1.51,0,0,0,295.23,212.29Z" style="fill:#7C61B3"></path></g><g id="freepik--Character--inject-8"><path d="M88.16,383.73H257.82s-18.26-40.53-34.36-50.36S163.32,316,139.7,322.47,88.16,383.73,88.16,383.73Z" style="fill:#a6a6a6"></path><path d="M332.29,283.25c-2.89,21.94-67.65,94.16-67.65,94.16l-40.1-34.14,38.32-52.43s-65.11,38-97.68,20.74c-14.62-7.74-25.47-21.5-25.47-21.5l42.51-22.67s10.5,1.2,18,.1c25.91-3.79,72.54-25.43,99-22.68C317,246.67,335,263.13,332.29,283.25Z" style="fill: rgb(235, 148, 129);"></path><path d="M277,271.68a51.11,51.11,0,0,0-4.06,5.2c-1.4,1.83-2.81,3.63-4.2,5.46l0,.06c.25-.54.49-1.08.74-1.61.88-1.81,1.58-3.69,2.62-5.43.06-.1-.1-.2-.16-.1-1.07,1.73-2.31,3.37-3.22,5.18-.43.86-.84,1.72-1.21,2.6-.21.48-.42,1-.61,1.45a7.23,7.23,0,0,0-.26.7c-.62.85-1.23,1.7-1.83,2.57-1.33,1.92-2.5,3.95-3.84,5.85-.07.1.09.2.16.1,1.36-1.79,2.89-3.46,4.27-5.24s2.73-3.67,4.05-5.54,2.54-3.68,3.83-5.51a55.34,55.34,0,0,0,3.87-5.65C277.14,271.7,277.06,271.62,277,271.68Z" style="fill:#263238"></path><path d="M295.05,244.6l-54,57.13c-21.93,9.66-55.36,20.72-75.88,9.85-14.62-7.74-25.47-21.5-25.47-21.5l42.51-22.67s10.5,1.19,18,.1C224.82,263.9,268.06,244.25,295.05,244.6Z" style="opacity:0.1"></path><path d="M267.52,430.45c-2.89-1-64.71-50.15-65.94-53.69-.5-1.33,6.44-11.27,15.18-23.05l.27-.36c1.8-2.43,25.83-35.15,25.83-35.15l42.3,34.71L259.5,386.06l-1.59,1.5s13.22,28.19,14.17,32.23S270.39,431.49,267.52,430.45Z" style="fill: rgb(235, 148, 129);"></path><path d="M267.52,430.45c-2.89-1-64.71-50.15-65.94-53.69-.5-1.33,6.44-11.28,15.18-23.05l.27-.37L221,348l42.74,32.64-4.2,5.42-1.59,1.49s13.22,28.2,14.17,32.23S270.39,431.49,267.52,430.45Z" style="fill:#ebebeb"></path><path d="M267.46,431.19c-2.9-1-65-50.76-66.26-54.33-.49-1.35,6.52-11.38,15.33-23.27l42.39,33.17s-1,.75-.84,1c2,3.85,13.64,28.39,14.53,32.16C273.56,424,270.37,432.24,267.46,431.19Z" style="fill:#7C61B3"></path><path d="M268.6,427.81c-10.83-9-51.58-41.94-63-50-.1-.07-.15,0-.06.07,10.54,9.13,51.57,41.73,62.88,50.11C268.69,428.17,268.83,428,268.6,427.81Z" style="fill:#263238"></path><path d="M270.19,414.21c-4.68-3.85-10.31-6.26-14.13-6.75s-7.48,0-9.15,2.36c0,.07.17.25.24.19,4.57-3.41,14.71-1.58,22.93,4.34C270.24,414.47,270.35,414.34,270.19,414.21Z" style="fill:#263238"></path><path d="M258.42,388.23c-4.17-3.78-10.38-6.6-16.05-5.46-.22,0-.15.35,0,.4A77.31,77.31,0,0,1,258,388.81.35.35,0,0,0,258.42,388.23Z" style="fill:#263238"></path><path d="M260.56,392.37c-4.17-3.78-10.38-6.6-16.05-5.46-.22,0-.15.36,0,.4A78.31,78.31,0,0,1,260.18,393,.35.35,0,0,0,260.56,392.37Z" style="fill:#263238"></path><path d="M262.71,396.51c-4.18-3.78-10.39-6.6-16-5.46-.22.05-.16.36,0,.41a77.09,77.09,0,0,1,15.64,5.64A.36.36,0,0,0,262.71,396.51Z" style="fill:#263238"></path><path d="M264.85,400.66c-4.18-3.78-10.39-6.6-16.05-5.46-.22,0-.16.35,0,.4a77.22,77.22,0,0,1,15.63,5.64A.35.35,0,0,0,264.85,400.66Z" style="fill:#263238"></path><path d="M216.72,369.55c-5-3.9-11,3.82-6.06,7.72S221.7,373.45,216.72,369.55Z" style="fill:#263238"></path><path d="M272.92,381c-.58-3.66-4.8-4.3-7.74-3.62a29.54,29.54,0,0,0-13.35,7.42.15.15,0,0,0,0,.24.69.69,0,0,0,.46,1c4.84.57,9.95,1.77,14.82.84C270,386.33,273.46,384.43,272.92,381Zm-13.09,4.41c-2.39-.22-4.75-.56-7.15-.69a88.74,88.74,0,0,1,7.9-4.17,32.18,32.18,0,0,1,4.05-1.49c2.15-.58,9.4-.46,5.77,4.5C268.4,386.28,262.67,385.65,259.83,385.39Z" style="fill:#263238"></path><path d="M240,377.1c3.18,3.81,7.9,6.1,12,8.72a.68.68,0,0,0,1-.49.14.14,0,0,0,.17-.16,29.48,29.48,0,0,0-5.64-14.2c-1.85-2.39-5.52-4.56-8.28-2.1C236.59,371.21,238.1,374.88,240,377.1Zm-.43-4.65c.34-6.14,6-1.64,7.32.17a33,33,0,0,1,2.2,3.72,87.17,87.17,0,0,1,3.47,8.22c-1.93-1.41-4-2.65-6-4C244.17,379,239.34,375.84,239.52,372.45Z" style="fill:#263238"></path><path d="M226.85,259l-13.16,54.51s-27.57,8.68-46.85,0-27.13-23.45-27.13-23.45l44.22-24.41s9.35,1.3,14.67,1.12S226.85,259,226.85,259Z" style="fill:#455a64"></path><path d="M187,212.5c10,19.59,26.13,42,31.36,45,6.62,3.78,44.29,4.3,46.1,4.05,4.47-.66,5.33-34.25.52-33.75-7.33.75-33.39,5.8-35.32,4.61s-16.3-12.21-31.34-24.87C187.93,198.81,180.79,200.34,187,212.5Z" style="fill: rgb(235, 148, 129);"></path><path d="M260.52,260.75a98,98,0,0,0,13.79,2.17c3.65.13,14.18.23,14.72-3.77.38-2.73-5.8-3.52-10.16-4.17-2.3-.35-5.41-1.88-5.13-3.37.49-2.6,6.43-1.6,10.46-.44,7.79,2.25,18.64,7.09,21.93,2.59,1.24-1.7-1.18-3.61-4.43-5.27,5,1.62,10.19,2.69,11.64.86.84-1,.62-2.14-.27-3.23a3.11,3.11,0,0,0,3.21-1.36c1-1.82-.19-3.82-2.29-5.67a1.71,1.71,0,0,0,1.07-1.16c1.84-5.29-16.35-14.59-21.82-14.52-16.09.2-31.91,4.89-31.91,4.89C256.56,234.56,260.51,260.75,260.52,260.75Z" style="fill: rgb(235, 148, 129);"></path><path d="M279.34,241.18a26.51,26.51,0,0,1,11.1,1.35c4.49,1.58,7.79,3.91,11.77,6.09.1.06,0,.23-.09.17-1.89-1-9.61-4.79-11.56-5.59a25.4,25.4,0,0,0-11.22-2A0,0,0,1,1,279.34,241.18Z" style="fill:#263238"></path><path d="M280.55,234a62.54,62.54,0,0,1,12.81,1.12c4.57,1,8.58,3.62,12.51,6.08,2.36,1.47,4.7,3,7,4.58.09.07,0,.23-.09.16q-6-3.83-12.24-7.29a33.22,33.22,0,0,0-12.44-4.07c-2.5-.3-5-.41-7.54-.51C280.51,234.1,280.5,234,280.55,234Z" style="fill:#263238"></path><path d="M283.4,227.32c4.08-.17,7.63-.34,11.58.87,5.24,1.61,10.79,5.15,12.74,6.4,2.15,1.39,4.26,2.85,6.34,4.34.09.06,0,.21-.1.15a132,132,0,0,0-14.77-8.74,26.16,26.16,0,0,0-7.69-2.64,46.62,46.62,0,0,0-8.1-.35A0,0,0,0,1,283.4,227.32Z" style="fill:#263238"></path><path d="M201.39,241.17l11.88-25.08A178,178,0,0,0,195.9,203.7c-10.21-6.43-15.22-2.94-9.15,12.16A103.32,103.32,0,0,0,201.39,241.17Z" style="fill:#7C61B3"></path><path d="M209.61,214.36c-1.1,1.75-1.93,3.69-2.87,5.53s-1.8,3.52-2.64,5.3q-2.61,5.56-5,11.23c0,.06.07.12.11.05q2.78-5.4,5.41-10.87c.88-1.82,1.7-3.66,2.53-5.5s1.84-3.74,2.55-5.69C209.74,214.35,209.64,214.29,209.61,214.36Z" style="fill:#263238"></path><path d="M186.75,215.86a103.32,103.32,0,0,0,14.64,25.31l9.93-21-24.74-19.36C183.45,201.86,183.08,206.75,186.75,215.86Z" style="opacity:0.1"></path><path d="M139.12,286.06l75.61-9.35-4.89-25.6s5.21-7.28,4.37-15.11c-1.13-10.46-17.5-29.68-18.83-30.86-5.35-4.74-10.88-5.45-16.13-3.54C157.38,209.56,139.12,286.06,139.12,286.06Z" style="fill:#7C61B3"></path><path d="M195.66,205.42l-25.3,3.1c.29-.34.58-.67.87-1l23.57-2.9.58.5Zm4.6,5.48-34.7,4.26-.59,1,35.91-4.41Zm4.71,6.34-43.65,5.36-.47.94,44.68-5.49Zm4.17,6.41L157.77,230l-.42.93,52.27-6.42Zm3.37,6.52-57.87,7.1c-.12.31-.25.62-.37.92L212.85,231C212.75,230.73,212.63,230.45,212.51,230.17Zm1.77,6.7-62.47,7.67-.33.92,62.82-7.72C214.3,237.46,214.29,237.16,214.28,236.87Zm-65.05,14.91c-.11.3-.21.61-.32.91L213,244.83c.1-.29.2-.6.31-.91Zm60.64-.52L146.82,259c-.1.31-.19.62-.29.92l63.5-7.8Zm1.29,6.76-66.58,8.18-.27.91,67-8.23Zm1.29,6.77-70,8.59c-.08.31-.17.61-.26.91l70.4-8.64Zm1.29,6.76-73.22,9c-.08.32-.16.62-.23.91l73.62-9Z" style="fill:#fff"></path><path d="M187.51,246.18a62.9,62.9,0,0,1,9.31.27c1.54.18,3.05.43,4.57.72.76.14,1.52.25,2.28.37a10.15,10.15,0,0,0,2.4.12.06.06,0,1,1,0,.11,15.62,15.62,0,0,1-2.27.26,14.88,14.88,0,0,1-2.21-.11c-1.56-.17-3.11-.41-4.66-.59-3.14-.38-6.28-.75-9.44-.89A.13.13,0,0,1,187.51,246.18Z" style="fill:#263238"></path><path d="M180.29,249.92a69,69,0,0,1,7.57-1.39c1.27-.16,2.54-.24,3.83-.28.61,0,1.22,0,1.83,0s1.35.08,2,.06c.07,0,.08.11,0,.11-.64,0-1.27.17-1.9.24l-1.91.21-3.81.42c-2.55.26-5.08.54-7.62.88C180.18,250.15,180.17,250,180.29,249.92Z" style="fill:#263238"></path><path d="M206.1,193.79c4,.29,12.74,5.79,14.46,11.71s-.94,13.87-2.82,14.16-8.78-2.42-12.84-6.55S204.15,193.65,206.1,193.79Z" style="fill:#263238"></path><path d="M206.09,193.81c-.12-.06-.07-.28.07-.24,3.28.89,6.44,3,9.28,4.85a19.7,19.7,0,0,1,6.12,5.4,9.12,9.12,0,0,1,1.21,7.53,18.74,18.74,0,0,1-4.37,8.38c-.06.06-.2,0-.14-.1,3.12-5,6.4-11.21,2.12-16.51C216.73,198.62,211,196.51,206.09,193.81Z" style="fill:#263238"></path><path d="M217.62,218.09c3.13,1.39,9.74,10.1,9.31,16.71s-8.17,14.25-10,14.44-7.21-7.89-8.26-12.94c-.69-3.38,1.55-6.4,3.27-9.56C214.51,222.07,217.14,217.87,217.62,218.09Z" style="fill:#263238"></path><path d="M207,234.94c.91-6.59,6.34-11.77,10.18-16.82,0-.05.14,0,.1.06-2.81,5.11-7.57,9-9.36,14.72a10.94,10.94,0,0,0,1.3,10c1.88,2.52,4.68,4.25,7.19,6.08.17.12,0,.36-.2.25C211.16,245.7,206.05,241.74,207,234.94Z" style="fill:#263238"></path><path d="M218.15,218.88c-.14-.13,0-.35.19-.23,4,3.57,8.59,8.43,9.67,13.85,1.17,5.88-3.1,10.39-6.85,14.26,0,.05-.13,0-.08-.07,3.73-3.95,7.94-9,6.37-14.83C226.09,226.82,221.88,222.32,218.15,218.88Z" style="fill:#263238"></path><path d="M216.65,249c-2.45.69-6.48,3.82-8.14,8.12-2.84,7.37-5.41,5.27-14.16,5.58-7.39.25-10.52,7.82-7.57,12.49,0,0-1.17-5.31,4.07-6.71,6.25-1.67,18,7,26.11.3C227.47,260.1,216.65,249,216.65,249Z" style="fill:#263238"></path><path d="M212.93,251.87c.11-.09,0-.28-.15-.2a11.5,11.5,0,0,0-3,2.84c-1,1.47-1.44,3.21-2.37,4.73-2.39,3.87-7.4,2.68-11.12,2.18-5-.67-9.55,1.51-10.92,6.62a.06.06,0,1,0,.11,0,8.91,8.91,0,0,1,6.75-6.33c3.12-.62,6.22.69,9.35.58,2.14-.07,4.34-.51,5.7-2.3a18.21,18.21,0,0,0,1.64-3.31A12.34,12.34,0,0,1,212.93,251.87Z" style="fill:#263238"></path><path d="M217.75,250.15s-.12,0-.09.06c2.22,3.32,4.59,6.69,4.56,10.87,0,4.5-3.15,8.36-7.09,10.27-4.4,2.13-8.19-.1-12.26-1.81-3-1.24-6-2.25-9.24-1.82-.1,0-.08.17,0,.17,5.09-.12,9.23,2.25,13.84,4,3.77,1.44,7.11.72,10.25-1.79C224.65,264.57,222.84,256.25,217.75,250.15Z" style="fill:#263238"></path><path d="M210,191.23a1.36,1.36,0,0,1,1.53,2.24A1.36,1.36,0,0,1,210,191.23Z" style="fill:#7C61B3"></path><path d="M208.31,193.13a1.35,1.35,0,0,1,1.53,2.23A1.35,1.35,0,0,1,208.31,193.13Z" style="fill:#7C61B3"></path><path d="M206.33,194.72a1.35,1.35,0,0,1,1.53,2.23C206.44,198,204.91,195.73,206.33,194.72Z" style="fill:#7C61B3"></path><path d="M204.22,196c1.42-1,2.95,1.22,1.53,2.23A1.35,1.35,0,0,1,204.22,196Z" style="fill:#7C61B3"></path><path d="M201.87,196.93c1.42-1,2.95,1.22,1.52,2.23A1.35,1.35,0,0,1,201.87,196.93Z" style="fill:#7C61B3"></path><path d="M199.48,197.39c1.42-1,3,1.23,1.52,2.24S198.05,198.4,199.48,197.39Z" style="fill:#7C61B3"></path><path d="M184.38,203.58c-.06,1.32,3.64,11,9.38,12.28,1.86.42,4.6-9.68,4.6-9.68l.38-.69,5.21-9.8-11.58-12.77S184.4,203,184.38,203.58Z" style="fill: rgb(235, 148, 129);"></path><path d="M204,195.69l-5.21,9.79a22.25,22.25,0,0,1-9.07-15.69c1.36-3.48,2.51-6.38,2.67-6.81a.28.28,0,0,0,0-.06l1.49,1.53Z" style="fill:#263238"></path><path d="M221.77,182.64c-3.31,19.18-15.18,19.37-19.31,18.65-3.76-.65-16.45-3.35-15.14-22.77s11.27-23.94,19.93-22.91S225.07,163.46,221.77,182.64Z" style="fill: rgb(235, 148, 129);"></path><path d="M219.54,179.69c-.43-.16-.8-.38-1.21-.58a2.23,2.23,0,0,1-1.12-.83.71.71,0,0,1,.2-.83,1.74,1.74,0,0,1,1.74,0,2.52,2.52,0,0,1,1.33,1.24A.75.75,0,0,1,219.54,179.69Z" style="fill:#263238"></path><path d="M206.23,178c.46.05.89,0,1.34,0a2.18,2.18,0,0,0,1.38-.22.68.68,0,0,0,.2-.82,1.71,1.71,0,0,0-1.54-.79,2.52,2.52,0,0,0-1.75.49A.74.74,0,0,0,206.23,178Z" style="fill:#263238"></path><path d="M208.21,181.48s-.11,0-.12.1c-.25,1.3-.74,2.75-2,2.92,0,0-.05.07,0,.08C207.55,184.69,208.19,182.76,208.21,181.48Z" style="fill:#263238"></path><path d="M207.36,179.88c-2.05-.62-3.13,3.52-1.24,4.09S209.07,180.39,207.36,179.88Z" style="fill:#263238"></path><path d="M206.49,179.88c-.43.14-.89.46-1.33.39s-.79-.61-1-1.12c0-.05-.07,0-.08,0a1.57,1.57,0,0,0,.69,2c.75.31,1.49-.25,1.89-1C206.73,180.08,206.66,179.83,206.49,179.88Z" style="fill:#263238"></path><path d="M215.86,183.14s.09.09.07.14c-.39,1.27-.62,2.79.43,3.52,0,0,0,.09,0,.07C215,186.29,215.29,184.28,215.86,183.14Z" style="fill:#263238"></path><path d="M217.37,182.11c2.1.4,1.14,4.57-.8,4.2S215.61,181.78,217.37,182.11Z" style="fill:#263238"></path><path d="M218.17,182.59c.28.29.52.77.9.89s.89-.24,1.28-.61c0,0,.07,0,.06.06-.16.8-.62,1.57-1.42,1.55s-1.08-.82-1.09-1.66C217.9,182.67,218.06,182.47,218.17,182.59Z" style="fill:#263238"></path><path d="M205.05,192.26c.2.4.36.91.8,1.1a3.61,3.61,0,0,0,1.46.15c.05,0,.07.05,0,.08a1.78,1.78,0,0,1-1.82.13,1.39,1.39,0,0,1-.61-1.44A.07.07,0,0,1,205.05,192.26Z" style="fill:#263238"></path><path d="M211.89,188.77s-.27,2-.52,2.88c0,.08-.26.06-.57,0,0,0,0,0,0,0a4.44,4.44,0,0,1-3.71-2.75.1.1,0,0,1,.17-.09,6.71,6.71,0,0,0,3.59,2.21c.14-.23.35-3.41.5-3.38a8.24,8.24,0,0,1,1.91,1c.68-4.11.7-8.3,1.44-12.38a.13.13,0,0,1,.25,0,67.89,67.89,0,0,1-1,13.39C213.87,190.21,212.2,189,211.89,188.77Z" style="fill:#263238"></path><path d="M210.86,191.27a5.42,5.42,0,0,1-2.44,1.28,2.43,2.43,0,0,1-1.47-.16c-1-.47-.87-1.44-.53-2.24a5.82,5.82,0,0,1,.7-1.19A7,7,0,0,0,210.86,191.27Z" style="fill:#263238"></path><path d="M208.42,192.55a2.43,2.43,0,0,1-1.47-.16c-1-.47-.87-1.44-.53-2.24A2.51,2.51,0,0,1,208.42,192.55Z" style="fill:#ff9cbd"></path><path d="M188,180.36c2.13.21,8.55-4.71,10.35-14.87,0,0-2.25,9-3.15,10.24s3.59-2.77,5.16-10.94c0,0,4,4,7.72,5.71s6.09,2.05,6.41,1.82-5.1-2.95-6.36-5c0,0,9.55,6.45,14.25,7.57.54.13,3-11.08-3.57-17s-19.06-2.66-22.68-.13c0,0-.8-.54-5.66,4.26S185.68,180.13,188,180.36Z" style="fill:#263238"></path><path d="M222.54,162.76c-2.23-.49-14.61.12-20.13,2.62s-15.24,10.7-15.74,11.13-3.44-19.94,13-24C217.66,148.12,222.54,162.76,222.54,162.76Z" style="fill:#7C61B3"></path><path d="M187.61,175.66s10.66-14.65,16.68-18.07,19.6-5.54,28.09-2c6.62,2.76-9.25,11.52-9.25,11.52a6,6,0,0,0-3-3.3c-4.13-1.55-11.47,0-15.88,1.61C198.67,167.41,187.61,175.66,187.61,175.66Z" style="fill:#7C61B3"></path><g style="opacity:0.2"><path d="M187.61,175.66s10.66-14.65,16.68-18.07,19.6-5.54,28.09-2c6.62,2.76-9.25,11.52-9.25,11.52a6,6,0,0,0-3-3.3c-4.13-1.55-11.47,0-15.88,1.61C198.67,167.41,187.61,175.66,187.61,175.66Z"></path></g><path d="M190.11,180.52s-2.56-7-5.61-6.19-2.21,10.09.62,12.08a3.28,3.28,0,0,0,4.71-.59Z" style="fill: rgb(235, 148, 129);"></path><path d="M184.81,177a0,0,0,0,0,0,.08c2,1.47,2.58,3.81,2.83,6.13a1.82,1.82,0,0,0-2.5-1.17.07.07,0,0,0,0,.13,2,2,0,0,1,2,1.25,9.49,9.49,0,0,1,.57,2c.06.22.44.21.42,0v0C188.88,182.55,187.74,178.07,184.81,177Z" style="fill:#263238"></path><path d="M170,210.35c-9.16,14.14-28.36,62.6-18.41,69.82s57.13-10.86,69.93-19.28c3.8-2.5-15.19-25.76-20.06-25.69-4.05.05-22.26,11.72-23,10.62s1.52-11.17,4-29.56C185.24,195.07,175.25,202.21,170,210.35Z" style="fill: rgb(235, 148, 129);"></path><path d="M220.55,224.2c9.71-2.74,12.63-2,19.59-8.63,4.57-4.37,9.33-3.33,7.24,2.91-3.42,10.2-15.21,16.38-19.91,17.34Z" style="fill: rgb(235, 148, 129);"></path><path d="M195.57,237.37s10.27-7.72,20.33-11.67c7-2.73,22.75-7,40.32,6.75,4.17,3.26,7.8,10.86-.94,8-6.21-2-9.53-5.18-13.36-5.7,0,0,3.47,10.21,0,14.26a97.52,97.52,0,0,1-9.71,9.94,20.44,20.44,0,0,1-2-1.65s-3.56,3.48-11.12,3.8Z" style="fill: rgb(235, 148, 129);"></path><path d="M223,224.16c3.69,1.31,11.46,4.24,17,8.85,6.13,5.11,16.57,16.61,12.75,21.1-2.8,3.3-7.18-.75-7.18-.75s3.32,5.67.13,8.09c-2.9,2.21-6.09-1.12-6.09-1.12s1.42,3.78-1.78,5.36c-3.86,1.91-6.2-6.33-11.77-7.77C224.75,257.6,223,224.16,223,224.16Z" style="fill: rgb(235, 148, 129);"></path><path d="M233.45,238.59c3.27,1.8,9.63,7.82,12.1,14.61,0,.16,0,.28-.12.15a78.39,78.39,0,0,0-12-14.71S233.41,238.57,233.45,238.59Z" style="fill:#263238"></path><path d="M228.47,244.93c2.65,1.85,8.93,8.34,11.2,15.31.05.16,0,.28-.12.14A84.16,84.16,0,0,0,228.42,245S228.43,244.91,228.47,244.93Z" style="fill:#263238"></path><path d="M241.91,234.69c3.36.51,5.68,1.8,8.66,3.31a44.8,44.8,0,0,0,4.52,2.06c1.42.53,3.5,1.34,4.75,0a2.7,2.7,0,0,0,.23-2.72,13,13,0,0,0-2.28-3.42s0-.1.06-.07a18.59,18.59,0,0,1,2.39,3,4.26,4.26,0,0,1,.64,2.47c-.22,1.85-2.29,2.37-3.84,2.09a14.3,14.3,0,0,1-2.71-.88c-.85-.34-1.67-.72-2.49-1.12-1.68-.83-3.31-1.75-5-2.59a41.52,41.52,0,0,0-5-2.05A.06.06,0,0,1,241.91,234.69Z" style="fill:#263238"></path><path d="M250.24,245.11a102.48,102.48,0,0,0-8.38-10.33,0,0,0,1,1,.06-.07c2.84,2,7.76,7.81,9,9.7s2.63,4.3,2.94,6.53c.47,3.37-1.68,4.32-2.49,4.6a4.4,4.4,0,0,1-2.93-.08,8.8,8.8,0,0,1-2.94-2.08s0-.11.06-.07c1.35,1.16,3.47,2.21,5.27,1.71a3.05,3.05,0,0,0,1.93-1.41,4,4,0,0,0,.17-2.79A18.74,18.74,0,0,0,250.24,245.11Z" style="fill:#263238"></path><path d="M245.48,253.38c1.24,2.21,2.72,5.11,1.13,7.56a4.41,4.41,0,0,1-3.73,1.63,5.81,5.81,0,0,1-3.66-1.91l.75-.35c.35,1.55.51,3.5-.68,4.83a3.53,3.53,0,0,1-4.82.54c-2.64-1.89-3.9-4.82-6.67-6.51l.57-.07c-1.7,1.64-5,2.1-6.75,2-2.65,1.36-8,4.07-10.71,5.4,2.61-1.48,7.84-4.43,10.46-5.88,2.3-.24,5-.65,6.62-2.41a17,17,0,0,1,3.87,3.4,16,16,0,0,0,3.15,3.21,2.69,2.69,0,0,0,4.32-2.18,17.22,17.22,0,0,0-.46-3.66l1,1.1c1.53,1.87,4.61,2.51,6.29.49s.27-5.06-.69-7.22Z" style="fill:#263238"></path><path d="M178.43,245.82a61.43,61.43,0,0,1-9.34,5.85,29.22,29.22,0,0,1,9.34-5.85Z" style="fill:#263238"></path><path d="M154.73,236.07l27.62-2.69a178.85,178.85,0,0,0,1.71-21.27c.27-12.07-5.3-14.58-15.13-1.61A103.37,103.37,0,0,0,154.73,236.07Z" style="fill:#7C61B3"></path><path d="M182,229.34c-2.07,0-4.16.24-6.22.38s-3.94.27-5.9.47q-6.12.62-12.2,1.48c-.07,0-.06.13,0,.13,4-.26,8.08-.58,12.12-1,2-.18,4-.41,6-.65s4.16-.34,6.19-.74A.06.06,0,0,0,182,229.34Z" style="fill:#263238"></path><path d="M183.08,230.61c.15-1,.26-2,.36-3,0-.21,0-.41.05-.62a36,36,0,0,0,1-3.66,0,0,0,0,0-.07,0c-.33.92-.6,1.85-.84,2.79.13-1.54.24-3.09.22-4.63a0,0,0,0,0-.08,0c-.33,2-.51,4-.77,6-.12,1-.61,5.77-.67,5.79s-2.3.29-2.44.36-.08.19,0,.19l2.85-.27S183,231.46,183.08,230.61Z" style="fill:#263238"></path><rect x="213.3" y="262.78" width="74.26" height="3.33" transform="translate(-3.31 3.18) rotate(-0.72)" style="fill:#455a64"></rect><polygon points="287.54 262.31 287.58 265.64 243.04 266.2 245.55 262.84 287.54 262.31" style="fill:#37474f"></polygon><polygon points="254.06 266.06 326.43 265.15 331.84 215.92 259.47 216.84 254.06 266.06" style="fill:#37474f"></polygon><polygon points="257.85 266.01 330.22 265.1 335.63 215.88 263.25 216.79 257.85 266.01" style="fill:#455a64"></polygon><path d="M292.33,241a4.32,4.32,0,0,0,4.38,4.35,4.5,4.5,0,0,0,4.43-4.46,4.32,4.32,0,0,0-4.38-4.35A4.5,4.5,0,0,0,292.33,241Z" style="fill:#fff"></path><path d="M436.56,358.65c-1,2.9-49.6,65.13-53.12,66.4-1.33.51-11.34-6.35-23.18-15l-.37-.27c-2.45-1.78-34.54-24.47-34.54-24.47l33.52-43.65,33.37,25.38,1.51,1.57s28.08-13.46,32.1-14.45S437.57,355.77,436.56,358.65Z" style="fill: rgb(235, 148, 129);"></path><path d="M436.56,358.65c-1,2.9-49.6,65.13-53.12,66.4-1.33.5-11.34-6.35-23.18-15l-.37-.27-6.4-4.56,32.68-42.8,6.07,4.61,1.51,1.58s28.08-13.46,32.1-14.45S437.57,355.77,436.56,358.65Z" style="fill:#ebebeb"></path><path d="M437.3,358.7c-1,2.92-50.2,65.44-53.76,66.73-1.35.5-11.44-6.42-23.4-15.13l32.8-42.67s.75,1,1.05.83c3.83-2,28.27-13.88,32-14.81C430.07,352.67,438.32,355.78,437.3,358.7Z" style="fill:#7C61B3"></path><path d="M433.91,357.59C425,368.5,392.41,409.53,384.46,421c-.07.1,0,.15.07.06,9-10.62,41.29-51.93,49.56-63.31C434.27,357.49,434.1,357.36,433.91,357.59Z" style="fill:#263238"></path><path d="M420.29,356.12c-3.81,4.71-6.17,10.36-6.62,14.19s0,7.48,2.43,9.13c.07,0,.25-.18.19-.25-3.45-4.53-1.71-14.69,4.14-23C420.55,356.06,420.42,356,420.29,356.12Z" style="fill:#263238"></path><path d="M393.33,371.27c-3.75,4.21-6.51,10.44-5.32,16.1,0,.22.35.15.4,0a77.55,77.55,0,0,1,5.51-15.69A.36.36,0,0,0,393.33,371.27Z" style="fill:#263238"></path><path d="M397.45,369.1c-3.74,4.2-6.51,10.43-5.32,16.09.05.22.36.15.4,0A78.08,78.08,0,0,1,398,369.48.35.35,0,0,0,397.45,369.1Z" style="fill:#263238"></path><path d="M401.58,366.92c-3.75,4.2-6.51,10.44-5.32,16.1,0,.22.35.15.4,0a76.86,76.86,0,0,1,5.51-15.68A.36.36,0,0,0,401.58,366.92Z" style="fill:#263238"></path><path d="M405.7,364.74c-3.74,4.21-6.51,10.44-5.32,16.1.05.22.36.15.4,0a78.16,78.16,0,0,1,5.51-15.69A.36.36,0,0,0,405.7,364.74Z" style="fill:#263238"></path><path d="M376.09,410c-3.85,5,3.92,11,7.78,6S380,405,376.09,410Z" style="fill:#263238"></path><path d="M386,356.84c-3.65.61-4.25,4.84-3.55,7.77a29.7,29.7,0,0,0,7.54,13.29.16.16,0,0,0,.24,0,.68.68,0,0,0,1-.47c.53-4.84,1.69-10,.72-14.82C391.33,359.74,389.41,356.27,386,356.84Zm4.53,13.05c-.2,2.39-.52,4.76-.63,7.15a85.88,85.88,0,0,1-4.23-7.85,31.31,31.31,0,0,1-1.53-4c-.6-2.15-.54-9.4,4.45-5.82C391.3,361.31,390.72,367.05,390.48,369.89Z" style="fill:#263238"></path><path d="M382.36,389.84c3.78-3.22,6-7.95,8.62-12.08a.68.68,0,0,0-.5-1,.15.15,0,0,0-.17-.17,29.46,29.46,0,0,0-14.14,5.76c-2.37,1.87-4.52,5.56-2,8.3C376.5,393.25,380.16,391.71,382.36,389.84Zm-4.64.47c-6.15-.28-1.7-6,.1-7.32a31.58,31.58,0,0,1,3.7-2.23c2.64-1.41,5.43-2.41,8.19-3.55-1.39,2-2.61,4-3.93,6C384.2,385.6,381.1,390.46,377.72,390.31Z" style="fill:#263238"></path><path d="M382.88,359.94,350.75,403.3l-109.1-77.13-11.41-7.92s-3.22,2.18-8.08,4.86c-6.76,3.73-16.65,8.46-25.4,9.75-14.68,2.17-39.19,1.94-51.56-14.61-10.42-13.93-4.76-32.1-4.76-32.1l16.12-6.92s29.08-22.74,61.33-30c16-3.58,30.89,8.74,44.93,17.53C276.4,275.28,382.88,359.94,382.88,359.94Z" style="fill: rgb(235, 148, 129);"></path><path d="M230.24,318.25s-3.22,2.18-8.08,4.86c-8.6-10.28-17.54-22.49-18.09-23.16Z" style="opacity:0.1"></path><path d="M238.42,324.3c5.6,4.37,11.42,8.51,17.23,12.62s11.57,8.19,17.44,12.16c1.69,1.14,8.49,5.88,10.22,6.7a.09.09,0,1,0,.09-.15c-1.53-1.09-7.31-5.59-8.75-6.64-2.82-2.07-5.66-4.1-8.5-6.14-5.76-4.12-11.57-8.2-17.43-12.19-3.33-2.26-6.64-4.54-10-6.69C238.47,323.84,238.22,324.15,238.42,324.3Z" style="fill:#263238"></path><path d="M195.94,255.58s-4.12,33.72-3.09,40.54,12.69,35.17,12.69,35.17-42,11.29-56.65-6.15-10-33.76-8.45-39l16.12-6.92S169.5,266.39,195.94,255.58Z" style="fill:#455a64"></path><path d="M186.44,258.63l12.75-5.57s-2.59,38.74-2.08,42,11.51,37.43,11.51,37.43l-13.8,1.73s-9-28.14-9.88-35.79C184.09,291,186.44,258.63,186.44,258.63Z" style="fill:#37474f"></path><path d="M170.53,268.59c-2.28,1.58-4.48,3.26-6.73,4.89s-4.5,3.1-6.6,4.84S153,282,151,283.91c-1,.92-1.94,1.85-2.88,2.8a26.85,26.85,0,0,0-2.75,3c-.07.1.08.22.17.16a31.67,31.67,0,0,0,3.06-2.49c1.07-.9,2.12-1.81,3.18-2.71,2-1.75,4.14-3.44,6.19-5.19s3.91-3.64,5.93-5.39,4.42-3.64,6.66-5.42C170.62,268.63,170.58,268.55,170.53,268.59Z" style="fill:#263238"></path><path d="M195.67,256.8c20.34-9.14,30.59-12.56,51-.91,5.21,2.93,10.18,6.25,15.08,9.64,19.47,13.76,38.12,28.6,56.67,43.56-22.61-16.75-48.3-38-72.2-52.41-20.44-11.73-29.95-8.29-50.56.12Z" style="fill:#263238"></path></g><g id="freepik--Backpack--inject-8"><path d="M73.12,388.11h69.26l-1.32-90.37a5.6,5.6,0,0,0-5.61-5.53h-52a9.1,9.1,0,0,0-9.09,9Z" style="fill:#263238"></path><path d="M73.12,388.11h68.49a3.57,3.57,0,0,0,3.56-3.76l-4-76.18-66.7.49Z" style="fill:#7C61B3"></path><path d="M73.12,388.11h68.49a3.57,3.57,0,0,0,3.56-3.76l-4-76.18-66.7.49Z" style="opacity:0.1"></path><path d="M126.89,388.11,126,308.17s-.13-9.17,2.22-13c1.39-2.27,10.36-2.85,11.73.7s1.24,9.67,1.24,9.67l-.11-8.31a5.06,5.06,0,0,0-5.06-5H82.64a8.53,8.53,0,0,0-8.53,8.43l-.35,31.15s-1.76,2.41-1.83,3.36c-.91,13.54-1.39,39.63-1.55,49.26A3.63,3.63,0,0,0,74,388.11Z" style="fill:#7C61B3"></path><path d="M126.26,323.7c.19,2.15-.14,3.91-2.56,4.36-3.08.6-6.25.28-9.36.42-10.78.11-26.63.09-37.37-.1l-.93,0c-2.73-.08-2.27-3.61-2.28-5.5.17,1.65-.21,4.08,1.43,5A4.73,4.73,0,0,0,77,328c4.71-.1,17.55-.17,22.43-.19l14.94.09c3.1-.05,6.24.32,9.3-.12,2.33-.31,2.67-2,2.62-4.09Z" style="fill:#37474f"></path><rect x="93.82" y="326.21" width="10.45" height="5.35" transform="translate(198.09 657.77) rotate(180)" style="fill:#37474f"></rect><rect x="134.98" y="342.23" width="4" height="4.6" transform="translate(279.89 686.64) rotate(179.01)" style="fill:#dbdbdb"></rect><rect x="133.78" y="345.34" width="6.52" height="5.25" transform="translate(280.06 693.52) rotate(179.01)" style="fill:#c7c7c7"></rect><path d="M129.45,357.23c.08,4.76.41,24,.41,24l15.51-.27s-.33-19.28-.42-24-3.13-8.38-7.89-8.3S129.37,352.47,129.45,357.23Z" style="fill:#455a64"></path><path d="M137.93,350.45a.6.6,0,0,0,.61.59.61.61,0,1,0-.61-.59Z" style="fill:#fff"></path><path d="M130.32,356a.61.61,0,1,0,1.21,0,.61.61,0,0,0-1.21,0Z" style="fill:#fff"></path><path d="M137.19,356.5a.61.61,0,0,0,1.21,0,.61.61,0,1,0-1.21,0Z" style="fill:#fff"></path><path d="M136.69,362.28a.6.6,0,1,0,1.2,0,.6.6,0,0,0-.61-.59A.6.6,0,0,0,136.69,362.28Z" style="fill:#fff"></path><path d="M143,368.21a.6.6,0,0,0,.62.59.6.6,0,0,0,.59-.61.6.6,0,0,0-.61-.6A.61.61,0,0,0,143,368.21Z" style="fill:#fff"></path><path d="M143.54,362.83a.61.61,0,0,0,.62.59.6.6,0,1,0,0-1.2A.6.6,0,0,0,143.54,362.83Z" style="fill:#fff"></path><path d="M143.3,357.14a.59.59,0,0,0,.61.59.6.6,0,1,0-.61-.59Z" style="fill:#fff"></path><path d="M140.62,353.71a.6.6,0,0,0,.61.59.61.61,0,1,0-.61-.59Z" style="fill:#fff"></path><path d="M140.12,359.71a.6.6,0,0,0,.61.59.61.61,0,1,0-.61-.59Z" style="fill:#fff"></path><path d="M134.09,353.29a.6.6,0,0,0,.62.59.6.6,0,1,0,0-1.2A.6.6,0,0,0,134.09,353.29Z" style="fill:#fff"></path><path d="M133.46,359.17a.6.6,0,0,0,.62.59.6.6,0,0,0,.59-.61.61.61,0,1,0-1.21,0Z" style="fill:#fff"></path><path d="M139.89,365.33a.6.6,0,0,0,.61.6.62.62,0,0,0,.6-.62.6.6,0,0,0-.62-.59A.6.6,0,0,0,139.89,365.33Z" style="fill:#fff"></path><path d="M133.46,370.21a.61.61,0,0,0,.62.6.6.6,0,0,0,.59-.62.6.6,0,0,0-.61-.59A.61.61,0,0,0,133.46,370.21Z" style="fill:#fff"></path><path d="M133.63,374.76a.61.61,0,0,0,1.21,0,.61.61,0,1,0-1.21,0Z" style="fill:#fff"></path><path d="M139.61,370.21a.61.61,0,1,0,1.21,0,.61.61,0,0,0-1.21,0Z" style="fill:#fff"></path><path d="M142.68,377.24a.6.6,0,1,0,1.2,0,.6.6,0,0,0-.61-.59A.6.6,0,0,0,142.68,377.24Z" style="fill:#fff"></path><path d="M136.44,367.55a.6.6,0,0,0,.61.59.6.6,0,0,0,.6-.61.61.61,0,0,0-.62-.59A.6.6,0,0,0,136.44,367.55Z" style="fill:#fff"></path><path d="M136.45,372.46a.6.6,0,1,0,1.2,0,.6.6,0,0,0-.61-.6A.61.61,0,0,0,136.45,372.46Z" style="fill:#fff"></path><path d="M136.53,377.35a.61.61,0,1,0,.59-.61A.6.6,0,0,0,136.53,377.35Z" style="fill:#fff"></path><path d="M133.5,379.67a.6.6,0,0,0,.61.59.6.6,0,0,0,.6-.61.61.61,0,0,0-.62-.6A.6.6,0,0,0,133.5,379.67Z" style="fill:#fff"></path><path d="M142.67,372.64a.6.6,0,0,0,.62.59.6.6,0,0,0,.59-.61.61.61,0,0,0-.61-.6A.62.62,0,0,0,142.67,372.64Z" style="fill:#fff"></path><path d="M139.69,374.86a.61.61,0,1,0,1.21,0,.61.61,0,0,0-1.21,0Z" style="fill:#fff"></path><path d="M130.58,377.45a.61.61,0,0,0,.62.6.6.6,0,0,0,.59-.62.6.6,0,0,0-.61-.59A.6.6,0,0,0,130.58,377.45Z" style="fill:#fff"></path><path d="M139.64,379.61a.6.6,0,1,0,.59-.61A.6.6,0,0,0,139.64,379.61Z" style="fill:#fff"></path><path d="M130.33,367.82a.6.6,0,1,0,1.2,0,.6.6,0,1,0-1.2,0Z" style="fill:#fff"></path><path d="M130.41,372.56a.6.6,0,0,0,.61.6.61.61,0,0,0,.6-.62A.6.6,0,0,0,131,372,.6.6,0,0,0,130.41,372.56Z" style="fill:#fff"></path><path d="M133.25,365.27a.61.61,0,1,0,.59-.62A.61.61,0,0,0,133.25,365.27Z" style="fill:#fff"></path><path d="M129.93,362.31a.6.6,0,0,0,.61.59.6.6,0,1,0,0-1.2A.6.6,0,0,0,129.93,362.31Z" style="fill:#fff"></path><path d="M146.74,382c-3.46,4.82-17.7,4-18.6,2.13-.38-.79.05-20.51.05-20.51s12.29,1.14,18.89-1.28C147.08,362.3,147.82,380.45,146.74,382Z" style="fill:#7C61B3"></path><path d="M83.64,293.26h48.22a7.86,7.86,0,0,0,7.85-7.85v-1.56a7.85,7.85,0,0,0-7.85-7.84h-48a7.85,7.85,0,0,0-7.76,6.68l-.23,1.55A7.85,7.85,0,0,0,83.64,293.26Z" style="fill:#7C61B3"></path><path d="M83.64,293.26h48.22a7.86,7.86,0,0,0,7.85-7.85v-1.56a7.85,7.85,0,0,0-7.85-7.84h-48a7.85,7.85,0,0,0-7.76,6.68l-.23,1.55A7.85,7.85,0,0,0,83.64,293.26Z" style="opacity:0.30000000000000004"></path><ellipse cx="133.85" cy="284.53" rx="4.32" ry="6.31" style="opacity:0.1"></ellipse></g><g id="freepik--Plants--inject-8"><path d="M274.46,444.39H92.4a33.91,33.91,0,0,1-5.15-10c-1.54-5.55-.11-12.91,5.68-15.45,3.72-1.63,7.73-.27,11.59-.17,1.17,0,2.45-.12,3.09-1.23a3.55,3.55,0,0,0,.28-2.58c-.49-2-2.39-3.23-4-4.31a.47.47,0,0,1-.09-.74,9.39,9.39,0,0,1,11.75-.28c2-2.11,1.11-5.31-.18-7.62-1.4-2.48-3.65-4.35-5.25-6.68a8.65,8.65,0,0,1-1.77-6.3,9.68,9.68,0,0,1,3.85-5.67c3.12-2.49,8.5-5.3,12.19-2.33,4,3.22,1.45,9.25,4.07,13.19a4.29,4.29,0,0,0,3.1,2.2,3.45,3.45,0,0,0,2.85-1.85c.93-1.32,1.69-2.92,3.28-3.47-.44-4-1.47-8-1.86-12-.56-5.83.74-13.39,6.85-15.88a9.23,9.23,0,0,1,7.46.1,7.47,7.47,0,0,1,3.85,6.65c.16,3.45-1,6.84-.6,10.3.25,2.11,1.28,4.33,3.8,3.85,1.78-.35,3.2-1.53,4.65-2.54,1.87-1.29,5.08-2.72,7-.81,1.16,1.13,1,2.91,2,4.12s2.73,1.45,4.2,1.47c3.05.05,6-.7,9.06-.43a19.92,19.92,0,0,1,8.28,2.45,13.57,13.57,0,0,1,5.57,6c1,2.21,2.81,7.37,6.13,5.09,1.39-1,2.21-2.74,3.05-4.16s1.72-2.88,2.67-4.27a19.36,19.36,0,0,1,6.58-6.46,13.13,13.13,0,0,1,16.48,3.59,13.44,13.44,0,0,1,2.62,8.66c-.21,3.59-2.65,6.62-2.8,10.17-.07,1.65.41,3.6,1.93,4.5,1.87,1.11,4.19.1,6.11-.34s5.3-.21,6.17,2.13a3.21,3.21,0,0,1-.66,3c-.4.56-.9,1.05-1.26,1.64-.5.84-.4,1.2.37,1.71,2.26,1.52,5.32,1,7.89,1.22C268.42,422.34,273.77,440.15,274.46,444.39Z" style="fill:#263238"></path><path d="M145.75,414.67c-2.22,10.05-4.43,19.93-1.82,29.72h-2.09c-.77-1.94-1.51-3.9-2.27-5.84-7.48-3.5-15.55-.69-23.45-1.66-6.17-.75-12.75-3.76-16.68-8.71a.35.35,0,0,1,.49-.49A37.07,37.07,0,0,0,111,434c-.84-1-1.65-2-2.56-2.94-1.33-1.36-2.8-2.5-4.23-3.74-.08-.07,0-.2.11-.15a29.35,29.35,0,0,1,4.47,3.54,23.59,23.59,0,0,1,3.5,3.7,28.68,28.68,0,0,0,8,1.11c6.21,0,13.15-1.4,18.78,1.76-.48-1.18-1-2.36-1.49-3.52a106.92,106.92,0,0,0-7.68-14.06c-2.87-4.48-5.83-8.91-7.93-13.81a57,57,0,0,1-3.76-14.77c0-.26.36-.39.41-.11,1.6,8.9,5.92,16.58,10.62,24.1-1.44-4.35-2.63-8.78-4.46-13-.13-.31.31-.58.46-.27,2.54,5.1,5.25,10.79,6,16.5l1,1.51a100.25,100.25,0,0,1,8.54,16.82c-.32-6.26,1-12.83,2.29-18.57,1.44-6.49,2.84-12.91,3-19.58,0-.59,0-1.18,0-1.76a46.56,46.56,0,0,1-4.42-24.45.42.42,0,0,1,.84,0,76.37,76.37,0,0,0,1,13.59,58.56,58.56,0,0,0,2.55,8.81,152.91,152.91,0,0,0-1.44-15.78c-.06-.45.65-.51.76-.11C148.74,390.67,148.38,402.75,145.75,414.67Z" style="fill:#455a64"></path><path d="M186.22,401.1a77.57,77.57,0,0,1-4.66,8,35.17,35.17,0,0,1-1.85,6.37,23.89,23.89,0,0,1-4.83,7.54c-2.51,2.64-5,4.94-5.74,8.47,2,4.09,3.58,8.43,3.6,12.88h-1.5c-1.27-8.15-5.42-14.81-9.15-22.24-3.28-6.52-6-15-2.75-22.06.19-.41.79-.11.7.29-2.23,9.43,1.74,17.33,6.14,25.46.67,1.25,1.37,2.54,2,3.85a11.2,11.2,0,0,1,2.28-4.44c2.23-2.82,4.86-5.1,6.56-8.33,3.73-7.12,3.13-14.82,4.19-22.51.05-.42.63-.24.67.09a46.91,46.91,0,0,1,0,12.47,49.57,49.57,0,0,1,3.65-6.25A.38.38,0,0,1,186.22,401.1Z" style="fill:#455a64"></path><path d="M225.13,396.1a25.24,25.24,0,0,1-4.87,11c-1.9,2.49-4.85,4.09-6.71,6.56-1.57,3.31-3.37,6.5-5.17,9.69-1.92,3.38-5.44,7.94-3.75,12,.09.21-.08.34-.25.36a13.69,13.69,0,0,1,3.17,8.72h-.88c-1-11.79-17.76-14.91-17.91-27.08,0-.56.89-.7,1-.14,1.24,6.61,6.41,10.31,11.05,14.62a31.33,31.33,0,0,1,2.77,2.87c-1.16-2.45-.32-5.15.85-7.58,1.85-3.85,4.14-7.51,6.12-11.29a75.34,75.34,0,0,0,5.37-12.25c1.4-4.43,1.63-8.72,1.74-13.32a.25.25,0,0,1,.48-.07c1.56,6.57-.55,14.08-3.14,20.27,1-.92,2-1.77,2.88-2.73,3.1-3.42,4.68-7.62,6.37-11.83A.46.46,0,0,1,225.13,396.1Z" style="fill:#455a64"></path><path d="M258.92,431.52c-4,.58-7.84,1.51-11.89,1.73a59.37,59.37,0,0,1-12.35-.63c-5.05-.78-10.13-1.95-15.12-1.42a41.9,41.9,0,0,0,4.42-2.28c4.69-2.89,9.21-7.68,11.13-12.92.19-.53-.55-.73-.84-.35-2.31,3-4.23,6.12-7.1,8.7-3.19,2.85-6.89,4.52-10.67,6.43a20.65,20.65,0,0,0-7.44,5.6c-.51.68-3,4.15-1.48,4.89a.23.23,0,0,0,.26,0l.09-.11c.06-.07,0-.21-.06-.23-.33,0,2.66-4.18,2.7-4.23a18.72,18.72,0,0,1,3.76-2.87c.69-.41,1.4-.78,2.12-1.13,6.81-1.32,13.78,1.17,20.55,2,7.09.85,15.52.77,22.23-2A.58.58,0,0,0,258.92,431.52Z" style="fill:#455a64"></path><path d="M170.27,440.77c-2-2.93-5.29-4.57-8.23-6.41-4.17-2.61-7-5.61-8.59-10.32-.14-.4-.85-.37-.79.11,1.13,9.28,10.73,12,17,17.08C170,441.48,170.53,441.15,170.27,440.77Z" style="fill:#455a64"></path><path d="M128.62,434.91c-1.43-3.54-4.86-6-7.64-8.49a29.46,29.46,0,0,1-4.36-4.5c-1.75-2.37-2.62-5.13-3.6-7.87a.26.26,0,0,0-.51.14c1,4.46,2.67,8.47,6,11.73s6.71,5.86,9.74,9.23C128.36,435.32,128.71,435.14,128.62,434.91Z" style="fill:#455a64"></path><path d="M137.24,399.68a1.21,1.21,0,0,1-2.25-.3,1.28,1.28,0,0,1-.05-.27s0,0,0-.05a1.16,1.16,0,0,1,.08-.7,1.24,1.24,0,0,1,.92-.88C137.05,397.26,137.83,398.67,137.24,399.68Z" style="fill:#37474f"></path><path d="M252.85,428a1.22,1.22,0,0,1-2.26-.31,2.51,2.51,0,0,1,0-.27s0,0,0,0a1.19,1.19,0,0,1,.08-.71,1.24,1.24,0,0,1,.92-.88C252.66,425.6,253.43,427,252.85,428Z" style="fill:#37474f"></path><path d="M140.33,401.49a1,1,0,0,0,0-.1h0a.81.81,0,0,0-.2-.74.62.62,0,0,0-.16-.1.6.6,0,0,0-.95.22c-.33.7.48,1.62,1.08,1a.69.69,0,0,0,.16-.22l0,0S140.33,401.51,140.33,401.49Z" style="fill:#37474f"></path><path d="M212.12,395.88l-.05-.1h0a.78.78,0,0,0-.66-.39l-.19,0a.6.6,0,0,0-.51.83c.25.73,1.47.82,1.49,0a.87.87,0,0,0,0-.28v0S212.13,395.89,212.12,395.88Z" style="fill:#37474f"></path><path d="M140.66,397.08a.47.47,0,0,0-.62.22.34.34,0,0,0,0,.29.46.46,0,0,0,.9.17A.54.54,0,0,0,140.66,397.08Z" style="fill:#37474f"></path><path d="M166,383.36a.49.49,0,0,0-.63.21.4.4,0,0,0,0,.3.47.47,0,0,0,.91.16A.53.53,0,0,0,166,383.36Z" style="fill:#37474f"></path><path d="M214.46,391.73a.47.47,0,0,0-.29.59.34.34,0,0,0,.18.24.46.46,0,0,0,.75-.52A.53.53,0,0,0,214.46,391.73Z" style="fill:#37474f"></path><path d="M30,468.71H154.54a23.27,23.27,0,0,0,3.53-6.86c1.05-3.79.07-8.83-3.88-10.56-2.55-1.12-5.3-.19-7.93-.12a2.18,2.18,0,0,1-2.12-.84,2.44,2.44,0,0,1-.19-1.76c.34-1.35,1.64-2.22,2.72-3a.32.32,0,0,0,.06-.5,6.42,6.42,0,0,0-8-.19c-1.35-1.45-.76-3.63.13-5.21s2.49-3,3.59-4.58a5.92,5.92,0,0,0,1.21-4.3A6.61,6.61,0,0,0,141,427c-2.13-1.7-5.81-3.62-8.34-1.6-2.74,2.21-1,6.33-2.78,9a2.94,2.94,0,0,1-2.12,1.5,2.37,2.37,0,0,1-1.95-1.26c-.64-.91-1.15-2-2.24-2.38.29-2.76,1-5.46,1.27-8.22.38-4-.51-9.16-4.68-10.86a6.31,6.31,0,0,0-5.11.07,5.1,5.1,0,0,0-2.63,4.54c-.11,2.36.69,4.69.41,7.05-.17,1.44-.88,3-2.6,2.63a8.6,8.6,0,0,1-3.18-1.73c-1.28-.89-3.47-1.86-4.81-.56-.8.77-.68,2-1.37,2.82A3.67,3.67,0,0,1,98,429c-2.09,0-4.1-.48-6.2-.3a13.57,13.57,0,0,0-5.66,1.68,9.23,9.23,0,0,0-3.81,4.13c-.7,1.51-1.92,5-4.19,3.48A8.59,8.59,0,0,1,76,435.14c-.59-1-1.18-2-1.82-2.92a13.45,13.45,0,0,0-4.51-4.43,9,9,0,0,0-11.27,2.46,9.18,9.18,0,0,0-1.79,5.92c.14,2.46,1.81,4.53,1.91,7a3.33,3.33,0,0,1-1.32,3.08c-1.28.76-2.86.07-4.18-.23s-3.62-.15-4.22,1.46a2.22,2.22,0,0,0,.45,2.06c.28.38.62.72.87,1.12.34.57.27.82-.26,1.17-1.54,1-3.64.67-5.4.84C34.15,453.62,30.49,465.81,30,468.71Z" style="fill:#37474f"></path><path d="M118.05,448.38c1.52,6.87,3,13.63,1.25,20.33h1.43c.52-1.33,1-2.67,1.55-4,5.12-2.39,10.64-.47,16-1.13a17.59,17.59,0,0,0,11.41-6,.23.23,0,0,0-.33-.33,25.28,25.28,0,0,1-7.55,4.31c.58-.67,1.13-1.37,1.75-2,.91-.92,1.92-1.7,2.9-2.55.05-.05,0-.14-.08-.1a20.35,20.35,0,0,0-3.06,2.42,16.31,16.31,0,0,0-2.39,2.52,19.67,19.67,0,0,1-5.51.77c-4.25,0-9-1-12.84,1.2.33-.81.66-1.61,1-2.41a73.51,73.51,0,0,1,5.26-9.62,65.5,65.5,0,0,0,5.42-9.44,38.75,38.75,0,0,0,2.57-10.1c0-.18-.24-.27-.28-.08-1.09,6.09-4,11.34-7.26,16.49,1-3,1.8-6,3-8.91.09-.21-.21-.4-.32-.19-1.73,3.49-3.59,7.38-4.11,11.29l-.66,1a69.1,69.1,0,0,0-5.84,11.51,48.68,48.68,0,0,0-1.56-12.7,70.64,70.64,0,0,1-2.08-13.4c0-.4,0-.8,0-1.2a31.86,31.86,0,0,0,3-16.73.29.29,0,0,0-.58,0,51,51,0,0,1-.69,9.31,40.26,40.26,0,0,1-1.74,6,103.68,103.68,0,0,1,1-10.8c0-.3-.45-.34-.52-.07C116,432,116.26,440.22,118.05,448.38Z" style="fill:#455a64"></path><path d="M90.38,439.1a51.82,51.82,0,0,0,3.18,5.49A24.09,24.09,0,0,0,94.83,449a16.09,16.09,0,0,0,3.3,5.15c1.71,1.81,3.42,3.38,3.92,5.8a20.94,20.94,0,0,0-2.46,8.81h1c.87-5.58,3.7-10.14,6.26-15.22,2.24-4.45,4.1-10.25,1.88-15.08-.13-.28-.54-.08-.48.19,1.52,6.45-1.19,11.86-4.2,17.42-.46.85-.94,1.74-1.4,2.64a7.71,7.71,0,0,0-1.56-3.05c-1.53-1.92-3.33-3.48-4.49-5.69-2.55-4.87-2.14-10.14-2.86-15.4,0-.29-.43-.16-.46.06a31.64,31.64,0,0,0,0,8.53,32.25,32.25,0,0,0-2.5-4.27A.26.26,0,0,0,90.38,439.1Z" style="fill:#455a64"></path><path d="M63.76,435.68a17.29,17.29,0,0,0,3.33,7.5c1.3,1.71,3.32,2.79,4.59,4.49,1.08,2.26,2.3,4.45,3.54,6.63s3.71,5.43,2.56,8.2c-.06.14,0,.23.17.24a9.44,9.44,0,0,0-2.17,6h.61c.67-8.07,12.14-10.2,12.24-18.53,0-.38-.6-.47-.67-.09-.85,4.52-4.38,7.05-7.56,10a22,22,0,0,0-1.9,2c.8-1.68.22-3.52-.57-5.18-1.27-2.64-2.84-5.14-4.19-7.73a52.09,52.09,0,0,1-3.68-8.38,32.2,32.2,0,0,1-1.19-9.11.16.16,0,0,0-.32,0c-1.07,4.49.37,9.63,2.14,13.86-.66-.63-1.38-1.21-2-1.86-2.12-2.35-3.21-5.22-4.36-8.1A.32.32,0,0,0,63.76,435.68Z" style="fill:#455a64"></path><path d="M40.65,459.91c2.72.39,5.36,1,8.13,1.18a40.54,40.54,0,0,0,8.45-.43c3.45-.53,6.92-1.34,10.34-1a27.09,27.09,0,0,1-3-1.56,18.65,18.65,0,0,1-7.61-8.83c-.13-.36.38-.5.57-.24A41.39,41.39,0,0,0,62.36,455a32.23,32.23,0,0,0,7.3,4.4,14,14,0,0,1,5.09,3.83c.35.46,2.06,2.83,1,3.34a.14.14,0,0,1-.17,0l-.07-.07a.1.1,0,0,1,0-.16c.22,0-1.82-2.86-1.86-2.89a12.56,12.56,0,0,0-2.56-2c-.48-.27-1-.53-1.45-.77-4.66-.9-9.43.8-14.06,1.35-4.85.59-10.62.53-15.2-1.37A.39.39,0,0,1,40.65,459.91Z" style="fill:#455a64"></path><path d="M101.29,466.23c1.37-2,3.61-3.12,5.62-4.38a12.88,12.88,0,0,0,5.88-7.06c.09-.27.58-.25.54.07-.78,6.35-7.34,8.18-11.64,11.69C101.48,466.72,101.1,466.49,101.29,466.23Z" style="fill:#455a64"></path><path d="M129.77,462.22c1-2.42,3.33-4.13,5.22-5.8a19.79,19.79,0,0,0,3-3.08,20,20,0,0,0,2.46-5.38.18.18,0,0,1,.35.09,15.88,15.88,0,0,1-4.08,8c-2.19,2.18-4.58,4-6.66,6.32A.17.17,0,0,1,129.77,462.22Z" style="fill:#455a64"></path><path d="M123.88,438.13a.83.83,0,0,0,1.54-.21l0-.18v0a.77.77,0,0,0,0-.48.85.85,0,0,0-.63-.6A1,1,0,0,0,123.88,438.13Z" style="fill:#455a64"></path><path d="M44.8,457.51a.83.83,0,0,0,1.54-.21.57.57,0,0,0,0-.18s0,0,0,0a.77.77,0,0,0-.06-.48.84.84,0,0,0-.63-.6C44.93,455.85,44.4,456.81,44.8,457.51Z" style="fill:#455a64"></path><path d="M121.76,439.37a.24.24,0,0,1,0-.08h0a.56.56,0,0,1,.13-.51l.11-.07a.41.41,0,0,1,.65.15c.22.48-.33,1.11-.74.71a.64.64,0,0,1-.11-.16v0Z" style="fill:#455a64"></path><path d="M72.66,435.53l0-.07h0a.53.53,0,0,1,.45-.27l.13,0a.41.41,0,0,1,.35.57c-.17.5-1,.56-1,0a.58.58,0,0,1,0-.18v0Z" style="fill:#455a64"></path><path d="M121.53,436.35a.33.33,0,0,1,.43.15.24.24,0,0,1,0,.2.32.32,0,0,1-.62.11A.36.36,0,0,1,121.53,436.35Z" style="fill:#455a64"></path><path d="M104.18,427a.33.33,0,0,1,.43.15.24.24,0,0,1,0,.2.32.32,0,0,1-.62.11A.36.36,0,0,1,104.18,427Z" style="fill:#455a64"></path><path d="M71.06,432.69a.33.33,0,0,1,.2.4.26.26,0,0,1-.12.16.32.32,0,0,1-.52-.35A.35.35,0,0,1,71.06,432.69Z" style="fill:#455a64"></path><path d="M476.49,468.71h-133a25,25,0,0,1-3.77-7.33c-1.13-4.05-.08-9.43,4.15-11.29,2.72-1.19,5.66-.2,8.47-.12a2.33,2.33,0,0,0,2.26-.9,2.61,2.61,0,0,0,.21-1.88c-.36-1.45-1.75-2.37-2.91-3.16a.35.35,0,0,1-.06-.54,6.87,6.87,0,0,1,8.59-.2c1.44-1.55.81-3.88-.14-5.57s-2.66-3.18-3.83-4.88a6.35,6.35,0,0,1-1.3-4.6,7.11,7.11,0,0,1,2.82-4.15c2.28-1.82,6.21-3.87,8.91-1.71,2.92,2.36,1.05,6.77,3,9.64a3.17,3.17,0,0,0,2.27,1.61,2.53,2.53,0,0,0,2.08-1.34c.68-1,1.23-2.14,2.4-2.55-.32-2.94-1.08-5.83-1.36-8.78-.41-4.26.54-9.79,5-11.6a6.74,6.74,0,0,1,5.46.07,5.48,5.48,0,0,1,2.81,4.86c.11,2.52-.74,5-.44,7.52.19,1.55.94,3.17,2.78,2.82a9.29,9.29,0,0,0,3.4-1.86c1.36-.94,3.71-2,5.14-.59.84.82.73,2.13,1.46,3a3.91,3.91,0,0,0,3.07,1.08c2.23,0,4.38-.51,6.62-.32a14.63,14.63,0,0,1,6.05,1.79,9.9,9.9,0,0,1,4.07,4.42c.74,1.61,2.05,5.38,4.48,3.72a9.39,9.39,0,0,0,2.23-3c.63-1,1.26-2.11,1.95-3.12a14.22,14.22,0,0,1,4.81-4.73,9.6,9.6,0,0,1,12,2.63,9.83,9.83,0,0,1,1.92,6.33c-.15,2.62-1.94,4.84-2.05,7.43a3.58,3.58,0,0,0,1.41,3.29c1.37.81,3.07.08,4.47-.25s3.87-.16,4.51,1.56a2.38,2.38,0,0,1-.48,2.21c-.3.41-.66.76-.93,1.2-.36.61-.29.87.28,1.24,1.65,1.11,3.88.72,5.76.9C472.08,452.59,476,465.61,476.49,468.71Z" style="fill:#455a64"></path><path d="M382.43,447c-1.63,7.35-3.24,14.57-1.33,21.73h-1.53c-.56-1.42-1.1-2.85-1.66-4.27-5.47-2.56-11.36-.5-17.14-1.21-4.51-.56-9.31-2.75-12.19-6.37a.25.25,0,0,1,.36-.35,27.16,27.16,0,0,0,8.06,4.61c-.61-.72-1.2-1.47-1.87-2.15-1-1-2.05-1.82-3.09-2.73a.07.07,0,0,1,.08-.11,21.52,21.52,0,0,1,3.27,2.59,17.25,17.25,0,0,1,2.56,2.7,20.68,20.68,0,0,0,5.88.81c4.53,0,9.61-1,13.72,1.29-.35-.86-.7-1.73-1.08-2.58a79.83,79.83,0,0,0-5.62-10.27,69.77,69.77,0,0,1-5.79-10.1,41.35,41.35,0,0,1-2.75-10.79c0-.19.26-.28.3-.08,1.17,6.51,4.32,12.12,7.76,17.62-1.06-3.18-1.92-6.42-3.26-9.52-.1-.23.22-.42.34-.2,1.85,3.73,3.83,7.89,4.4,12.06.23.37.46.74.7,1.1a74,74,0,0,1,6.24,12.3c-.24-4.57.74-9.38,1.67-13.58a76.1,76.1,0,0,0,2.21-14.3c0-.44,0-.86,0-1.29A34,34,0,0,1,379.46,416a.31.31,0,0,1,.62,0,55.25,55.25,0,0,0,.73,9.94,43,43,0,0,0,1.86,6.43,109.51,109.51,0,0,0-1.05-11.53c0-.33.48-.37.56-.08C384.61,429.45,384.35,438.27,382.43,447Z" style="fill:#37474f"></path><path d="M412,437.07a55.12,55.12,0,0,1-3.4,5.86,25.33,25.33,0,0,1-1.36,4.66,17,17,0,0,1-3.53,5.51c-1.83,1.94-3.65,3.61-4.19,6.2a22.07,22.07,0,0,1,2.63,9.41h-1.09c-.93-6-4-10.83-6.69-16.26-2.4-4.76-4.39-11-2-16.12.14-.3.58-.08.51.21-1.63,6.89,1.27,12.67,4.48,18.61.5.91,1,1.86,1.51,2.82a8,8,0,0,1,1.67-3.25c1.62-2.06,3.55-3.73,4.79-6.09,2.73-5.2,2.29-10.83,3.06-16.45,0-.31.46-.18.49.07a33.9,33.9,0,0,1,0,9.11,36.9,36.9,0,0,1,2.67-4.57A.28.28,0,0,1,412,437.07Z" style="fill:#37474f"></path><path d="M440.44,433.42a18.48,18.48,0,0,1-3.56,8c-1.39,1.83-3.55,3-4.9,4.8-1.15,2.42-2.47,4.75-3.78,7.08s-4,5.8-2.74,8.76c.06.16-.06.25-.19.26a10,10,0,0,1,2.32,6.38H427c-.73-8.62-13-10.9-13.09-19.8,0-.4.65-.51.72-.09.91,4.82,4.69,7.53,8.08,10.68a23.58,23.58,0,0,1,2,2.09c-.85-1.79-.24-3.76.61-5.53,1.36-2.82,3-5.49,4.48-8.25a54.81,54.81,0,0,0,3.92-9,34.41,34.41,0,0,0,1.28-9.73c0-.2.3-.25.34-.05,1.15,4.8-.4,10.29-2.29,14.81.71-.67,1.47-1.3,2.1-2,2.27-2.51,3.43-5.58,4.66-8.65A.34.34,0,0,1,440.44,433.42Z" style="fill:#37474f"></path><path d="M465.14,459.3c-2.92.42-5.73,1.11-8.69,1.27a43.29,43.29,0,0,1-9-.46c-3.69-.57-7.4-1.43-11.05-1a29.88,29.88,0,0,0,3.23-1.67,19.94,19.94,0,0,0,8.13-9.44c.15-.39-.4-.53-.61-.26-1.69,2.21-3.09,4.47-5.19,6.36-2.33,2.09-5,3.31-7.8,4.7a15.21,15.21,0,0,0-5.43,4.09c-.38.5-2.2,3-1.09,3.58a.15.15,0,0,0,.19,0l.07-.07c0-.05,0-.16-.05-.17-.24,0,1.95-3.06,2-3.1a14.05,14.05,0,0,1,2.75-2.09c.5-.3,1-.57,1.54-.83,5-1,10.08.85,15,1.45,5.19.62,11.35.56,16.25-1.47A.43.43,0,0,0,465.14,459.3Z" style="fill:#37474f"></path><path d="M400.34,466.06c-1.46-2.14-3.86-3.34-6-4.68a13.78,13.78,0,0,1-6.28-7.54c-.1-.3-.62-.27-.58.07.83,6.79,7.84,8.74,12.44,12.49C400.13,466.58,400.54,466.34,400.34,466.06Z" style="fill:#37474f"></path><path d="M369.91,461.78c-1.05-2.59-3.56-4.41-5.58-6.2a16,16,0,0,1-5.83-9,.19.19,0,1,0-.36.1,17,17,0,0,0,4.35,8.57c2.34,2.32,4.9,4.28,7.12,6.74A.18.18,0,0,0,369.91,461.78Z" style="fill:#37474f"></path><path d="M376.21,436a.89.89,0,0,1-1.65-.22.68.68,0,0,1,0-.19s0,0,0,0a.86.86,0,0,1,.06-.51.92.92,0,0,1,.67-.65A1.05,1.05,0,0,1,376.21,436Z" style="fill:#37474f"></path><path d="M460.7,456.74a.89.89,0,0,1-1.65-.22.69.69,0,0,1,0-.2v0a.9.9,0,0,1,.06-.52.91.91,0,0,1,.67-.64C460.56,455,461.13,456,460.7,456.74Z" style="fill:#37474f"></path><path d="M378.47,437.36a.24.24,0,0,1,0-.08h0a.59.59,0,0,0-.14-.54.25.25,0,0,0-.12-.08.44.44,0,0,0-.69.16c-.24.51.35,1.19.79.76a.62.62,0,0,0,.11-.17l0,0A0,0,0,0,1,378.47,437.36Z" style="fill:#37474f"></path><path d="M430.93,433.25l0-.07h0a.59.59,0,0,0-.48-.29l-.14,0a.44.44,0,0,0-.37.6c.19.54,1.08.6,1.09,0a.45.45,0,0,0,0-.2v0Z" style="fill:#37474f"></path><path d="M378.71,434.13a.36.36,0,0,0-.46.16.36.36,0,0,0,.63.34A.39.39,0,0,0,378.71,434.13Z" style="fill:#37474f"></path><path d="M397.25,424.1a.35.35,0,0,0-.46.16.26.26,0,0,0,0,.21.34.34,0,0,0,.66.12A.39.39,0,0,0,397.25,424.1Z" style="fill:#37474f"></path><path d="M432.64,430.22a.34.34,0,0,0-.21.43.3.3,0,0,0,.13.18.34.34,0,0,0,.55-.38A.39.39,0,0,0,432.64,430.22Z" style="fill:#37474f"></path></g></svg>