<svg xmlns="http://www.w3.org/2000/svg" viewBox="0 0 500 500"><g id="freepik--Floor--inject-69"><path id="freepik--floor--inject-69" d="M110.42,296.06c-77.08,44.51-77.08,116.66,0,161.17s202.06,44.5,279.15,0,77.08-116.66,0-161.17S187.51,251.56,110.42,296.06Z" style="fill:#f5f5f5"></path></g><g id="freepik--Plants--inject-69"><g id="freepik--plants--inject-69"><path d="M94.91,364.71l-12.75,7.36c.17-4.55.57-11.32-.06-15.88-3.85-27.88-14.71-37.07-19.88-50.63-5.43-14.29,1.2-18.89,9.81-16.32,7.68,2.29,18.8,13.66,22.3,34.46C96.66,337.54,96.25,352.57,94.91,364.71Z" style="fill:#7C61B3"></path><path d="M94.91,364.71l-12.75,7.36c.17-4.55.57-11.32-.06-15.88-3.85-27.88-14.71-37.07-19.88-50.63-5.43-14.29,1.2-18.89,9.81-16.32,7.68,2.29,18.8,13.66,22.3,34.46C96.66,337.54,96.25,352.57,94.91,364.71Z" style="fill:#fff;opacity:0.65"></path><path d="M88.15,368.61l-1.27.74c4.56-32.5-6.55-60.69-17.52-72.33a.56.56,0,0,1,.81-.77C81.13,307.9,92.24,336.27,88.15,368.61Z" style="fill:#fff"></path><path d="M85.74,370l-7.17,4.14h0C74.74,362.91,70.83,358.41,66,351c-4.43-6.72-9.59-10.89-12.33-15.62-2.42-4.18-4.24-9.44-.64-12.62,5.74-5.07,13.22.29,18.37,6.09C75.81,333.88,84.76,347.2,85.74,370Z" style="fill:#7C61B3"></path><path d="M85.74,370l-7.17,4.14h0C74.74,362.91,70.83,358.41,66,351c-4.43-6.72-9.59-10.89-12.33-15.62-2.42-4.18-4.24-9.44-.64-12.62,5.74-5.07,13.22.29,18.37,6.09C75.81,333.88,84.76,347.2,85.74,370Z" style="fill:#fff;opacity:0.30000000000000004"></path><path d="M82.8,371.7l-1,.61c-3-17.77-15.08-38.33-22.58-43.19a.58.58,0,0,1-.17-.79.56.56,0,0,1,.79-.17C67.56,333.2,79.6,353.66,82.8,371.7Z" style="fill:#fff"></path></g><g id="freepik--plants--inject-69"><path d="M408.32,364.71l12.75,7.36c-.17-4.55-.56-11.32.07-15.88,3.85-27.88,14.7-37.07,19.87-50.63,5.44-14.29-1.2-18.89-9.81-16.32-7.68,2.29-18.8,13.66-22.3,34.46C406.57,337.54,407,352.57,408.32,364.71Z" style="fill:#7C61B3"></path><path d="M408.32,364.71l12.75,7.36c-.17-4.55-.56-11.32.07-15.88,3.85-27.88,14.7-37.07,19.87-50.63,5.44-14.29-1.2-18.89-9.81-16.32-7.68,2.29-18.8,13.66-22.3,34.46C406.57,337.54,407,352.57,408.32,364.71Z" style="fill:#fff;opacity:0.65"></path><path d="M415.08,368.61l1.28.74c-4.56-32.5,6.55-60.69,17.51-72.33a.56.56,0,0,0-.81-.77C422.1,307.9,411,336.27,415.08,368.61Z" style="fill:#fff"></path><path d="M417.49,370l7.18,4.14h0c3.82-11.23,7.74-15.73,12.6-23.12,4.43-6.72,9.59-10.89,12.33-15.62,2.42-4.18,4.25-9.44.64-12.62-5.73-5.07-13.22.29-18.37,6.09C427.42,333.88,418.47,347.2,417.49,370Z" style="fill:#7C61B3"></path><path d="M417.49,370l7.18,4.14h0c3.82-11.23,7.74-15.73,12.6-23.12,4.43-6.72,9.59-10.89,12.33-15.62,2.42-4.18,4.25-9.44.64-12.62-5.73-5.07-13.22.29-18.37,6.09C427.42,333.88,418.47,347.2,417.49,370Z" style="fill:#fff;opacity:0.30000000000000004"></path><path d="M420.43,371.7l1.05.61c3-17.77,15.08-38.33,22.58-43.19a.57.57,0,0,0,.17-.79.56.56,0,0,0-.79-.17C435.68,333.2,423.63,353.66,420.43,371.7Z" style="fill:#fff"></path></g></g><g id="freepik--Shadows--inject-69"><ellipse id="freepik--Shadow--inject-69" cx="136.91" cy="387.66" rx="67.19" ry="38.79" style="fill:#e0e0e0"></ellipse><ellipse id="freepik--shadow--inject-69" cx="363.21" cy="380.64" rx="67.19" ry="38.79" style="fill:#e0e0e0"></ellipse><ellipse id="freepik--shadow--inject-69" cx="252.3" cy="410.3" rx="67.19" ry="38.79" style="fill:#e0e0e0"></ellipse></g><g id="freepik--Gears--inject-69"><g id="freepik--gear-icons--inject-69"><g id="freepik--Gear--inject-69"><path d="M126.14,76.82l-.2,0-4.23-.69a1.53,1.53,0,0,1-1.23-1.64l.26-3.52a1,1,0,0,0-.39-.83,15,15,0,0,1-2-1.26,1.44,1.44,0,0,0-1.18.17L114.4,70.5a1.74,1.74,0,0,1-2.21-.17l-2.56-3.56c-.41-.57-.13-1.51.66-2.18l2.19-1.89a1.51,1.51,0,0,0,.61-1.13,13.37,13.37,0,0,1-.49-2.15.94.94,0,0,0-.56-.7l-3.75-1a1.54,1.54,0,0,1-1-1.81l.71-3.81a1.6,1.6,0,0,1,1.63-1.37l3.75.2a1.47,1.47,0,0,0,1-.79c.24-.4.49-.79.76-1.16a1.73,1.73,0,0,0,.41-1.19l-1.92-3.4a1.72,1.72,0,0,1,.86-2.09l2.82-2a1.79,1.79,0,0,1,2.26-.1l2.66,3a1.38,1.38,0,0,0,1.09.06,15.58,15.58,0,0,1,1.8-.39,1.34,1.34,0,0,0,.94-.84l.95-3.15a1.69,1.69,0,0,1,1.76-1.26l4.23.68a1.55,1.55,0,0,1,1.23,1.65L134,43.44a1,1,0,0,0,.39.83,14.16,14.16,0,0,1,2,1.26,1.46,1.46,0,0,0,1.19-.17l2.72-1.47a1.74,1.74,0,0,1,2.21.17l2.56,3.56c.41.57.13,1.51-.65,2.18l-2.2,1.89a1.5,1.5,0,0,0-.61,1.13,13.62,13.62,0,0,1,.49,2.15.93.93,0,0,0,.56.69l3.75,1a1.54,1.54,0,0,1,1,1.81l-.7,3.8a1.66,1.66,0,0,1-1.64,1.38l-3.75-.21a1.66,1.66,0,0,0-1,.8c-.23.4-.48.78-.75,1.16a1.66,1.66,0,0,0-.41,1.18L141.08,70c.35.62,0,1.51-.85,2.09l-2.83,1.94a1.77,1.77,0,0,1-2.26.1l-2.65-2.94a1.47,1.47,0,0,0-1.1-.07,14.53,14.53,0,0,1-1.8.4,1.34,1.34,0,0,0-.94.84l-1,3.15A1.74,1.74,0,0,1,126.14,76.82Zm-8.15-9a1.51,1.51,0,0,1,.92.26,13.69,13.69,0,0,0,1.89,1.16,1.94,1.94,0,0,1,.94,1.8l-.26,3.52a.55.55,0,0,0,.39.59l4.23.69a.74.74,0,0,0,.64-.57l1-3.15a2.3,2.3,0,0,1,1.73-1.53,14,14,0,0,0,1.68-.38,2.24,2.24,0,0,1,2.12.36l2.66,2.94a1.08,1.08,0,0,0,.94-.25l2.83-1.95c.44-.3.58-.68.55-.77l-1.91-3.41a2.31,2.31,0,0,1,.47-2.26c.25-.34.48-.71.7-1.08a2.39,2.39,0,0,1,2-1.28l3.75.2a.66.66,0,0,0,.6-.56l.71-3.8a.6.6,0,0,0-.27-.67h0l-3.76-1a1.93,1.93,0,0,1-1.28-1.52,12.44,12.44,0,0,0-.45-2,2.32,2.32,0,0,1,.91-2.19l2.2-1.89a1.15,1.15,0,0,0,.48-.84l-2.55-3.55a1,1,0,0,0-.92.12l-2.73,1.47a2.27,2.27,0,0,1-2.25.09,14.25,14.25,0,0,0-1.9-1.17,1.9,1.9,0,0,1-.93-1.79l.25-3.53a.55.55,0,0,0-.39-.58l-4.23-.69a.74.74,0,0,0-.64.57l-1,3.15a2.33,2.33,0,0,1-1.74,1.53,13.62,13.62,0,0,0-1.68.38,2.24,2.24,0,0,1-2.12-.36l-2.65-2.94a1.1,1.1,0,0,0-1,.25l-2.83,1.94c-.43.31-.58.69-.54.78l1.91,3.4a2.37,2.37,0,0,1-.47,2.27,11.84,11.84,0,0,0-.71,1.08,2.35,2.35,0,0,1-2,1.28l-3.75-.2a.68.68,0,0,0-.6.56l-.71,3.8a.59.59,0,0,0,.28.67l3.75,1a1.92,1.92,0,0,1,1.28,1.52,13.63,13.63,0,0,0,.45,2,2.32,2.32,0,0,1-.9,2.19l-2.2,1.89c-.41.35-.53.74-.49.84L113,69.74a1,1,0,0,0,.92-.12l2.72-1.47A2.94,2.94,0,0,1,118,67.8Zm9.28-1.88a9.3,9.3,0,0,1-1.47-.12A8.76,8.76,0,0,1,120,62.19a8.42,8.42,0,0,1-1.41-6.44A9.07,9.07,0,0,1,129,48.59a8.78,8.78,0,0,1,5.82,3.61,8.45,8.45,0,0,1,1.4,6.44h0A9.06,9.06,0,0,1,127.27,65.92Zm.23-16.45a8.06,8.06,0,0,0-7.94,6.46,7.44,7.44,0,0,0,1.24,5.68,7.75,7.75,0,0,0,5.16,3.2,8.08,8.08,0,0,0,9.25-6.35h0A7.46,7.46,0,0,0,134,52.77a7.77,7.77,0,0,0-5.16-3.19A8.37,8.37,0,0,0,127.5,49.47Z" style="fill:#ebebeb"></path></g><g id="freepik--gear--inject-69"><path d="M37.28,244a1.56,1.56,0,0,1-1.47-1.23L35,239.37a1,1,0,0,0-.61-.69,14.65,14.65,0,0,1-2.32-.6,1.48,1.48,0,0,0-1.09.5l-2.17,2.21a1.72,1.72,0,0,1-2.16.47l-3.49-2.66a1.72,1.72,0,0,1,0-2.27l1.55-2.45a1.49,1.49,0,0,0,.25-1.25,14,14,0,0,1-1.09-1.92.94.94,0,0,0-.74-.5l-3.89.1a1.55,1.55,0,0,1-1.48-1.45L17.35,225a1.64,1.64,0,0,1,1.17-1.79l3.64-.9a1.46,1.46,0,0,0,.77-1.06c.11-.45.24-.89.39-1.33a1.68,1.68,0,0,0,0-1.26L20.54,216a1.72,1.72,0,0,1,.21-2.25l2.14-2.69A1.79,1.79,0,0,1,25,210.3l3.39,2a1.42,1.42,0,0,0,1.07-.26,16.94,16.94,0,0,1,1.61-.9,1.31,1.31,0,0,0,.65-1.07v-3.3a1.66,1.66,0,0,1,1.31-1.71l4.25-.58A1.51,1.51,0,0,1,39,205.73l.78,3.45a1,1,0,0,0,.62.68,14.86,14.86,0,0,1,2.31.61,1.52,1.52,0,0,0,1.09-.5l2.17-2.21a1.72,1.72,0,0,1,2.17-.47l3.48,2.65a1.74,1.74,0,0,1,0,2.28L50,214.67a1.53,1.53,0,0,0-.25,1.25,13.49,13.49,0,0,1,1.1,1.91,1,1,0,0,0,.73.51l3.89-.11h0A1.55,1.55,0,0,1,57,219.68l.43,3.84a1.66,1.66,0,0,1-1.16,1.8l-3.65.89a1.51,1.51,0,0,0-.77,1.07c-.11.45-.24.89-.39,1.33a1.65,1.65,0,0,0,0,1.25l2.82,2.7a1.72,1.72,0,0,1-.21,2.25l-2.13,2.68a1.79,1.79,0,0,1-2.13.76l-3.4-2a1.35,1.35,0,0,0-1.07.25,17,17,0,0,1-1.61.91,1.31,1.31,0,0,0-.65,1.07v3.29a1.67,1.67,0,0,1-1.3,1.72l-4.26.58Zm-5.26-7a1.23,1.23,0,0,1,.42.07,14.45,14.45,0,0,0,2.15.56A1.93,1.93,0,0,1,36,239.15l.79,3.44a.56.56,0,0,0,.54.45l4.25-.58c.21,0,.44-.35.44-.73v-3.29a2.32,2.32,0,0,1,1.21-2,15,15,0,0,0,1.51-.85,2.19,2.19,0,0,1,2.12-.27l3.4,2a1.12,1.12,0,0,0,.83-.52l2.14-2.69a1.06,1.06,0,0,0,.3-.9l-2.82-2.7a2.33,2.33,0,0,1-.21-2.3,12.64,12.64,0,0,0,.36-1.24,2.39,2.39,0,0,1,1.5-1.8l3.65-.89a.68.68,0,0,0,.41-.71L56,219.79c0-.32-.26-.6-.45-.56l-3.89.11A1.94,1.94,0,0,1,50,218.26a14.26,14.26,0,0,0-1-1.78,2.32,2.32,0,0,1,.23-2.35l1.55-2.45a1.11,1.11,0,0,0,.22-1l-3.48-2.65a1,1,0,0,0-.84.38l-2.18,2.21a2.28,2.28,0,0,1-2.13.74,12.71,12.71,0,0,0-2.16-.56,1.94,1.94,0,0,1-1.41-1.45L38,206a.53.53,0,0,0-.54-.45l-4.25.58c-.21,0-.44.34-.44.72v3.3a2.33,2.33,0,0,1-1.21,2,13.72,13.72,0,0,0-1.5.84,2.24,2.24,0,0,1-2.13.28l-3.4-2c-.1,0-.49.09-.83.52l-2.14,2.68c-.33.42-.36.83-.29.9l2.82,2.7a2.36,2.36,0,0,1,.2,2.3c-.13.41-.25.82-.35,1.24a2.38,2.38,0,0,1-1.51,1.8l-3.65.9a.67.67,0,0,0-.41.71l.44,3.84c0,.33.25.57.45.56l3.89-.1h0a1.93,1.93,0,0,1,1.63,1.08,12.49,12.49,0,0,0,1,1.77,2.37,2.37,0,0,1-.24,2.36L24,236.86a1.15,1.15,0,0,0-.22.95l3.48,2.66a1,1,0,0,0,.85-.39l2.17-2.2A2.6,2.6,0,0,1,32,237.07Zm5.12-4a8.71,8.71,0,0,1-5.38-1.84,8.44,8.44,0,0,1-3.22-5.75,9.08,9.08,0,0,1,7.85-9.88A8.75,8.75,0,0,1,43,217.34a8.42,8.42,0,0,1,3.22,5.75A9.07,9.07,0,0,1,38.37,233,8.48,8.48,0,0,1,37.14,233.05Zm.48-16.55a8.23,8.23,0,0,0-1.1.07,8.07,8.07,0,0,0-7,8.78,7.46,7.46,0,0,0,2.84,5.07A7.77,7.77,0,0,0,38.24,232a8.06,8.06,0,0,0,7-8.77,7.46,7.46,0,0,0-2.84-5.07A7.69,7.69,0,0,0,37.62,216.5Z" style="fill:#ebebeb"></path></g><g id="freepik--gear--inject-69"><path d="M381.79,69.86h-.2l-4.23-.69a1.53,1.53,0,0,1-1.23-1.64l.26-3.53a1,1,0,0,0-.39-.83,15.27,15.27,0,0,1-2-1.25,1.42,1.42,0,0,0-1.18.16l-2.73,1.47a1.73,1.73,0,0,1-2.21-.17l-2.56-3.56c-.41-.57-.13-1.51.65-2.18l2.2-1.89a1.5,1.5,0,0,0,.61-1.13,13,13,0,0,1-.49-2.14.93.93,0,0,0-.56-.7l-3.75-1a1.56,1.56,0,0,1-1-1.82l.71-3.8a1.63,1.63,0,0,1,1.63-1.38L369,44a1.48,1.48,0,0,0,1-.8c.23-.39.49-.78.76-1.16a1.78,1.78,0,0,0,.41-1.18l-1.92-3.41a1.73,1.73,0,0,1,.86-2.09L373,33.37a1.78,1.78,0,0,1,2.26-.1l2.66,2.94a1.44,1.44,0,0,0,1.09.07,16.09,16.09,0,0,1,1.8-.4,1.33,1.33,0,0,0,.94-.83l1-3.16a1.68,1.68,0,0,1,1.76-1.26l4.23.69A1.53,1.53,0,0,1,389.94,33l-.26,3.52a1,1,0,0,0,.39.84,14.66,14.66,0,0,1,2,1.25,1.48,1.48,0,0,0,1.19-.16L396,36.93a1.74,1.74,0,0,1,2.21.18l2.56,3.55c.41.57.13,1.51-.65,2.18l-2.2,1.89a1.51,1.51,0,0,0-.61,1.13,13.13,13.13,0,0,1,.49,2.15,1,1,0,0,0,.56.7l3.75,1a1.54,1.54,0,0,1,1,1.82l-.71,3.8a1.62,1.62,0,0,1-1.63,1.37l-3.75-.2c-.3,0-.76.3-1,.79a12.86,12.86,0,0,1-.76,1.16,1.7,1.7,0,0,0-.4,1.19l1.91,3.4a1.71,1.71,0,0,1-.85,2.09l-2.83,2a1.78,1.78,0,0,1-2.26.1l-2.65-2.94a1.38,1.38,0,0,0-1.1-.07,16.6,16.6,0,0,1-1.8.4,1.31,1.31,0,0,0-.94.83l-.95,3.15A1.73,1.73,0,0,1,381.79,69.86Zm-8.15-9a1.58,1.58,0,0,1,.92.26,13.76,13.76,0,0,0,1.89,1.17,1.92,1.92,0,0,1,.94,1.79l-.26,3.53a.55.55,0,0,0,.39.58l4.23.69c.21,0,.53-.2.64-.57l1-3.15a2.3,2.3,0,0,1,1.73-1.53,14,14,0,0,0,1.68-.37,2.19,2.19,0,0,1,2.12.36l2.66,2.94a1.14,1.14,0,0,0,.94-.26l2.83-1.94a1.08,1.08,0,0,0,.55-.78l-1.92-3.4a2.35,2.35,0,0,1,.47-2.26,12.55,12.55,0,0,0,.71-1.08,2.33,2.33,0,0,1,2-1.29l3.75.21a.67.67,0,0,0,.6-.56l.71-3.8c.06-.33-.1-.63-.27-.67h0l-3.76-1a1.9,1.9,0,0,1-1.28-1.52,13.63,13.63,0,0,0-.45-2,2.3,2.3,0,0,1,.91-2.18l2.2-1.89a1.15,1.15,0,0,0,.48-.85l-2.55-3.55a1,1,0,0,0-.92.12l-2.73,1.48a2.32,2.32,0,0,1-2.25.09,12.44,12.44,0,0,0-1.9-1.17,1.91,1.91,0,0,1-.93-1.8l.25-3.52a.53.53,0,0,0-.39-.58l-4.23-.69c-.22,0-.53.2-.64.56l-.95,3.16A2.33,2.33,0,0,1,381,36.87a13.59,13.59,0,0,0-1.68.37,2.24,2.24,0,0,1-2.12-.36l-2.65-2.94a1.14,1.14,0,0,0-1,.25l-2.83,2c-.44.3-.58.68-.54.78l1.91,3.4a2.36,2.36,0,0,1-.47,2.26c-.25.35-.49.71-.71,1.08A2.4,2.4,0,0,1,369,45l-3.75-.21h0a.68.68,0,0,0-.58.56l-.71,3.8a.6.6,0,0,0,.28.67l3.75,1a1.93,1.93,0,0,1,1.28,1.52,13.47,13.47,0,0,0,.45,2,2.32,2.32,0,0,1-.9,2.18l-2.2,1.89a1.14,1.14,0,0,0-.49.84l2.56,3.56a1,1,0,0,0,.92-.12l2.72-1.48A2.94,2.94,0,0,1,373.64,60.84ZM382.92,59a9.3,9.3,0,0,1-1.47-.12,8.76,8.76,0,0,1-5.81-3.61,8.4,8.4,0,0,1-1.41-6.43,9.07,9.07,0,0,1,10.39-7.16,8.68,8.68,0,0,1,5.81,3.6,8.43,8.43,0,0,1,1.41,6.44A9,9,0,0,1,382.92,59Zm.23-16.44A8,8,0,0,0,375.22,49a7.39,7.39,0,0,0,1.23,5.68,7.73,7.73,0,0,0,5.16,3.19,8.06,8.06,0,0,0,9.25-6.35,7.44,7.44,0,0,0-1.24-5.68,7.78,7.78,0,0,0-5.16-3.2A8.35,8.35,0,0,0,383.15,42.52Z" style="fill:#ebebeb"></path></g><g id="freepik--gear--inject-69"><path d="M424.21,248.29a1,1,0,0,1-.39-.07l-3.93-1.65a1.71,1.71,0,0,1-.57-2.16l.86-2.68a1.39,1.39,0,0,0-.07-1.22,14.44,14.44,0,0,1-1.49-1.54.88.88,0,0,0-.8-.29l-3.63,1a1.52,1.52,0,0,1-1.76-1l-1.34-3.5a1.62,1.62,0,0,1,.66-2l3.21-1.73a1.43,1.43,0,0,0,.46-1.17c0-.46,0-.9,0-1.35a1.66,1.66,0,0,0-.25-1.18l-3.31-1.85a1.67,1.67,0,0,1-.36-2.18l1.35-3c.4-.9,1.2-1.43,1.84-1.24l3.69,1.09a1.35,1.35,0,0,0,.93-.5,16.82,16.82,0,0,1,1.29-1.24,1.24,1.24,0,0,0,.35-1.15l-.81-3.09a1.66,1.66,0,0,1,.83-2l3.85-1.57a1.5,1.5,0,0,1,1.87.74l1.57,3a1,1,0,0,0,.73.49,13.94,13.94,0,0,1,2.33,0,1.51,1.51,0,0,0,.89-.73l1.51-2.6a1.69,1.69,0,0,1,1.93-1l3.93,1.65a1.7,1.7,0,0,1,.57,2.15l-.87,2.68a1.5,1.5,0,0,0,.07,1.23,14.44,14.44,0,0,1,1.5,1.53.91.91,0,0,0,.8.3l3.63-1a1.52,1.52,0,0,1,1.76,1l1.34,3.51a1.61,1.61,0,0,1-.67,2l-3.21,1.73a1.41,1.41,0,0,0-.46,1.17q0,.67,0,1.35a1.61,1.61,0,0,0,.25,1.17l3.31,1.85a1.69,1.69,0,0,1,.36,2.19l-1.36,3c-.39.9-1.18,1.43-1.83,1.23l-3.69-1.08a1.33,1.33,0,0,0-.93.49,15,15,0,0,1-1.29,1.24,1.27,1.27,0,0,0-.35,1.16l.8,3.09a1.62,1.62,0,0,1-.82,2l-3.86,1.58a1.5,1.5,0,0,1-1.86-.75l-1.58-3a.93.93,0,0,0-.73-.49,13.83,13.83,0,0,1-2.32,0,1.51,1.51,0,0,0-.89.73l-1.51,2.61A1.94,1.94,0,0,1,424.21,248.29ZM418,237.66a2,2,0,0,1,1.44.67,12.35,12.35,0,0,0,1.38,1.42,2.26,2.26,0,0,1,.36,2.29l-.86,2.68a1.11,1.11,0,0,0,0,.93l3.91,1.64c.09,0,.44-.14.69-.56l1.5-2.6a2.21,2.21,0,0,1,1.84-1.22,13.1,13.1,0,0,0,2.17,0,1.86,1.86,0,0,1,1.69,1l1.58,3a.52.52,0,0,0,.6.28l3.85-1.57a.67.67,0,0,0,.23-.78l-.8-3.09a2.22,2.22,0,0,1,.67-2.17,14.58,14.58,0,0,0,1.2-1.16,2.18,2.18,0,0,1,1.95-.77l3.69,1.09h0a1.16,1.16,0,0,0,.64-.69l1.36-3a1,1,0,0,0,.06-.9l-3.31-1.85a2.31,2.31,0,0,1-.76-2.13c0-.41,0-.83,0-1.25a2.33,2.33,0,0,1,1-2.07l3.21-1.73a.64.64,0,0,0,.21-.75l-1.35-3.51c-.11-.29-.38-.46-.54-.41L442,221.53a1.88,1.88,0,0,1-1.84-.62,13.29,13.29,0,0,0-1.39-1.42,2.29,2.29,0,0,1-.36-2.28l.87-2.68a1.1,1.1,0,0,0,0-.93L435.3,212c-.08,0-.44.14-.68.56l-1.51,2.6a2.21,2.21,0,0,1-1.84,1.23,14.15,14.15,0,0,0-2.16,0,1.87,1.87,0,0,1-1.69-1l-1.58-3.05a.52.52,0,0,0-.6-.28l-3.86,1.58a.68.68,0,0,0-.23.77l.81,3.1a2.26,2.26,0,0,1-.67,2.16,13.15,13.15,0,0,0-1.2,1.16,2.16,2.16,0,0,1-1.95.78l-3.69-1.09a1.16,1.16,0,0,0-.64.68l-1.36,3a1,1,0,0,0-.06.9l3.3,1.85a2.28,2.28,0,0,1,.77,2.13c0,.41,0,.83,0,1.25a2.32,2.32,0,0,1-1,2.07l-3.21,1.73a.63.63,0,0,0-.21.75l1.34,3.51c.12.29.39.46.55.41l3.63-1.05A1.4,1.4,0,0,1,418,237.66Zm11.56.56a8.49,8.49,0,0,1-3.36-.69,8.26,8.26,0,0,1-4.44-4.64h0a8.84,8.84,0,0,1,5-11.21,8.51,8.51,0,0,1,6.66,0,8.19,8.19,0,0,1,4.43,4.63,8.83,8.83,0,0,1-5,11.22A8.7,8.7,0,0,1,429.51,238.22Zm-6.86-5.68a7.19,7.19,0,0,0,3.9,4.07,7.5,7.5,0,0,0,5.88,0,7.83,7.83,0,0,0,4.43-9.93,7.22,7.22,0,0,0-3.9-4.07,7.55,7.55,0,0,0-5.88,0,7.83,7.83,0,0,0-4.43,9.94Z" style="fill:#ebebeb"></path></g><g id="freepik--gear--inject-69"><path d="M449.46,136.68a1.6,1.6,0,0,1-1.57-1.19l-.77-3.55a1.42,1.42,0,0,0-1-.76c-.44-.12-.86-.25-1.28-.41a1.6,1.6,0,0,0-1.19-.08L441,133.34a1.66,1.66,0,0,1-2.18-.26L436.25,131a1.74,1.74,0,0,1-.67-2.1l2.06-3.23a1.37,1.37,0,0,0-.22-1c-.3-.51-.58-1-.83-1.58a1.25,1.25,0,0,0-1-.65l-3.18-.08a1.64,1.64,0,0,1-1.64-1.33l-.45-4.12a1.5,1.5,0,0,1,1.24-1.58l3.34-.67a.93.93,0,0,0,.67-.56,15.09,15.09,0,0,1,.64-2.22,1.4,1.4,0,0,0-.45-1l-2.07-2.16a1.68,1.68,0,0,1-.4-2.12l2.66-3.3a1.7,1.7,0,0,1,2.22,0l2.32,1.57a1.43,1.43,0,0,0,1.19.27,14.77,14.77,0,0,1,1.88-1,.87.87,0,0,0,.5-.68V99.62a1.51,1.51,0,0,1,1.46-1.4l3.72-.31A1.62,1.62,0,0,1,451,99.09l.76,3.55a1.46,1.46,0,0,0,1,.76c.43.12.86.25,1.27.41a1.63,1.63,0,0,0,1.2.08l2.68-2.65a1.67,1.67,0,0,1,2.19.26l2.53,2.13a1.72,1.72,0,0,1,.67,2.1L461.21,109a1.3,1.3,0,0,0,.21,1,14,14,0,0,1,.83,1.58,1.27,1.27,0,0,0,1,.65l3.18.08a1.65,1.65,0,0,1,1.64,1.33l.44,4.12a1.49,1.49,0,0,1-1.23,1.58l-3.35.66a.92.92,0,0,0-.66.57,14,14,0,0,1-.65,2.21,1.38,1.38,0,0,0,.45,1l2.07,2.16a1.68,1.68,0,0,1,.4,2.13l-2.66,3.29c-.43.54-1.38.52-2.22,0l-2.32-1.57a1.43,1.43,0,0,0-1.19-.27,13.54,13.54,0,0,1-1.88,1,.88.88,0,0,0-.49.68V135a1.51,1.51,0,0,1-1.45,1.41l-3.72.31ZM444,129.61a3.51,3.51,0,0,1,1.16.22,9.69,9.69,0,0,0,1.19.38,2.34,2.34,0,0,1,1.71,1.52l.76,3.54a.63.63,0,0,0,.66.41l3.72-.32c.31,0,.54-.23.54-.41v-3.76a1.87,1.87,0,0,1,1.09-1.59,12.62,12.62,0,0,0,1.74-.93,2.29,2.29,0,0,1,2.29.28l2.32,1.57a1.12,1.12,0,0,0,.89.24l2.66-3.29a1,1,0,0,0-.35-.8l-2.07-2.16a2.22,2.22,0,0,1-.66-2.1,13.6,13.6,0,0,0,.6-2.07,1.89,1.89,0,0,1,1.45-1.34l3.34-.66a.52.52,0,0,0,.44-.49l-.45-4.12c0-.2-.32-.43-.67-.44l-3.18-.08a2.23,2.23,0,0,1-1.89-1.24,12.89,12.89,0,0,0-.77-1.47,2.18,2.18,0,0,1-.21-2.08l2.06-3.23a1.14,1.14,0,0,0-.47-.79l-2.54-2.14a1,1,0,0,0-.84-.31l-2.68,2.65a2.3,2.3,0,0,1-2.25.15,11.64,11.64,0,0,0-1.18-.39,2.29,2.29,0,0,1-1.71-1.51L450,99.3a.64.64,0,0,0-.66-.4l-3.72.32c-.31,0-.54.23-.54.4v3.76A1.86,1.86,0,0,1,444,105a13.23,13.23,0,0,0-1.74.93,2.27,2.27,0,0,1-2.28-.28l-2.33-1.57a1.07,1.07,0,0,0-.89-.24l-2.65,3.29a1,1,0,0,0,.34.8l2.07,2.16a2.23,2.23,0,0,1,.67,2.1,12.72,12.72,0,0,0-.6,2.06,1.88,1.88,0,0,1-1.45,1.34l-3.35.67a.52.52,0,0,0-.43.49l.44,4.12c0,.2.32.43.67.44l3.19.08a2.21,2.21,0,0,1,1.88,1.24,13.78,13.78,0,0,0,.78,1.47,2.15,2.15,0,0,1,.2,2.08l-2.06,3.22a1.12,1.12,0,0,0,.48.8l2.53,2.14a1,1,0,0,0,.84.31L443,130A1.54,1.54,0,0,1,444,129.61Zm5.58-3.7A8.81,8.81,0,0,1,441,118a8.52,8.52,0,0,1,1.88-6.35,8.18,8.18,0,0,1,5.65-3,8.78,8.78,0,0,1,9.35,7.86,8.49,8.49,0,0,1-1.88,6.36,8.16,8.16,0,0,1-5.65,3C450.09,125.9,449.86,125.91,449.62,125.91Zm-.4-16.24-.62,0a7.16,7.16,0,0,0-5,2.6,7.51,7.51,0,0,0-1.65,5.61,7.76,7.76,0,0,0,8.27,7,7.16,7.16,0,0,0,5-2.6,7.47,7.47,0,0,0,1.66-5.61A7.81,7.81,0,0,0,449.22,109.67Z" style="fill:#ebebeb"></path></g><g id="freepik--gear--inject-69"><path d="M432.41,166.82a1.27,1.27,0,0,1-1.25-1l-.54-2.48A.88.88,0,0,0,430,163c-.31-.09-.61-.18-.91-.29a1.19,1.19,0,0,0-.7-.08l-1.85,1.84a1.31,1.31,0,0,1-1.73-.17l-1.77-1.5a1.33,1.33,0,0,1-.5-1.66l1.44-2.25a.94.94,0,0,0-.16-.56,12,12,0,0,1-.59-1.12.71.71,0,0,0-.56-.36l-2.22-.06a1.3,1.3,0,0,1-1.3-1.06l-.3-2.88a1.19,1.19,0,0,1,1-1.27l2.33-.46a.52.52,0,0,0,.35-.28,9.72,9.72,0,0,1,.46-1.57,1,1,0,0,0-.28-.58l-1.45-1.51a1.31,1.31,0,0,1-.29-1.68l1.86-2.3a1.31,1.31,0,0,1,1.75,0l1.62,1.09a1,1,0,0,0,.68.19,8.79,8.79,0,0,1,1.32-.71.47.47,0,0,0,.26-.34v-2.63a1.22,1.22,0,0,1,1.16-1.13l2.6-.22a1.3,1.3,0,0,1,1.36,1l.53,2.48a.91.91,0,0,0,.59.42c.31.08.61.18.91.29a1.13,1.13,0,0,0,.69.07l1.85-1.83a1.31,1.31,0,0,1,1.74.17l1.77,1.49a1.35,1.35,0,0,1,.5,1.66l-1.44,2.26a1,1,0,0,0,.15.55,10,10,0,0,1,.59,1.12.74.74,0,0,0,.57.37l2.22.06a1.29,1.29,0,0,1,1.29,1.06l.31,2.88a1.19,1.19,0,0,1-1,1.26l-2.34.47a.49.49,0,0,0-.34.27,10.61,10.61,0,0,1-.46,1.58,1,1,0,0,0,.28.57l1.45,1.51a1.33,1.33,0,0,1,.29,1.68l-1.86,2.31a1.32,1.32,0,0,1-1.75,0L438.53,162a.9.9,0,0,0-.67-.18,10.48,10.48,0,0,1-1.33.71.45.45,0,0,0-.25.33v2.63a1.19,1.19,0,0,1-1.15,1.13l-2.6.22Zm-3.79-5.24a2.48,2.48,0,0,1,.86.16,7.81,7.81,0,0,0,.82.26,1.81,1.81,0,0,1,1.3,1.17l.54,2.48a.28.28,0,0,0,.29.16l2.61-.22c.15,0,.23-.1.23-.13v-2.63a1.45,1.45,0,0,1,.85-1.25,8.6,8.6,0,0,0,1.2-.64,1.72,1.72,0,0,1,1.76.2l1.62,1.1a.74.74,0,0,0,.48.15l1.8-2.25h0a1.94,1.94,0,0,0-.23-.37l-1.45-1.51a1.69,1.69,0,0,1-.5-1.62,8.89,8.89,0,0,0,.42-1.42,1.48,1.48,0,0,1,1.13-1.05l2.34-.47a.22.22,0,0,0,.18-.18l-.31-2.88a.37.37,0,0,0-.33-.16l-2.22-.06a1.71,1.71,0,0,1-1.45-1c-.16-.34-.34-.68-.53-1a1.64,1.64,0,0,1-.15-1.61l1.44-2.25a1.4,1.4,0,0,0-.3-.36l-1.77-1.5a.67.67,0,0,0-.44-.19L437,144.36a1.72,1.72,0,0,1-1.73.13c-.26-.1-.53-.18-.81-.26a1.77,1.77,0,0,1-1.3-1.17l-.54-2.48a.31.31,0,0,0-.3-.16l-2.6.22a.29.29,0,0,0-.24.14v2.62a1.48,1.48,0,0,1-.86,1.26,8,8,0,0,0-1.19.64,1.74,1.74,0,0,1-1.76-.21L424,144a.74.74,0,0,0-.47-.16l-1.8,2.26h0a1.73,1.73,0,0,0,.23.36l1.45,1.51a1.72,1.72,0,0,1,.49,1.62,10.41,10.41,0,0,0-.41,1.42,1.48,1.48,0,0,1-1.13,1.06l-2.34.46c-.11,0-.19.12-.18.18l.31,2.88a.35.35,0,0,0,.32.17l2.23.06a1.71,1.71,0,0,1,1.45,1,8.87,8.87,0,0,0,.53,1,1.64,1.64,0,0,1,.14,1.61l-1.44,2.26a1.86,1.86,0,0,0,.3.36l1.77,1.49a.6.6,0,0,0,.44.19l1.82-1.81A1.2,1.2,0,0,1,428.62,161.58Zm3.9-2.29a6.32,6.32,0,0,1-6.19-5.65,6,6,0,0,1,1.35-4.55,5.82,5.82,0,0,1,4.05-2.12,6.28,6.28,0,0,1,6.69,5.62,6.11,6.11,0,0,1-1.34,4.56,5.9,5.9,0,0,1-4.06,2.12h0Zm-.28-11.35-.42,0a4.88,4.88,0,0,0-3.37,1.76,5.11,5.11,0,0,0-1.12,3.81,5.29,5.29,0,0,0,5.61,4.74,4.88,4.88,0,0,0,3.37-1.76,5.09,5.09,0,0,0,1.12-3.81A5.31,5.31,0,0,0,432.24,147.94Z" style="fill:#ebebeb"></path></g><g id="freepik--gear--inject-69"><path d="M73.18,143.66a1,1,0,0,1-.24,0l-4.07-.8a1.49,1.49,0,0,1-1.14-1.64l.36-3.39a.93.93,0,0,0-.34-.8,13.18,13.18,0,0,1-1.93-1.28,1.43,1.43,0,0,0-1.14.12L62,137.18a1.68,1.68,0,0,1-2.15-.25l-2.36-3.51a1.7,1.7,0,0,1,.7-2.11l2.19-1.76A1.45,1.45,0,0,0,61,128.5a13.78,13.78,0,0,1-.41-2.09.88.88,0,0,0-.5-.68l-3.59-1.11a1.52,1.52,0,0,1-.91-1.81l.8-3.65A1.59,1.59,0,0,1,58,117.87l3.62.32a1.45,1.45,0,0,0,1-.72c.24-.38.5-.75.77-1.1a1.69,1.69,0,0,0,.43-1.12l-1.74-3.34a1.69,1.69,0,0,1,.89-2l2.8-1.79a1.74,1.74,0,0,1,2.2,0L70.49,111a1.28,1.28,0,0,0,1,.1,17.59,17.59,0,0,1,1.76-.33,1.21,1.21,0,0,0,.91-.76l1-3A1.64,1.64,0,0,1,77,105.82l4.07.8a1.49,1.49,0,0,1,1.14,1.64l-.36,3.39a1,1,0,0,0,.34.81,12.85,12.85,0,0,1,1.93,1.27,1.43,1.43,0,0,0,1.14-.12l2.67-1.34a1.69,1.69,0,0,1,2.15.25L92.42,116c.39.58.08,1.48-.7,2.11l-2.18,1.76a1.43,1.43,0,0,0-.62,1,13.55,13.55,0,0,1,.41,2.09.88.88,0,0,0,.5.68l3.59,1.12a1.49,1.49,0,0,1,.91,1.8l-.8,3.65a1.62,1.62,0,0,1-1.64,1.29l-3.62-.32a1.45,1.45,0,0,0-1,.73,11.89,11.89,0,0,1-.77,1.09,1.69,1.69,0,0,0-.43,1.12l1.74,3.35a1.67,1.67,0,0,1-.89,2l-2.79,1.79a1.73,1.73,0,0,1-2.21,0l-2.47-2.92a1.33,1.33,0,0,0-1-.1,13.46,13.46,0,0,1-1.75.33,1.25,1.25,0,0,0-.92.76l-1,3A1.71,1.71,0,0,1,73.18,143.66Zm-7.7-9a1.56,1.56,0,0,1,1,.28,11.84,11.84,0,0,0,1.79,1.19,1.87,1.87,0,0,1,.85,1.78l-.35,3.4a.5.5,0,0,0,.34.55l4.07.8c.18,0,.49-.18.61-.52l1-3a2.2,2.2,0,0,1,1.74-1.43,12.67,12.67,0,0,0,1.63-.31,2.18,2.18,0,0,1,2,.42l2.48,2.92a1.1,1.1,0,0,0,.9-.21l2.79-1.79c.42-.27.57-.63.54-.72l-1.73-3.34a2.27,2.27,0,0,1,.52-2.19c.26-.33.49-.67.72-1a2.3,2.3,0,0,1,2-1.18l3.61.31a.62.62,0,0,0,.58-.51l.8-3.64a.55.55,0,0,0-.22-.64l-3.6-1.12a1.87,1.87,0,0,1-1.2-1.52,11.85,11.85,0,0,0-.37-1.94,2.26,2.26,0,0,1,1-2.09l2.18-1.76a1.13,1.13,0,0,0,.5-.78l-2.36-3.51a1,1,0,0,0-.87.1l-2.68,1.34a2.26,2.26,0,0,1-2.2,0,11.84,11.84,0,0,0-1.79-1.19,1.89,1.89,0,0,1-.85-1.78l.36-3.39a.53.53,0,0,0-.34-.56l-4.07-.8c-.18,0-.5.18-.62.52l-1,3a2.2,2.2,0,0,1-1.74,1.43,14.65,14.65,0,0,0-1.63.31,2.16,2.16,0,0,1-2-.42l-2.47-2.92a1.1,1.1,0,0,0-.9.21l-2.8,1.79c-.42.27-.57.63-.54.72l1.74,3.34a2.3,2.3,0,0,1-.53,2.19c-.25.33-.49.67-.71,1a2.37,2.37,0,0,1-2,1.19L58,118.87a.63.63,0,0,0-.58.51l-.8,3.65a.53.53,0,0,0,.23.63h0l3.59,1.12a1.87,1.87,0,0,1,1.2,1.52,13,13,0,0,0,.37,1.94,2.26,2.26,0,0,1-1,2.09l-2.18,1.76a1.08,1.08,0,0,0-.49.78l2.35,3.51a1,1,0,0,0,.87-.1L64.24,135A2.87,2.87,0,0,1,65.48,134.65Zm9.38-1.48a9.18,9.18,0,0,1-1.71-.17,8.49,8.49,0,0,1-5.51-3.68,8.15,8.15,0,0,1-1.15-6.27,8.78,8.78,0,0,1,10.28-6.6,8.49,8.49,0,0,1,5.51,3.68,8.15,8.15,0,0,1,1.15,6.27A8.75,8.75,0,0,1,74.86,133.17Zm.2-15.88a7.74,7.74,0,0,0-7.59,6h0a7.12,7.12,0,0,0,1,5.52A7.5,7.5,0,0,0,73.35,132a7.79,7.79,0,0,0,9.11-5.83,7.14,7.14,0,0,0-1-5.51,7.48,7.48,0,0,0-4.87-3.25A7.79,7.79,0,0,0,75.06,117.29Z" style="fill:#ebebeb"></path></g><g id="freepik--gear--inject-69"><path d="M44.27,112.56h-.19L41.23,112a1.19,1.19,0,0,1-.91-1.31l.24-2.38a.54.54,0,0,0-.15-.41A9.51,9.51,0,0,1,39,107a1,1,0,0,0-.64.1l-1.87.93a1.31,1.31,0,0,1-1.69-.22l-1.65-2.46a1.32,1.32,0,0,1,.52-1.67l1.53-1.23a.93.93,0,0,0,.37-.58,9.2,9.2,0,0,1-.28-1.48.44.44,0,0,0-.25-.34l-2.51-.78a1.21,1.21,0,0,1-.73-1.44l.56-2.55a1.26,1.26,0,0,1,1.3-1l2.53.22A.9.9,0,0,0,36.8,94c.17-.26.35-.52.55-.77a1.14,1.14,0,0,0,.27-.65l-1.2-2.31a1.31,1.31,0,0,1,.68-1.6l1.95-1.25a1.33,1.33,0,0,1,1.73,0l1.73,2a.91.91,0,0,0,.58,0,10,10,0,0,1,1.24-.23.75.75,0,0,0,.52-.43l.71-2.11a1.3,1.3,0,0,1,1.4-.92l2.84.56a1.2,1.2,0,0,1,.92,1.31l-.25,2.37a.49.49,0,0,0,.16.41,10.85,10.85,0,0,1,1.37.91,1,1,0,0,0,.63-.1l1.87-.94a1.32,1.32,0,0,1,1.69.22L57.84,93a1.32,1.32,0,0,1-.52,1.67L55.8,95.93a.93.93,0,0,0-.38.59A10.06,10.06,0,0,1,55.71,98a.47.47,0,0,0,.24.35l2.51.78a1.21,1.21,0,0,1,.74,1.44l-.56,2.55a1.28,1.28,0,0,1-1.31,1l-2.53-.23a1.09,1.09,0,0,0-.57.44q-.25.41-.54.78a1.17,1.17,0,0,0-.28.64l1.2,2.32a1.3,1.3,0,0,1-.67,1.6L52,110.93a1.34,1.34,0,0,1-1.74,0l-1.73-2a1,1,0,0,0-.57,0,10.6,10.6,0,0,1-1.25.24.71.71,0,0,0-.51.43l-.72,2.11A1.33,1.33,0,0,1,44.27,112.56ZM38.89,106a1.22,1.22,0,0,1,.76.23,9.17,9.17,0,0,0,1.24.82,1.47,1.47,0,0,1,.67,1.39l-.25,2.37a.22.22,0,0,0,.12.23l2.84.55a.45.45,0,0,0,.26-.26l.71-2.1a1.73,1.73,0,0,1,1.34-1.11,6.92,6.92,0,0,0,1.12-.21,1.65,1.65,0,0,1,1.59.35l1.73,2s.19,0,.43-.18l1.95-1.25a.68.68,0,0,0,.31-.37l-1.2-2.27a1.73,1.73,0,0,1,.39-1.69c.17-.23.33-.46.49-.7a1.76,1.76,0,0,1,1.5-.9l2.53.22a.29.29,0,0,0,.24-.24l.56-2.55a.29.29,0,0,0-.06-.27l-2.51-.77a1.48,1.48,0,0,1-.94-1.19,8.45,8.45,0,0,0-.26-1.33,1.76,1.76,0,0,1,.72-1.63l1.52-1.22a.76.76,0,0,0,.29-.41l-1.62-2.39a1.58,1.58,0,0,0-.41.12l-1.87.93a1.69,1.69,0,0,1-1.7,0,9,9,0,0,0-1.23-.81A1.5,1.5,0,0,1,49.47,90l.25-2.38a.22.22,0,0,0-.11-.22l-2.85-.56a.4.4,0,0,0-.25.26l-.72,2.11a1.7,1.7,0,0,1-1.34,1.1,11,11,0,0,0-1.12.21,1.63,1.63,0,0,1-1.58-.34l-1.73-2a1.92,1.92,0,0,0-.43.18l-2,1.25a.72.72,0,0,0-.32.36l1.2,2.28a1.74,1.74,0,0,1-.38,1.69,6.76,6.76,0,0,0-.49.7,1.81,1.81,0,0,1-1.51.9l-2.52-.22a.31.31,0,0,0-.25.23L32.81,98a.3.3,0,0,0,.06.27l2.51.78a1.45,1.45,0,0,1,.94,1.19,8.68,8.68,0,0,0,.26,1.33,1.71,1.71,0,0,1-.72,1.62l-1.52,1.23a.73.73,0,0,0-.29.41l1.62,2.38a1.8,1.8,0,0,0,.42-.11l1.87-.94A2.23,2.23,0,0,1,38.89,106Zm6.56-.73a6.38,6.38,0,0,1-1.22-.12,6.08,6.08,0,0,1-3.95-2.64,5.85,5.85,0,0,1-.83-4.5h0a6.28,6.28,0,0,1,7.36-4.72,6.11,6.11,0,0,1,3.95,2.63,5.86,5.86,0,0,1,.82,4.5A6.26,6.26,0,0,1,45.45,105.24Zm-5-7a4.89,4.89,0,0,0,.68,3.74,5.17,5.17,0,0,0,3.31,2.2,5.3,5.3,0,0,0,6.19-4,4.88,4.88,0,0,0-.69-3.74,5.07,5.07,0,0,0-3.31-2.2,5.27,5.27,0,0,0-6.18,4Z" style="fill:#ebebeb"></path></g><g id="freepik--gear--inject-69"><path d="M459.88,271.34a1.25,1.25,0,0,1-1.17-.9l-.71-2.39a.57.57,0,0,0-.34-.36,9.76,9.76,0,0,1-1.68-.32,1.06,1.06,0,0,0-.6.36L454,269.39a1.37,1.37,0,0,1-1.7.46l-2.58-1.71a1.36,1.36,0,0,1-.16-1.8l1-1.8a1,1,0,0,0,.13-.74,9.6,9.6,0,0,1-.87-1.31c-.08-.15-.28-.28-.4-.25l-2.74.26a1.25,1.25,0,0,1-1.27-1.07l-.49-2.7a1.32,1.32,0,0,1,.84-1.48l2.53-.8a1,1,0,0,0,.4-.67,8.13,8.13,0,0,1,.21-1,1.19,1.19,0,0,0,0-.75l-2.11-1.75a1.36,1.36,0,0,1,0-1.79l1.38-2a1.37,1.37,0,0,1,1.66-.67l2.49,1.27a.89.89,0,0,0,.59-.21,9.9,9.9,0,0,1,1.1-.72.83.83,0,0,0,.34-.65l-.16-2.33a1.35,1.35,0,0,1,1-1.43l3-.6a1.22,1.22,0,0,1,1.38.88l.72,2.39a.53.53,0,0,0,.34.35,9.78,9.78,0,0,1,1.68.33,1,1,0,0,0,.6-.36l1.43-1.66a1.36,1.36,0,0,1,1.69-.46l2.59,1.71a1.36,1.36,0,0,1,.16,1.8l-1,1.8a1,1,0,0,0-.13.74,9.6,9.6,0,0,1,.87,1.31.5.5,0,0,0,.4.25l2.74-.26a1.23,1.23,0,0,1,1.27,1.07l.48,2.7a1.31,1.31,0,0,1-.83,1.48L470,258a1,1,0,0,0-.4.67c-.06.33-.13.65-.21,1a1.21,1.21,0,0,0,0,.76l2.1,1.75a1.34,1.34,0,0,1,0,1.79l-1.38,2a1.37,1.37,0,0,1-1.66.67l-2.49-1.27a.89.89,0,0,0-.59.21,11.56,11.56,0,0,1-1.1.72.78.78,0,0,0-.34.65l.16,2.33a1.33,1.33,0,0,1-1,1.42l-3,.61Zm-3.9-5a.84.84,0,0,1,.27,0,8.86,8.86,0,0,0,1.52.29,1.53,1.53,0,0,1,1.19,1.06l.71,2.39c0,.12.15.22.23.19l3-.61a.41.41,0,0,0,.16-.38l-.16-2.32a1.76,1.76,0,0,1,.84-1.58,10.17,10.17,0,0,0,1-.66,1.72,1.72,0,0,1,1.65-.31l2.49,1.28a1.35,1.35,0,0,0,.38-.35l1.38-2a.73.73,0,0,0,.16-.49l-2.08-1.73a1.81,1.81,0,0,1-.31-1.77c.08-.29.14-.58.2-.87a1.84,1.84,0,0,1,1.07-1.46l2.53-.8a.33.33,0,0,0,.16-.36l-.49-2.69a.33.33,0,0,0-.18-.25h0l-2.74.25a1.49,1.49,0,0,1-1.37-.76,9.33,9.33,0,0,0-.79-1.18,1.79,1.79,0,0,1,0-1.83l1-1.8a.77.77,0,0,0,.12-.53l-2.54-1.67a1.28,1.28,0,0,0-.38.29l-1.44,1.65a1.74,1.74,0,0,1-1.62.67,8.86,8.86,0,0,0-1.52-.29,1.51,1.51,0,0,1-1.19-1.06l-.71-2.39c0-.12-.16-.21-.23-.19l-3,.61a.41.41,0,0,0-.16.38l.16,2.32a1.77,1.77,0,0,1-.84,1.58,9.73,9.73,0,0,0-1,.66,1.67,1.67,0,0,1-1.64.3l-2.49-1.27a1.35,1.35,0,0,0-.38.35l-1.38,2a.73.73,0,0,0-.16.49l2.08,1.73a1.81,1.81,0,0,1,.31,1.77,8.44,8.44,0,0,0-.2.87,1.84,1.84,0,0,1-1.07,1.46l-2.53.8a.33.33,0,0,0-.16.36l.48,2.69a.29.29,0,0,0,.19.25h0l2.74-.26a1.54,1.54,0,0,1,1.37.76,8.77,8.77,0,0,0,.79,1.19,1.79,1.79,0,0,1,0,1.83l-1,1.8a.77.77,0,0,0-.12.53l2.54,1.67a1.28,1.28,0,0,0,.38-.29l1.44-1.65A1.94,1.94,0,0,1,456,266.37Zm2.93-2.76a6.26,6.26,0,0,1-3.54-1.09,6.08,6.08,0,0,1-2.6-4h0A6.55,6.55,0,0,1,458,251a6.34,6.34,0,0,1,4.86.95,6.11,6.11,0,0,1,2.6,4,6.62,6.62,0,0,1-6.51,7.64Zm-5.16-5.27a5.09,5.09,0,0,0,2.18,3.35,5.33,5.33,0,0,0,4.1.8,5.56,5.56,0,0,0,4.41-6.34,5.13,5.13,0,0,0-2.18-3.35,5.33,5.33,0,0,0-4.1-.8,5.56,5.56,0,0,0-4.41,6.34Z" style="fill:#ebebeb"></path></g><g id="freepik--gear--inject-69"><path d="M53.86,276.17a1.21,1.21,0,0,1-1.15-1l-.53-2.32a.5.5,0,0,0-.28-.34,8.88,8.88,0,0,1-1.59-.42,1.13,1.13,0,0,0-.57.3l-1.47,1.49a1.31,1.31,0,0,1-1.67.34l-2.35-1.79a1.33,1.33,0,0,1,0-1.76l1-1.65a.93.93,0,0,0,.16-.68,9.27,9.27,0,0,1-.74-1.3c-.07-.13-.29-.27-.35-.25l-2.62.07a1.24,1.24,0,0,1-1.17-1.12l-.29-2.6a1.27,1.27,0,0,1,.91-1.38l2.46-.61a.85.85,0,0,0,.4-.6c.08-.3.17-.61.27-.91a1.09,1.09,0,0,0,0-.7l-1.88-1.8a1.3,1.3,0,0,1,.12-1.73L44,253.63a1.36,1.36,0,0,1,1.65-.54L48,254.47a1,1,0,0,0,.56-.17,9.13,9.13,0,0,1,1.1-.62.75.75,0,0,0,.35-.58v-2.22a1.3,1.3,0,0,1,1-1.33l2.87-.38a1.18,1.18,0,0,1,1.29.94l.53,2.32a.5.5,0,0,0,.28.34,10.62,10.62,0,0,1,1.59.42,1.18,1.18,0,0,0,.57-.3l1.47-1.49a1.33,1.33,0,0,1,1.67-.34l2.35,1.8a1.31,1.31,0,0,1,0,1.75l-1,1.65a1,1,0,0,0-.16.68,9.27,9.27,0,0,1,.74,1.3.49.49,0,0,0,.35.25l2.62-.07a1.21,1.21,0,0,1,1.17,1.12l.29,2.6a1.27,1.27,0,0,1-.91,1.38l-2.46.61a.88.88,0,0,0-.4.6c-.08.31-.16.61-.27.91a1.18,1.18,0,0,0,0,.7l1.89,1.8a1.31,1.31,0,0,1-.13,1.73l-1.44,1.82a1.34,1.34,0,0,1-1.65.54l-2.29-1.37a.92.92,0,0,0-.55.17,10.1,10.1,0,0,1-1.11.62.73.73,0,0,0-.35.57v2.23a1.3,1.3,0,0,1-1,1.32l-2.87.39Zm-3.55-5a1,1,0,0,1,.33.05,9.15,9.15,0,0,0,1.43.38,1.45,1.45,0,0,1,1.08,1.1l.53,2.32a.27.27,0,0,0,.19.18l2.87-.39a.38.38,0,0,0,.16-.33v-2.22a1.73,1.73,0,0,1,.92-1.48c.33-.17.67-.36,1-.56a1.65,1.65,0,0,1,1.61-.19l2.29,1.38s.18-.1.36-.32l1.44-1.81a.67.67,0,0,0,.18-.44L62.81,267a1.73,1.73,0,0,1-.18-1.72,7.84,7.84,0,0,0,.23-.83A1.81,1.81,0,0,1,64,263.16l2.46-.61a.31.31,0,0,0,.16-.3l-.3-2.59a.29.29,0,0,0-.14-.24l-2.62.07a1.52,1.52,0,0,1-1.28-.82,9.17,9.17,0,0,0-.67-1.18,1.71,1.71,0,0,1,.15-1.76l1.05-1.66a.68.68,0,0,0,.14-.48l-2.3-1.73a1.56,1.56,0,0,0-.36.24l-1.47,1.49a1.7,1.7,0,0,1-1.61.54,8.58,8.58,0,0,0-1.43-.37,1.46,1.46,0,0,1-1.08-1.1l-.53-2.33c0-.11-.13-.18-.19-.17l-2.87.38a.38.38,0,0,0-.16.33v2.23a1.72,1.72,0,0,1-.91,1.47,8.91,8.91,0,0,0-1,.57,1.67,1.67,0,0,1-1.61.18L45.15,254a2,2,0,0,0-.35.31l-1.45,1.81a.73.73,0,0,0-.18.44L45,258.28a1.75,1.75,0,0,1,.18,1.73,7.66,7.66,0,0,0-.23.82,1.77,1.77,0,0,1-1.14,1.33l-2.46.61a.29.29,0,0,0-.16.3l.3,2.6a.25.25,0,0,0,.14.23l2.63-.07a1.48,1.48,0,0,1,1.27.82,9.17,9.17,0,0,0,.67,1.18,1.73,1.73,0,0,1-.15,1.77L45,271.25a.76.76,0,0,0-.14.48l2.31,1.73a2,2,0,0,0,.35-.24L49,271.73A2,2,0,0,1,50.31,271.14Zm3.45-2.39A6,6,0,0,1,50,267.47a5.86,5.86,0,0,1-2.24-4,6.3,6.3,0,0,1,5.44-6.85,6.11,6.11,0,0,1,4.59,1.22,5.86,5.86,0,0,1,2.24,4,6.34,6.34,0,0,1-6.3,6.91Zm.33-11.18a5.81,5.81,0,0,0-.72.05,5.28,5.28,0,0,0-4.58,5.75,4.87,4.87,0,0,0,1.85,3.31,5.12,5.12,0,0,0,3.84,1A5.28,5.28,0,0,0,59.06,262a4.89,4.89,0,0,0-1.85-3.31A5.06,5.06,0,0,0,54.09,257.57Z" style="fill:#ebebeb"></path></g></g></g><g id="freepik--Circle--inject-69"><circle id="freepik--circle--inject-69" cx="249.6" cy="70.43" r="47.27" style="fill:#7C61B3;opacity:0.1"></circle></g><g id="freepik--character-3--inject-69"><g id="freepik--Character--inject-69"><g id="freepik--Bottom--inject-69"><g id="freepik--bottom--inject-69"><polygon points="345.27 369.62 341.94 367.81 345.32 367 345.27 369.62" style="fill:#263238"></polygon><path d="M311.35,374.67s40.75-16.72,41.15-14a4,4,0,0,1-.08,1.63c0-.05.08-.09.11-.14l-.93,5a11.9,11.9,0,0,1-6.33,2.4c0-.25,0-1.76.05-2.62a20.27,20.27,0,0,0-3.6,1.76c-2.63,1.61-4.4,4.54-7.25,7.92-2.08,2.45-5.67,3.5-10.94,4.06-5.68.6-10.61-.67-12-2.25C310.5,377.23,311.14,375,311.35,374.67Z" style="fill:#263238"></path><path d="M312.5,373.77c.4-.39,1.88-1.92,3.88-3.58,1.75-1.44,3.79-3.28,6-4.74a22.23,22.23,0,0,0,3-2.28c.72-.73,1.42-1.49,2.08-2.28a43.23,43.23,0,0,0,4.66-7.15,11.48,11.48,0,0,0,1.43-6.16,142.14,142.14,0,0,0-1.08-18l19.31.32c-.67,3-1.06,8.25-1.48,11.73-.64,5.28-.83,6.46,1,11.82.55,1.58,1.4,3.11,1.42,4.79,0,2.71-2.18,5-4.6,6.22-2,1-4.28,1.41-6.23,2.52a19.62,19.62,0,0,0-5.17,4.74c-1.41,1.69-2.57,3.7-4.51,4.85a17.68,17.68,0,0,1-6.61,2,34.72,34.72,0,0,1-8.79.12C312.62,378.26,309.58,376.62,312.5,373.77Z" style="fill:#ffbda7"></path><path d="M328.45,366.05a7.54,7.54,0,0,0-6.2-.8c-3,2.24-5.57,4.25-7.35,5.64-2.16,1.7-4,3.25-4,5.29,0,3.19,12.28,4.6,19.27,1.83a8.58,8.58,0,0,0,5-4.1S334.28,369.41,328.45,366.05Zm23.81-10.59c-1-2.09-1.34-3.15-1.34-3.15-2.43,1.22-6.81,7.07-5.13,13.19a9.11,9.11,0,0,0,6.18-3.9A5.76,5.76,0,0,0,352.26,355.46Z" style="fill:#37474f"></path><path d="M388.34,363.58c-1.06,1.87.7,8.68.64,13.59-.05,4.45-.91,12.25.63,16.59,1.84,5.13,5.38,11,11.3,5.91,3.66-3.18,5.67-7.18,5.93-13.6.17-4.46-1.86-10.54-3.61-15.93-2-6.3-2.86-9.68-2.86-9.68Z" style="fill:#263238"></path><path d="M399.54,330.27c.87,10.35,0,17.68.17,24.32a46.69,46.69,0,0,0,1.32,8.93c1,4.2,2.77,10,3.5,12.76,1,3.8,1.79,6.19.64,10.55a5.5,5.5,0,0,1-.39,1c-1.71,3.62-6.31,6.49-7.83,6.13a2.62,2.62,0,0,1-2.62,1,3.16,3.16,0,0,1-.5-.1l-.51-.18a5.15,5.15,0,0,1-2.65-3.16c-.1-.29-.19-.59-.28-.93-1.31-5.29-.66-8.78-.65-10.87,0-2.42-.24-5.48-.62-9.36s-1.8-16.06-3.4-21.85c-1.17-4-2.63-9.1-4.18-14.49Z" style="fill:#ffbda7"></path><path d="M405.66,381.23c-3.79-1.48-14.56-1.26-16.06,4,.16,4.93.27,8.28,3.56,12.44,4.38,5.54,9.53-.73,11.44-4.66S406.27,383.87,405.66,381.23Z" style="fill:#37474f"></path><path d="M358.44,257.72l-2.87,23.65s1.86,9.2.18,23.84-4.82,42.66-4.82,42.66a20.7,20.7,0,0,1-8.71,3.16,14.77,14.77,0,0,1-9.51-2s-5.7-58.05-5.82-74.63-2.44-58,2.6-82.56l51.08-.64c5.24,9.41,9.66,16.5,11.27,42.2s2,38,2.27,41.42,2.79,9.47,5.47,26,2.74,57,2.74,57-1.17,2.79-7.51,3.72c-5.85.86-9.4-1-9.4-1s-13.86-49.95-16.6-59.87c-3.88-14-10.37-42.93-10.37-42.93" style="fill:#37474f"></path><path d="M336.43,215.58c2.55,6.83,9.3,9.91,13.31,10.84l6.49,31-.66,24,2.87-23.65-6.5-34.84S342.64,222,336.43,215.58ZM374.34,212c.68,2.69,1.29,5.39,1.94,8.09s1.28,5.41,2,8.14a54.62,54.62,0,0,0-.61-8.39c-.38-2.78-.93-5.53-1.58-8.26a75.47,75.47,0,0,0-2.46-8,39,39,0,0,0-3.66-7.59c.86,2.68,1.63,5.34,2.35,8S373.7,209.27,374.34,212Zm4.68-5.21c.91,1.61,1.78,3.25,2.66,4.89l2.59,5a22.55,22.55,0,0,0-1.33-5.56,36.33,36.33,0,0,0-2.38-5.19,40.73,40.73,0,0,0-3.12-4.77,30.61,30.61,0,0,0-3.82-4.23c.84,1.72,1.76,3.35,2.67,5S378.13,205.11,379,206.75Zm7.29,119q1.1,4.14,2.22,8.25-2.47-12.93-5.29-25.79c-1.85-8.57-3.81-17.15-5.77-25.66s-3.38-17.17-4.83-25.81-2.83-17.31-4.36-26c.86,8.74,1.81,17.46,3,26.16s2.57,17.39,4.47,26,4,17.08,6.15,25.6q2.13,8.63,4.41,17.22m-51-72.13,1.26-22.89c-1.12,7.57-2,15.17-2.63,22.79s-1.23,15.23-1.2,23c.32,7.69,1,15.28,1.64,22.9s1.5,15.22,2.45,22.81q-.41-11.47-1.08-22.91l-.66-11.44c-.22-3.8-.48-7.63-.58-11.41s.11-7.58.25-11.39S335.09,257.42,335.28,253.61Z" style="fill:#263238"></path></g></g><g id="freepik--Top--inject-69"><g id="freepik--Arm--inject-69"><path d="M301,114.67c2.72,7.67,1.63,6.91,6.94,12.54C319.06,139.06,332.42,153,332.42,153c10.69,2.67,9.78-10.64,15.09-18.1-6.33-5.14-8.63-4.86-16.37-11.84-4.88-4.41-13-11.67-13-11.67s-4.27-8-7.88-15.26c-4.56-9.2-5.82-10.43-4.94-15.25a38.54,38.54,0,0,0,.3-6.73c0-3.28-.49-6.53-.64-9.8a1.39,1.39,0,0,0-.14-.67c-.47-.77-1.48-.07-1.92.35a4,4,0,0,0-.95,2.29c-.18,1.07-.31,2.14-.48,3.23-.05.28-.1,1.28-.5,1.32s-.5-1-.55-1.25a31.42,31.42,0,0,1-.4-3.2c-.24-2.68-.49-5.36-.73-8a3.63,3.63,0,0,0-.21-1.09c-.56-1.37-2.17-1-2.63.64a6.54,6.54,0,0,0-.23,1.31,35.89,35.89,0,0,0-.09,4.15,11.92,11.92,0,0,1,0,1.69c0,.11-.08.91-.33.62a.49.49,0,0,1-.1-.26c-.27-1.81-.36-3.64-.5-5.46-.07-.92-.15-1.85-.28-2.76-.08-.62-.06-1.77-.6-2.19a1.1,1.1,0,0,0-.64-.2,2,2,0,0,0-1.75,1,5.42,5.42,0,0,0-.41,1.17,7.52,7.52,0,0,0-.12,1.24c-.56-1-1.91-.53-2.33.38-.63,1.37-.48,2.81-.34,4.59.16,2,.25,3,.61,6,.07.59-.15,1-.35.34a14.84,14.84,0,0,1-.38-1.63c-.13-.69-.15-.92-.29-1.66-.19-1-.32-2.84-.71-3.2s-1-.06-1.34.27a2.18,2.18,0,0,0-.44,1,15,15,0,0,0,.32,6.69q.56,2.65,1.13,5.3c.7,3.24,1.45,6.61,3.5,9.22a14.71,14.71,0,0,1,1.86,3.18c1.55,3.87,2.76,8.33,4.19,12.95C297.92,105.06,298.89,108.84,301,114.67Z" style="fill:#ffbda7"></path><path d="M298.39,72.77c-3,.15-3.77,4.29-4,6.64,0,.47.31,1.84.66.76.12-.37.23-.75.36-1.13a16.48,16.48,0,0,1,.85-2.1,8.12,8.12,0,0,1,2.4-3c.28-.21.63-.52.49-.85a.61.61,0,0,0-.57-.29Z" style="fill:#f0997a"></path><path d="M291.43,58.23A57.5,57.5,0,0,1,292.05,69a36.83,36.83,0,0,1-.62-10.73Z" style="fill:#f0997a"></path><path d="M344.34,131.94a143.62,143.62,0,0,1-14.5-10.89c-4.37-3.61-11.24-9.88-11.24-9.88L307.89,91.39s-.76,2.4-5.45,4.43-7.13.7-7.13.7,2.52,10.28,5,17.69,2,7.69,7.64,14,20.41,21.87,24.22,25.53,8.64,11.48,8.61,11.25S344.34,131.94,344.34,131.94Z" style="fill:#37474f"></path></g><g id="freepik--Head--inject-69"><path d="M357,110a7,7,0,0,1,2.59-5.42c1.44-1.07,3.29-1.37,4.91-2.14A9.32,9.32,0,0,0,369,97.73c1-2.37,1.86-4.51,4.21-5.79,4.54-2.48,11.5-.88,13.16,4.46.55,1.76.54,3.84,1.84,5.15a9.38,9.38,0,0,0,3.32,1.68c3.41,1.41,6.1,4.8,6,8.48-.1,3.4-2.43,6.59-1.89,10a26.72,26.72,0,0,0,1.52,4.26c1.22,3.52.24,8-3,9.85-1.6.9-3.46,1.08-5.18,1.66-2.14.72-3,2.07-4.52,3.61a6.48,6.48,0,0,1-5.21,1.88c-3.14-.33-5.66-2.91-8.78-3.38-2.15-.32-4.36.41-6.51.1a10,10,0,0,1-3.44-1.29,7.56,7.56,0,0,1-3.64-3.72c-1-2.68.59-5.52,1.3-8.27a13.91,13.91,0,0,0,.14-6.32c-.28-1.3.21-2.55-.22-3.89A16.26,16.26,0,0,1,357,110Z" style="fill:#263238"></path><path d="M378.7,93a7.8,7.8,0,0,1,2.65,4.16,10.18,10.18,0,0,1,.59,5.44,4.6,4.6,0,0,1-3.65,3.7c-2.08.23-3.92-1.41-5-3.23a9,9,0,0,1-.51-8.11C373.86,92.78,376.48,91.48,378.7,93Z" style="fill:#7C61B3"></path><path d="M339.18,90.33c0-.16,0-.32,0-.48a5.71,5.71,0,0,1,2.63-4.06c1.62-1,3.09-.82,4.86-1.05A7.59,7.59,0,0,0,351,82.28a7.82,7.82,0,0,1,7.62-2.15c4.39,1.22,3.34,3,7,4.35,3.3,1.17,5.79.12,8.76,3a8.55,8.55,0,0,1,2.14,7.24c2.25,1.43,5.16,9.82.37,18.9-2.46,4.67-5.36,6.82-9,10.67l-3.47,0c-1.09-3-4-2.45-6.74-3.16-1.49-.7-2.26-2.55-3.73-3.17-.67-.29-1.35-.12-2-.55a4.2,4.2,0,0,1-1.51-1.7,15.55,15.55,0,0,1-1.08-3.77,3.21,3.21,0,0,0-.44-1.16,3.09,3.09,0,0,0-1.48-1c-1.84-.7-3.78-1.06-5.62-1.75a8.51,8.51,0,0,1-4.58-3.49,8,8,0,0,1-.87-3.8,6.12,6.12,0,0,1,.48-2.71c.58-1.24,1.78-2.13,2.25-3.42S339.14,91.79,339.18,90.33Z" style="fill:#263238"></path><path d="M347.51,134.27a4.72,4.72,0,0,1,2.27-1.07c.87-.1,1-1,1.15-2.55l.18-2.36a10.49,10.49,0,0,1-7.67-2.56c-3.14-2.84-4.76-8.39-4.35-14.34.27-3.94,1.32-5.77,1.28-6.66-.25-5.3.18-6.24,1.46-9,2.29-4.32,7.9-5.82,10.23-1.1,7-5.26,14.5,1.94,14.07,10.1-1.05,6.72,1,7.09,2.33,7.16,2-4.17,6.36-4,8.15-1.29,1.61,2.49,1.5,6.27-1.75,9.66s-6.6,1.09-6.64.41c0,0-.66,9.07-.76,10.88s.23,3.83,2.47,4.61h0a9.21,9.21,0,0,1,2.81,1.3,6.85,6.85,0,0,0-.87.74c-.82.93-2,1.74-5.12,5.25-7.71,2.75-16.93,6.6-22.4,9.74a99.39,99.39,0,0,1-3.29-11.91A43.48,43.48,0,0,1,347.51,134.27Z" style="fill:#ffbda7"></path><path d="M373,118.78a1.61,1.61,0,1,1-1.59-1.61A1.6,1.6,0,0,1,373,118.78Z" style="fill:#7C61B3"></path><path d="M354.23,116.39l-5.17,1.28a2.62,2.62,0,0,0,3.18,2A2.77,2.77,0,0,0,354.23,116.39Z" style="fill:#b16668"></path><path d="M353.84,117.54a2.93,2.93,0,0,0-3.08,2.09,2.56,2.56,0,0,0,1.48.07,2.74,2.74,0,0,0,2-2.09A2.66,2.66,0,0,0,353.84,117.54Z" style="fill:#f0997a"></path><path d="M342.28,102.64l4-1a2,2,0,0,0-2.41-1.51A2.14,2.14,0,0,0,342.28,102.64Z" style="fill:#263238"></path><path d="M360.24,104.52l-3.77-1.73a2,2,0,0,1,2.69-1.06A2.17,2.17,0,0,1,360.24,104.52Z" style="fill:#263238"></path><path d="M345.91,106.15a1.71,1.71,0,0,1-1.66,1.72,1.6,1.6,0,0,1-1.69-1.59,1.73,1.73,0,0,1,1.65-1.72A1.62,1.62,0,0,1,345.91,106.15Z" style="fill:#263238"></path><path d="M358.39,107.3a1.75,1.75,0,0,1-1.69,1.75,1.64,1.64,0,0,1-1.72-1.62,1.74,1.74,0,0,1,1.68-1.75A1.63,1.63,0,0,1,358.39,107.3Z" style="fill:#263238"></path><path d="M351.11,128.29c6.52-.23,12.38-2.89,14.22-6.75a8.6,8.6,0,0,1-4.51,6.08,26.16,26.16,0,0,1-9.86,2.57Z" style="fill:#f0997a"></path><polygon points="344.72 112.16 350.55 114.73 352.03 103.58 344.72 112.16" style="fill:#f0997a"></polygon></g><g id="freepik--Chest--inject-69"><path d="M329.59,180.21a37.52,37.52,0,0,0,.06-8.91s-3.83-5.26-4.1-10.93c-.28-6,2.14-10.14,8.09-16.32a74,74,0,0,1,11.3-9.76l4.74-.24s-2.83,6-.83,9.66c9.73-1.19,17.9-5.78,21.19-8.86l8.2,1.22s5.43,10.17,3.85,18.87c-.86,4.71-2.64,12.7-4.08,19a25.77,25.77,0,0,0,2.51,18.1l.83,1.51c2.57,4.74,6.08,13.5,6.08,13.5s-13.35,6.75-35.87,5.08S327,206.63,327,206.63s1.52-15.48,1.8-18.72S329.35,183.06,329.59,180.21Z" style="fill:#fff"></path><path d="M367.59,168.68a12.52,12.52,0,0,1-10.72,8.39,13.23,13.23,0,0,1-12.19-5.19s1.78,9.06,12.54,7.37S367.59,168.68,367.59,168.68Z" style="fill:#e0e0e0"></path><path d="M367.54,133.32s-7.61,16.84-10.24,25.88-1.16,16.25,0,32.56c.89,12.56,2.43,31.51,2.43,31.51s23.83-.54,31.07-11.23c-2-6.24-8.24-20.75-9.85-24.72s-.87-7.5,1.6-16.74,6.52-14.32,6.34-21.14A19,19,0,0,0,382.16,136Z" style="fill:#455a64"></path><path d="M349.92,134s-16,15.69-17,31.81-1.69,51.41-1.69,51.41-1.77-.8-5.22-4.51c.66-7.32,2.94-36.24,2.23-39.55s-8.66-10.77-1.53-21.58,17.66-19.67,17.66-19.67c1.85,1.24,4.81.86,6.36.23A3.72,3.72,0,0,1,349.92,134Z" style="fill:#455a64"></path><path d="M343,137.08c-1,.94-2,1.88-3,2.86-2,1.94-3.92,3.9-5.81,5.92-.94,1-1.87,2-2.78,3.09-.45.53-.9,1.06-1.33,1.62a5.41,5.41,0,0,0-1.12,1.92,6,6,0,0,0-.11,2.23,12.38,12.38,0,0,0,.41,2.1,24.6,24.6,0,0,0,1.36,3.71,16.64,16.64,0,0,0-2.69,4.49,3.53,3.53,0,0,0-.17.73,4.4,4.4,0,0,0,0,.74c0,.47.12.91.2,1.36.16.89.34,1.77.54,2.65.78,3.5,1.72,7,2.72,10.4-.72-3.51-1.46-7-2.12-10.52-.16-.88-.31-1.76-.44-2.64-.05-.44-.12-.88-.14-1.3a2.43,2.43,0,0,1,.14-1.17,17.12,17.12,0,0,1,2.76-4.41l.16-.21-.11-.25a25.46,25.46,0,0,1-1.35-3.82,13.55,13.55,0,0,1-.38-2,5.4,5.4,0,0,1,.06-1.89,4.68,4.68,0,0,1,.95-1.63c.41-.53.84-1.07,1.29-1.59.88-1,1.8-2.08,2.71-3.11,1.84-2.05,3.69-4.1,5.59-6.1s3.77-4,5.79-5.92C345,135.22,344,136.15,343,137.08Z" style="fill:#37474f"></path><path d="M371.58,158.22l0-2.2,0-4.38c-.11-5.85-.23-11.69-.48-17.55-.2,5.85-.27,11.72-.33,17.58v7.14a1.48,1.48,0,0,1-.05.41,2.4,2.4,0,0,1-.44.79,10.11,10.11,0,0,1-3.46,2.27,28.86,28.86,0,0,1-4.06,1.46l-.47.14.18.45a49.28,49.28,0,0,1,1.88,5.4c.12.46.24.92.32,1.37a3.74,3.74,0,0,1,.06,1.27l0,.12-.08.16-1.11,2.28c-.83,1.73-1.69,3.46-2.5,5.2l-2.46,5.24,2.79-5.07c.93-1.69,1.82-3.4,2.73-5.1l.68-1.28.33-.64.26-.48.07-.22a4.11,4.11,0,0,0,0-1.6,13.29,13.29,0,0,0-.3-1.45,49.74,49.74,0,0,0-1.69-5.09,29.94,29.94,0,0,0,3.76-1.32,10.26,10.26,0,0,0,3.79-2.54,3.13,3.13,0,0,0,.59-1.13,2.22,2.22,0,0,0,.08-.68Z" style="fill:#37474f"></path></g><g id="freepik--arm--inject-69"><path d="M382.16,136c7.81,1.31,10.95,6,14.47,16.14,4.8,13.8,9,27.4,10,34.33l-18.45-4.88-10-19.73S374.32,146,382.16,136Z" style="fill:#37474f"></path><polygon points="345.51 214.23 385.28 207.77 390.9 156.67 351.13 163.13 345.51 214.23" style="fill:#7C61B3"></polygon><polygon points="345.51 214.23 385.28 207.77 390.9 156.67 351.13 163.13 345.51 214.23" style="opacity:0.2"></polygon><polygon points="346.97 211.98 385.06 205.78 390.31 158.13 352.21 164.33 346.97 211.98" style="fill:#fafafa"></polygon><path d="M351.75,197.52l3.53-32.18,35.62-8.68-5.62,51.12L347.62,217a1,1,0,0,1-1.22-1.1l1.8-16.3a1.8,1.8,0,0,1,1.3-1.49Z" style="fill:#7C61B3"></path><path d="M406.35,186.47c.07,5.23-.73,6.11-6.44,9.1s-20.17,7.64-31.63,8.85c-7.47.78-11.33.47-14.24-.66a12,12,0,0,1-7.6-13.09c-1.28-3.6.61-4.1,2.16-4.51l-.26,2.37s3.38,2.25,6.47,2.27.19-3.58-.39-5.76-.47-3.44,1.31-4.49c1,0,1.35,1.37,4.5,4.45,2.38,2.33,4.27,6.62,7.93,6.09,2.88-.42,19.89-8.48,19.89-8.48l.72-6.55Z" style="fill:#ffbda7"></path><path d="M406.61,186.47c.25,3.26-.32,5-1.81,6.39s-7.67,4.4-11.47,5.76-13.78,4.15-15.69,4.52c2-3.12,1.42-9.23-.29-12s-3.92-2.05-3.92-2.05l14.64-6.74,1-8.95Z" style="fill:#37474f"></path></g></g></g></g><g id="freepik--character-2--inject-69"><g id="freepik--character--inject-69"><g id="freepik--bottom--inject-69"><path d="M195.85,411.14c-.75-.16-.91,2.11-.76,3.11s2.9,4.59,8.3,6.35,13.12,1.57,16.41,1.79,8.09,2.36,11.25,3.39c7.32,2.38,11.82.13,14-1.5a3.44,3.44,0,0,0,1.1-2.6c.17-2.18,0-2.64-.23-2.65Z" style="fill:#37474f"></path><path d="M245.64,412a39.92,39.92,0,0,1,.7,4.62c.17,1.87.27,4.25-1.13,5.57-2.36,2.23-5,2.6-7.74,2.6a23.19,23.19,0,0,1-9.47-2.09c-2.75-1.24-4.95-2.31-8.05-2.47-3.39-.19-8.1-.1-11.43-.82a27.27,27.27,0,0,1-8.16-2.73,10.49,10.49,0,0,1-4.55-5.12,7.71,7.71,0,0,1,5.15-7.1,17.27,17.27,0,0,1,8.69-.79c3.18.39,5.54,1.09,8.39,1.22a13.91,13.91,0,0,0,5.77-.69,5.62,5.62,0,0,0,2.07-2.32c.57-.94.84-1.82,1.76-1.81,0,0,14.91,1.66,16.25,1.89,1.54.26,1.11,2.33,1.05,3.45s0,1-.07,2a13.69,13.69,0,0,0,.46,3.24C245.44,411.05,245.55,411.51,245.64,412Z" style="fill:#455a64"></path><path d="M215.64,404a2.12,2.12,0,0,0-.67-.34c-1.27-.34-2.41.81-3.07,1.75a7.92,7.92,0,0,0-.9,1.85,4.56,4.56,0,0,0-.34,2.52c0,.22.17.48.39.45s.28-.26.32-.46a9.82,9.82,0,0,1,1.37-3.29,4,4,0,0,1,.93-1.14,3.57,3.57,0,0,1,1.39-.66c.2-.05,1.07,0,.9-.35a.47.47,0,0,0-.15-.19A1.77,1.77,0,0,0,215.64,404Z" style="fill:#fafafa"></path><path d="M219.38,404.47a2.54,2.54,0,0,0-1.77.28,3.61,3.61,0,0,0-1.22,1.59c-.62,1.21-1.21,3-.6,4.34.2.42.56.26.74-.08a6,6,0,0,0,.31-1.33,12.23,12.23,0,0,1,1.14-2.78,4.34,4.34,0,0,1,.65-1,2,2,0,0,1,.64-.47,1.45,1.45,0,0,1,.37-.11H220c0-.18-.18-.31-.35-.37Z" style="fill:#fafafa"></path><path d="M223.27,403.83a2.41,2.41,0,0,0-1.18.62,3.26,3.26,0,0,0-.65,1.09,12.38,12.38,0,0,0-.84,2.78,3.58,3.58,0,0,0,.25,2c.12.25.36.5.62.42s.3-.52.35-.76c.1-.45.11-.93.17-1.38a8.06,8.06,0,0,1,2.08-4.48.25.25,0,0,0,.1-.22c0-.12-.18-.15-.31-.15S223.47,403.79,223.27,403.83Z" style="fill:#fafafa"></path><path d="M211.62,403.94c-1.31-.17-4.29,1.31-6.1,5.2a23.3,23.3,0,0,0-1.62,9.07,13.09,13.09,0,0,1-6.93-4.28,7.89,7.89,0,0,1-1.57-2.52,8.13,8.13,0,0,1,2.07-6c2.18-2.07,5.3-3.24,10-3,5.26.31,5.56,1.76,5.56,1.76Z" style="fill:#fafafa"></path><path d="M247.09,378.93s-2.87,20.79-3.3,25.06c-.19,1.82-4.2,3.82-9.77,3.26-3.91-.38-6.33-2.74-6.68-4.77s-1.5-26.51-1.5-26.51Z" style="fill:#ffa8a7"></path><polygon points="300.65 378.18 295.84 356.36 274.58 364.15 289.01 388.92 300.65 378.18" style="fill:#ffa8a7"></polygon><path d="M308,384.11c.45,1.85,0,3.77-.26,5.62s-.52,3.68-.66,5.55a22.31,22.31,0,0,1-.47,3.39,20.56,20.56,0,0,0-.16,4.08c0,1.43-.07,2.86-.09,4.29a8,8,0,0,0,0,1.83c.15.59-9.05,5.86-12.76,7.89a6.9,6.9,0,0,1-.67.32c-3.39,1.33-6-1.41-6-1.41a10.24,10.24,0,0,1,2.5-11.27s.47,0,.38-3.6c0-2.59,0-5.21-.28-7.78-.15-1.63-.82-2.15-1.44-3.65s-1.63-2.83-1.57-4.37a11.1,11.1,0,0,1,1.66-4.11c1.35-2.32,4.33-4.24,6.72-5.31,1.37-.61,3.59-1.28,5-.43.75.46,1.11,1.34,1.65,2a10.08,10.08,0,0,0,2.41,2,9.42,9.42,0,0,1,3.94,4.49A3.6,3.6,0,0,1,308,384.11Z" style="fill:#455a64"></path><path d="M289.39,404.4a11.94,11.94,0,0,0-1.19,1.74h0a13,13,0,0,0-1.29,9.53c-6.49-.59-8.2-4.34-8.2-4.34s-.37-3.24,3.37-5.6a9.17,9.17,0,0,1,1.42-.74s0,0,.06,0A9.52,9.52,0,0,1,289.39,404.4Z" style="fill:#fafafa"></path><path d="M309.5,385.13c1.71.66,1.27,5.35.18,9.87s-1.66,6.09-1.11,9.84.86,5.44-.67,6.82-13.71,7.06-13.71,7.06a44.76,44.76,0,0,0,2.72-14.1c.32-8.33.87-13.69,4.73-17.47S309.5,385.13,309.5,385.13Z" style="fill:#263238"></path><path d="M278.68,411.32s4.74,3.82,10.17,4.44,5.71-1.47,6.28-7.91.79-15.35,3.33-19.27,6.8-5.67,8.48-5.27c.35-.18,2,1.07,2.56,1.82a9.27,9.27,0,0,0-7.12,2.85c-3.4,3.32-4,10.33-4.17,16.7s-.44,13.75-5.51,14.52-10.46-1.4-13.83-4.2C276.94,413.39,278.68,411.32,278.68,411.32Z" style="fill:#37474f"></path><path d="M289.78,402a1.83,1.83,0,0,0-.76,1.18,3.67,3.67,0,0,0,1.85,3.35c.68.39,1.27.23.17-1.11A6.92,6.92,0,0,1,289.78,402Z" style="fill:#fafafa"></path><path d="M289.67,397.55a1.55,1.55,0,0,0-.46,1c0,.59,1,3,2.24,3.51s.55-.78,0-1.39A23.44,23.44,0,0,1,289.67,397.55Z" style="fill:#fafafa"></path><path d="M289.37,392.61a1.09,1.09,0,0,0-.56.8c0,.52,2.42,2.36,3.19,2.3s.95-.31,0-.95S289.37,392.61,289.37,392.61Z" style="fill:#fafafa"></path><path d="M282.48,378.09s-4.24-6.91-17.51-28.61c-3.76-6.15-5.83-10.66-6.74-15.34s-3.81-14.69-3.81-14.69l-3.11,23.05c1,6.13.69,16.44-1.49,28.88-2.49,14.22-4.33,22.78-4.33,22.78-1.28,1-6.57,1.82-9.88,1.55-8.27-.68-9.77-4-9.77-4s-2.07-19.27-3-30c-2.21-25.1-2.86-31-4.1-59.95-1.05-24.48,1.28-39.63,8.15-61.56,17.91,8.12,42.23,6.59,52.26-2.35,0,0,9.91,17.81,9.59,35.11-.34,18.11-1.46,53.22-1.46,53.22a84.07,84.07,0,0,1,6.47,19.15c2,9.16,2.68,12.8,4.93,23.83C288.43,368.89,282.48,378.09,282.48,378.09Z" style="fill:#37474f"></path><path d="M284.27,371.07c-1.3-2.44-2.59-4.88-3.9-7.31-2.45-4.56-4.91-9.11-7.23-13.73-4.69-9.3-8.79-18.95-11.23-29.11a79.19,79.19,0,0,1-1.57-8.35c-.2-1.49-.34-3-.44-4.48-.15-2.35,0-4.74-.3-7.08,0-.31-.58-1-.77-.4-.76,2.55-.53,5.46-.41,8.09a72.59,72.59,0,0,0,.84,8.07,85.54,85.54,0,0,0,4,15.5c3.67,10.24,8.79,19.89,13.95,29.45q2.19,4.06,4.4,8.11c1,1.85,2,3.76,3,5.61.39-.4.82-.83,1.31-1.26C285.41,373.13,284.82,372.1,284.27,371.07Z" style="fill:#263238"></path><path d="M230.3,269.07a110.64,110.64,0,0,1,5.75-25.67l-1.4-.38A97.48,97.48,0,0,0,228.28,269c-4.41-1-5.23-7.26-5.09-11a51.24,51.24,0,0,1,.82-6.64c.27-1.52.65-3.08.92-4.65-1.26,4.39-2.34,8.57-3.22,12.66,0,.17,0,.33,0,.5.22,4,2,9.63,6.4,10.65-.92,8.44-1.16,17-1.34,25.45q-.72,33.9,1.43,67.78c.66,10.36,1.26,20.84,2.62,31.16a18.78,18.78,0,0,0,2,.48c-.67-9-1.64-18-2.25-27q-1.15-16.73-1.6-33.48-.47-17.42-.19-34.84C228.91,289.66,229.13,279.32,230.3,269.07Z" style="fill:#263238"></path><path d="M226.87,240.19l1.46-8.72S240,238,254,237.18a44.64,44.64,0,0,0,23.13-8.08l2,8.74s-5.92,8.68-25.29,8.4S226.87,240.19,226.87,240.19Z" style="fill:#263238"></path><path d="M254.42,319.45l4.91-38.58s6.41.43,16.31-8.25c0,0-1.58,7.36-12.21,12.42l-6,33.12.77,16Z" style="fill:#263238"></path></g><g id="freepik--top--inject-69"><path d="M282.5,139c-2.13-14.67-2.61-13.84-5.93-22.23-2.61-6.61-9.23-19.57-13.34-28.24,0,0-1.3-3.18-1.83-4.81-.47-1.43-.77-2.88-1.13-4.34s-.86-3-1.27-4.47c-.83-3.05-1.59-6.12-2.13-9.23a15.92,15.92,0,0,0-1.05-4.11c-.45-.94-1.71-1.78-2.09-.32a9.62,9.62,0,0,0,0,3.3c.14,1.49.21,3,.24,4.47,0,.18-.09.43-.26.38a.31.31,0,0,1-.14-.16,12.59,12.59,0,0,1-.79-2.41c-.58-2.28-1.21-4.54-2-6.77a5.42,5.42,0,0,0-.72-1.54,2.08,2.08,0,0,0-1.49-1,1.28,1.28,0,0,0-1.36.91,2.23,2.23,0,0,0-1-1.51A1.58,1.58,0,0,0,243.69,58a4.36,4.36,0,0,0,.06,1.35c.55,3.48,1.52,6.85,2.24,10.29.1.47-.23.76-.51.26-1.33-2.31-1.9-5-3.26-7.27-.54-.92-1.07-1.93-2.24-1.85-1.4.09-1.46,1.29-1.17,2.41a116.67,116.67,0,0,0,3.55,11.26c.29.76,2,5.11-.24,3.39-.87-.67-1.7-1.36-2.57-2a4,4,0,0,0-2.26-1c-.62,0-1.84.19-1.64,1.06a1.39,1.39,0,0,0,.36.59c2.15,2.47,4,5.16,6.29,7.55a40,40,0,0,0,4.87,4.66c3.71,2.71,3.88,4.43,6.41,12.75,3.23,11.22,7.42,26.12,7.42,26.12l2,74.31s13.68,11.54,17.57,5.91c4.22-6.09,4.18-17.94,4.21-19.66C285,176.65,283.55,146.16,282.5,139Z" style="fill:#ffa8a7"></path><path d="M249.7,67.3c-.17-1-.45-1.9-.66-2.87s-.41-1.88-.67-2.81-.48-2.45-1.11-3.1c-.08-.1,0,.32,0,.42.21,1.26,1.09,4.61,1.33,5.68.43,1.91.81,4,1.39,5.92,0,.16.19.06.2-.07A16.46,16.46,0,0,0,249.7,67.3Z" style="fill:#f28f8f"></path><path d="M238.22,140.73s-6.57,5.51-6.24,6.25,2.56,2,2.56,2Z" style="fill:#f28f8f"></path><path d="M253.61,127.09c-3.59.71-9.53.83-14.52,9.2-.86,1.44-.92,4-1.71,5.91-.88,2.13-2.52,4.31-3.07,6.06-2.83,9.14-1.16,13.43,0,15.38.94,1.58,7.43,3.87,11.18,3.79,4.68-.11,15.31-2,21.68-7.86,7.49-6.87,11.67-17.65,6.93-23.66C267.45,127.44,257.17,126.38,253.61,127.09Z" style="fill:#ffa8a7"></path><path d="M234.61,164c1.31,1.29,5.61,2.88,9,3.32l1.52-2.49a42.28,42.28,0,0,1-5.7.2A16.31,16.31,0,0,1,234.61,164Z" style="fill:#f28f8f"></path><path d="M249.79,121.51a6,6,0,0,0-.95,0,11,11,0,0,0-5,1.6,13.77,13.77,0,0,0-5.11,5.91,7.9,7.9,0,0,0-.82,4.87,8.26,8.26,0,0,0,2.86,4.26,4.81,4.81,0,0,1,2.08-4.75,8.05,8.05,0,0,0,3.71,10.4,6.18,6.18,0,0,0-1.52,3.65,2.1,2.1,0,0,0,.17,1.14c.5.95,1.6.45,2.25,0,.45-.32.83-.7,1.27-1a4.76,4.76,0,0,1,4.08-1.26,4.08,4.08,0,0,1,3.24,3.12,8.36,8.36,0,0,1-2.56,6.37c-1.59,1.41-3.2,2-4.57,1.72a3.68,3.68,0,0,1-2.52-2s-2.8,7.38,2.66,11.53c0,0,6.27,3.69,13,3.09.75-.07,2.39-1.79,3-2.25,1.26-.87,2.55-1.71,3.83-2.55a36.1,36.1,0,0,0,5.58-4.82c3.9-3.78,6.08-8.93,7.27-14.31.88-4-.81-9.15-.81-9.15-.69-2.09-.86-4-2-6a18.26,18.26,0,0,0-4.42-4.93,25.74,25.74,0,0,0-13.09-5.21,25.36,25.36,0,0,0-8.15.39,11.14,11.14,0,0,1-1.87.4A12.5,12.5,0,0,1,249.79,121.51Z" style="fill:#263238"></path><path d="M281,186.72c-1.44-5.48-3.23-9.07-13.64-8.6l-1.45,0c-3.71.53-8.26,1-18.42,1.57s-13.68,2.09-16.24,2.81c0,0-3.43,1.25-6.91,20.49-.93,5.15-1.49,30.3-1.49,30.3s9.93,9.65,31.62,9.37c18.52-.24,24.46-7.8,26.26-10.6,0,0-.68-5.33-.88-12.89C281.14,208.2,285.19,202.72,281,186.72Z" style="fill:#7C61B3"></path><path d="M218.07,265.61a32.48,32.48,0,0,0-1,5.4,13.27,13.27,0,0,1-2.28,4.83c-1,1.29-2.37,2.24-3.38,3.54-2.14,2.74-2.94,6.31-3.89,9.71a5.05,5.05,0,0,1-1.83,3.14,1.29,1.29,0,0,1-1.41.16,1.66,1.66,0,0,1-.51-1.14,11.2,11.2,0,0,1-.59,1.89,3,3,0,0,1-.95,1.34,1.23,1.23,0,0,1-1.51,0,2.15,2.15,0,0,1-.46-1.46c-.33,1.34-.77,2.84-2,3.46a1.5,1.5,0,0,1-1.3.12c-.67-.3-.59-.95-.59-1.56,0-.88-.08-1.76-.1-2.64a35,35,0,0,1,.23-5.12c.11-.84.23-1.84.38-2.69.42-2.24.71-3.81.71-3.81s-1.15,2.78-1.77,5a42.11,42.11,0,0,1-1.59,5.42c-.32.74-1.87,2.33-2.37.94a1.75,1.75,0,0,1,0-.56l.12-4.4a21.19,21.19,0,0,1,.2-2.87,23.26,23.26,0,0,1,.77-2.95c.47-1.51.94-3,1.44-4.5a17.93,17.93,0,0,1,2-4.45c1.3-1.95,2.92-3.69,4.35-5.54,1.56-2,2.17-2.1,4.26-6.32,2.61-5.27,2.91-7.92,4.62-14,1.59-5.6,2.81-11.08,4.1-15.45,0,0,2.27-17.63,3.45-25,1.43-9,2.06-20.63,14.29-23.63a5.26,5.26,0,0,1,2.91,2.68c2,3.76,2.56,10.6,1.83,16.31-1.72,13.57-3.69,27.22-5.24,34.61a46.09,46.09,0,0,1-3.45,9.43C224.22,252.26,218.88,263.35,218.07,265.61Z" style="fill:#ffa8a7"></path><path d="M197.62,280.79l.82-5.23a67,67,0,0,0-2.15,7,20.35,20.35,0,0,0-.39,3C196.53,283.43,197.62,280.79,197.62,280.79Z" style="fill:#f28f8f"></path><path d="M202,277.76c-.08-.22-.25,0-.23.13.36,2.5-.62,5-1,7.44a36.57,36.57,0,0,0-.59,3.89,21.28,21.28,0,0,0,0,3.91c0,.2.14-.21.16-.42.15-1.7.13-2.44.32-3.65.22-1.37.42-2.74.7-4.1C201.77,282.65,202.81,280.1,202,277.76Z" style="fill:#f28f8f"></path><path d="M205.74,278.12c0-.24-.25,0-.24.13a14.56,14.56,0,0,1-.76,4.74A30.32,30.32,0,0,0,204,287a23.54,23.54,0,0,0-.2,4.11c0,.22.14-.21.17-.43.24-1.78.26-2.55.51-3.81.29-1.44.56-2.87.91-4.29A9.84,9.84,0,0,0,205.74,278.12Z" style="fill:#f28f8f"></path><path d="M276.81,131s5.28,1.2,6.65,12.18c1,7.79-1.7,17.9-.53,27.79.59,5,1.64,9.66.91,14.7a30.6,30.6,0,0,1-5.79,14q-.57-3.72-1.15-7.45a14.31,14.31,0,0,1-2.87,9.61,31.31,31.31,0,0,1-7.43,7,38.33,38.33,0,0,0-1.23-7.37,11,11,0,0,0-1.51,5.43,12.26,12.26,0,0,1-4.63-5.37l-.51,3.86a1,1,0,0,1-.2.57c-.27.29-.74.18-1.11,0-4.37-1.7-14.25-15.16-15.29-25.76a52.73,52.73,0,0,0-6.79,1.17s-.65-2.56,2.73-6.92,5.6-6,8-17.57c2,3.76,8.13,7.6,12.46,4S276.81,131,276.81,131Z" style="fill:#263238"></path></g></g></g><g id="freepik--character-1--inject-69"><g id="freepik--Chartacter--inject-69"><g id="freepik--bottom--inject-69"><path d="M149.35,357.55l-.8-15.08,17.1,2.06s-.7,8.13-1.19,12.72c-.29,2.71,3.1,8,3.1,8s-8.29,3.88-12.53,2.13-6.23-7.24-6.11-8.41S149.35,357.55,149.35,357.55Z" style="fill:#b16668"></path><path d="M189.4,383.22c.27,0,.57,2.82-.94,3.95-1.75,1.31-6.83,3.38-13.39,2.33s-10.06-3.08-12.61-5.25-6.15-5.21-9.1-5.94c-2.75-.67-5.71-2-6.57-2.8s-.6-4.39-.6-4.39Z" style="fill:#263238"></path><path d="M149.35,357.52a1.05,1.05,0,0,0-1,.8c-.24,1-.57,3.81-1.07,5.41a27.08,27.08,0,0,0-1,8.62c.29,1.84,4.76,3.28,7.61,4.42a37.17,37.17,0,0,1,9.13,5.87c3,2.5,9.43,5.23,13.72,5.36,5.09.16,10.87-1.17,12.26-3.32,1.73-2.67,3-5.8-4.38-9.34-1.4-.68-6.3-3.64-8-4.71-4.52-2.89-7.67-5.51-9.62-10.41a2,2,0,0,0-2.48-1.69c-1.27.12-6.3.58-7.46,1.05s-2.49.88-2.51,2.09a3.85,3.85,0,0,0,.24,1.25c.08.25.14.58-.1.72s-.51,0-.7-.21a18.3,18.3,0,0,1-1.94-2.36,7.13,7.13,0,0,0-1.15-1.18,12.47,12.47,0,0,1-1.26-.83C149.22,358.61,149.35,358.09,149.35,357.52Z" style="fill:#455a64"></path><path d="M163,382.64a48.84,48.84,0,0,0-4-3h0s8.67,5.37,12.34,3.21c2.36-1.38,1.33-3.22,1.3-3.79s8.27-4.31,10.52-4.48h0c.61.35,1.12.63,1.44.79,7.41,3.54,6.11,6.67,4.38,9.34-1.39,2.15-5.6,3.72-12.17,3.47C172.52,388,166,385.14,163,382.64Z" style="fill:#37474f"></path><path d="M172.09,377.34c4.62,1.93,2.59,2.67,1.27,2.8s-9-4.48-13.71-8.22c-4.88-3.9-7.89-8.08-9.7-9.52-.67-.53-1.4-1.18-2-1.79.16-1,.29-1.84.41-2.3a1.05,1.05,0,0,1,1-.79c0,.57-.13,1.09.31,1.54a12.47,12.47,0,0,0,1.26.83,7.13,7.13,0,0,1,1.15,1.18,18.3,18.3,0,0,0,1.94,2.36C157.92,368.44,167.48,375.41,172.09,377.34Z" style="fill:#37474f"></path><path d="M173.06,379.48a.44.44,0,0,1-.29-.11.41.41,0,0,1-.05-.61c1.38-1.47,7.79-4.83,11.22-4.35a.44.44,0,1,1-.13.86c-3.21-.44-9.3,2.9-10.39,4.06A.43.43,0,0,1,173.06,379.48Z" style="fill:#263238"></path><path d="M169.06,377a.44.44,0,0,1-.29-.11.41.41,0,0,1,0-.61c1.38-1.46,7.78-4.82,11.22-4.34a.44.44,0,0,1,.39.49.47.47,0,0,1-.53.37c-3.2-.44-9.29,2.9-10.39,4.06A.45.45,0,0,1,169.06,377Z" style="fill:#263238"></path><path d="M165.05,374.59a.48.48,0,0,1-.29-.11.41.41,0,0,1,0-.61c1.38-1.47,7.79-4.83,11.22-4.34a.44.44,0,0,1,.4.49.47.47,0,0,1-.53.37c-3.21-.45-9.3,2.89-10.39,4.06A.47.47,0,0,1,165.05,374.59Z" style="fill:#263238"></path><path d="M161.36,371.9a.53.53,0,0,1-.29-.1.42.42,0,0,1,0-.62c1.38-1.46,7.8-4.82,11.22-4.34a.45.45,0,0,1,.4.49.47.47,0,0,1-.53.37c-3.2-.44-9.3,2.9-10.39,4.06A.47.47,0,0,1,161.36,371.9Z" style="fill:#263238"></path><path d="M157.75,369.22a.48.48,0,0,1-.29-.11.42.42,0,0,1-.05-.61c1.9-2.08,8.58-4.84,12-4.35a.43.43,0,0,1,.39.49.46.46,0,0,1-.53.36c-3.09-.43-9.48,2.23-11.17,4.07A.51.51,0,0,1,157.75,369.22Z" style="fill:#263238"></path><path d="M115,363.87l4.69-14-17.32-3.65-1.53,13.7s-2.13,4.8-1.16,6.67,12.47,4.55,13.61,3.43S115,363.87,115,363.87Z" style="fill:#b16668"></path><path d="M111.48,394.75c-.81,4.37-1.92,7.15-4,9.41s-5.49,2.43-8.77,1-7.35-4.27-7.86-8.27,0-6.58,1.23-10.54Z" style="fill:#263238"></path><path d="M100.81,359.93c-1.4-.17-1.46,5.89-3,11.69-1.6,6.21-4,8.43-5.43,13.51-1.58,5.81-1.54,8.55.38,12.61s9.82,9.21,14.53,4.82c3.84-3.57,4.52-8.22,4.92-14.24a136,136,0,0,1,1.48-15.25c.8-4.42,2.37-8.29,1.22-9-.17.64-.36,1.45-.53,2.08s-.56,2.88-1.34,2.75a8,8,0,0,1,.18-1.69,1.87,1.87,0,0,0-.21-1.51,6.54,6.54,0,0,0-2.18-1.31c-1.33-.5-3.74-1.18-5.11-1.56-.68-.18-1.37-.35-2.07-.47a6,6,0,0,0-1.78-.12,1.16,1.16,0,0,0-.83.46,1.87,1.87,0,0,0-.15.67,4,4,0,0,1-.32,1.19c-.07.17-.23.36-.42.28a.4.4,0,0,1-.19-.41c.08-.72.25-1.22.38-2.05.07-.39.2-.9.25-1.29S100.73,360.31,100.81,359.93Z" style="fill:#455a64"></path><path d="M92.93,383.5c-.24.83-1.73,6.38-.1,7.74s3.32-2.81,3.32-2.81,4.57-.35,10.71,3.4c-.44.86.2,4.1,2,3.8s3.3-6.71,3.32-6.8c-.41,5.77-1.17,10.26-4.89,13.73-4.71,4.39-12.61-.76-14.53-4.82s-2-6.8-.38-12.61C92.57,384.55,92.75,384,92.93,383.5Z" style="fill:#37474f"></path><path d="M96.61,388.91c-.29,2.16-2.59,1-2.34-2.1s3-9.95,3.58-15.19c.9-7.2,1.56-11.86,3-11.69a1.7,1.7,0,0,0,0,.22l-.54,3a12.43,12.43,0,0,0-.23,1.27c-.55,4.4-1.19,13-2.09,16.92A62.16,62.16,0,0,0,96.61,388.91Z" style="fill:#37474f"></path><path d="M106.12,391.63a61.28,61.28,0,0,0,2.22-7.33c1-3.9,3.85-11.64,5.3-15.8a9.75,9.75,0,0,0,.78-2.37c.16-.58.33-1.33.49-1.95l0-.12c.82.54.29,3.94-.28,5.68s-1.26,3.6-2,6.1c-1.79,4.91-2.44,12.42-3.57,15.24S105.42,393.66,106.12,391.63Z" style="fill:#37474f"></path><path d="M107,392l-.18-.08a19.18,19.18,0,0,0-10.57-3.05.57.57,0,0,1-.59-.45.43.43,0,0,1,.43-.49,20.18,20.18,0,0,1,11.3,3.26.46.46,0,0,1,.14.66A.48.48,0,0,1,107,392Z" style="fill:#263238"></path><path d="M108.69,387.57a.65.65,0,0,1-.17-.08,23.78,23.78,0,0,0-11.83-3.4.59.59,0,0,1-.58-.46.43.43,0,0,1,.45-.48,24.58,24.58,0,0,1,12.5,3.6.47.47,0,0,1,.18.66A.51.51,0,0,1,108.69,387.57Z" style="fill:#263238"></path><path d="M97.55,379.7a.55.55,0,0,1-.4-.39.42.42,0,0,1,.39-.52c6.44-.68,12.25,3.32,12.5,3.49a.46.46,0,0,1,.14.66.54.54,0,0,1-.72.06s-5.7-3.92-11.69-3.28A.53.53,0,0,1,97.55,379.7Z" style="fill:#263238"></path><path d="M98.4,375.57a.57.57,0,0,1-.4-.38.42.42,0,0,1,.38-.53,18.62,18.62,0,0,1,12.76,3.51.45.45,0,0,1,.1.66.56.56,0,0,1-.73,0,17.78,17.78,0,0,0-11.88-3.26A.58.58,0,0,1,98.4,375.57Z" style="fill:#263238"></path><path d="M99.38,370.94a.59.59,0,0,1-.4-.38.41.41,0,0,1,.37-.53c6.66-.91,12.59,3.46,12.83,3.65a.44.44,0,0,1,.12.66.53.53,0,0,1-.72,0c-.06,0-5.78-4.26-12-3.42A.59.59,0,0,1,99.38,370.94Z" style="fill:#263238"></path><path d="M115.41,210.24c-5.18,34.66-7,84.57-7,84.57-.43,2.63-2.88,10.4-5.32,23.32-2.17,11.51-1.93,35.68-2,37.14,0,0,7.91,6.2,15.7,4.16,0,0,11.43-35.32,16.5-51.27,4.8-15.09,11.41-39.41,11.41-39.41l1.64,25.19S145,304,144.83,311c-.25,8.11,3.68,40.61,3.68,40.61s8.9,5.69,17.24.06c0,0,7.45-46.84,8.37-56.55,1.81-19,4.21-58.23,3.18-81.83Z" style="fill:#455a64"></path><path d="M144.67,268.75l5.7-24.51s9.31-.71,14.35-4.71c0,0-3.46,5.53-12.31,7.15L146.89,269l-.58,25Z" style="fill:#263238"></path></g><g id="freepik--top--inject-69"><g id="freepik--arm--inject-69"><path d="M205,115.46c-1.76,8.12-.76,7.2-5.41,13.59-9.8,13.44-21.54,29.25-21.54,29.25-10.48,4.07-11.27-9.52-17.6-16.39,5.74-6,8.11-6,15.05-14.11,4.38-5.09,11.66-13.49,11.66-13.49s3.29-8.61,6-16.46c3.43-9.91,4.55-11.32,3.05-16.08A40,40,0,0,1,195.07,75c-.42-3.33-.34-6.68-.61-10a1.37,1.37,0,0,1,.06-.7c.37-.84,1.49-.26,2,.11a4.14,4.14,0,0,1,1.26,2.19c.32,1.07.58,2.14.89,3.21.09.28.27,1.29.68,1.28s.38-1.07.4-1.34a32.81,32.81,0,0,0,0-3.29q-.15-4.12-.29-8.24a3.55,3.55,0,0,1,.07-1.13c.39-1.46,2.07-1.27,2.74.31a6.55,6.55,0,0,1,.41,1.3,37,37,0,0,1,.62,4.18,12.25,12.25,0,0,0,.22,1.72c0,.11.2.91.42.58a.6.6,0,0,0,.06-.27c0-1.87-.1-3.73-.2-5.6,0-.94-.08-1.89-.07-2.83,0-.63-.17-1.8.33-2.29a1.09,1.09,0,0,1,.62-.29,2,2,0,0,1,1.91.81,5.94,5.94,0,0,1,.56,1.13,7.42,7.42,0,0,1,.28,1.25c.44-1.07,1.87-.78,2.41.08.82,1.31.84,2.78.93,4.61.1,2.07.14,3.07.16,6.17,0,.61.28,1,.4.3a15.78,15.78,0,0,0,.17-1.7c0-.72,0-1,.09-1.71.06-1,0-2.93.31-3.34s1-.2,1.38.1a2.13,2.13,0,0,1,.57.9,15.39,15.39,0,0,1,.54,6.83c-.15,1.83-.3,3.67-.46,5.51-.29,3.37-.63,6.88-2.36,9.79a14.08,14.08,0,0,0-1.47,3.46c-1.08,4.12-1.73,8.79-2.58,13.66C206.86,105.33,206.36,109.29,205,115.46Z" style="fill:#b16668"></path><path d="M202.23,72.69c3.06-.24,4.37,3.85,4.9,6.21.11.47-.07,1.9-.56.85-.17-.36-.33-.73-.51-1.09a17.5,17.5,0,0,0-1.13-2,8.42,8.42,0,0,0-2.83-2.77c-.31-.17-.7-.44-.6-.79a.59.59,0,0,1,.54-.36Z" style="fill:#9a4a4d"></path><path d="M207.41,57.07A58.91,58.91,0,0,0,208.16,68a37.22,37.22,0,0,0-.75-10.94Z" style="fill:#9a4a4d"></path><path d="M163.3,138.53a148.34,148.34,0,0,0,13.29-12.89c4-4.23,10.11-11.45,10.11-11.45L195,92.77s1.09,2.33,6.09,3.78,7.31-.21,7.31-.21-1.23,10.74-2.77,18.56-1,8-5.95,15.18-17.86,24.76-21.25,29-7.27,12.74-7.27,12.5S163.3,138.53,163.3,138.53Z" style="fill:#37474f"></path></g><g id="freepik--chest--inject-69"><path id="freepik--chest--inject-69" d="M136.38,142.82a105.45,105.45,0,0,0-18.6,6.78s-4.57,9.93-2.53,32.64c.33,3.63,1.15,13.43,1.49,21a117.67,117.67,0,0,1-.39,18.46s9.42,8.48,34.3,7c19.53-1.19,25.51-9.12,25.51-9.12s.29-26.32,0-40.72c-.39-18.9-6-29.89-10.12-33.25l-12.78-2.32Z" style="fill:#f0f0f0"></path><path d="M134.13,142.86v1.27s4.52,11.31,4.59,33.48-.84,53.62-.84,53.62a58,58,0,0,1-25.22-4.81s.76-9.59.67-18.41,1.12-21.83.5-34.59a62,62,0,0,1,4-23.82Z" style="fill:#7C61B3"></path><path d="M153.72,141.85c4.54-.28,5.94-1.12,9.58-3.32a62.13,62.13,0,0,1,12.56,29.25c2.41,17.43,3.12,59.59,3.12,59.59a30.72,30.72,0,0,1-8.39,3s-.49-20.76-1.31-39.89c-1-23.08-2.36-37.61-15.59-47.2Z" style="fill:#7C61B3"></path><path d="M136.16,170.4l.26-.49c-2.25-.93-4.53-1.82-6.81-2.69-.2-6.77-.5-13.8-1-20.52-.18,6.85-.12,14,0,20.88v.33l.32.12c2,.82,4,1.63,6.06,2.4-.44.83-2.54,4.89-2.54,4.89-1,1.87-1.89,3.78-2.85,5.66l.18.17q3.5,3.27,7.1,6.43-3.18-3.42-6.44-6.73C132.19,177.8,134.49,173.48,136.16,170.4Zm39,4.16q-2.31-3.87-4.72-7.69l2.44-3.59.15-.21c-2.18-6.79-6.32-12.81-11.06-18.07a81.87,81.87,0,0,1,8.11,13.34,41.11,41.11,0,0,1,1.78,4.57l-2.47,3.65-.19.28.18.29q2.49,3.87,5,7.67c-1.15,2.9-2.27,5.81-3.32,8.75,1.42-2.86,2.76-5.75,4.07-8.65l.08-.16Z" style="opacity:0.30000000000000004"></path></g><g id="freepik--head--inject-69"><path d="M130.94,103.51s-3.6.18-5.29,2.92-2.72,7.73-.57,13.32c2.36,6.15,7,12.08,8,13.8a4.89,4.89,0,0,0,2.93,2.14l-.52-7.57-.51-5.27s4.09-4,4.29-7.86c.26-4.91-1.76-7.59-1.76-7.59Z" style="fill:#263238"></path><path d="M157.24,111.25a19.34,19.34,0,0,0-7-1.17l-6.37-.15-6.82-.15s-7.31-.89-7.53-6a7.82,7.82,0,0,1,1.3-4.65,15.59,15.59,0,0,1,3.62-3.76,19.54,19.54,0,0,1,9.77-3.8,32.57,32.57,0,0,1,8.36.37,16,16,0,0,0,5.63.24c1.33-.28,2.72-1.13,2.89-2.48A5.85,5.85,0,0,1,162,96a4.18,4.18,0,0,1,4.15,2.92c.62,2-.23,3.57-1.33,5.1.13-.19.93,1.23,1,1.35a4.52,4.52,0,0,1,.48,2.73,4.46,4.46,0,0,1-2.54,3A7.34,7.34,0,0,1,157.24,111.25Z" style="fill:#263238"></path><path d="M128.61,130.64c4,1.74,5.67-1.45,5.67-1.45l-.16,14.94c6.4,11.13,26.57,9,20.74.19l-.12-5a17.47,17.47,0,0,0,3.39-.48c5.43-1.21,6.69-3.89,7.38-7.74,1.07-6,.51-14.2-2-23.6-.49-1.81-1.37-3.78-3.08-4.54-4.27-1.88-8,1.26-13.71,3.78-2.37,1-8.19,1.71-9.77,1,2.13,2.15,2.42,9.23-.45,12.23a6.54,6.54,0,0,1-1.41,2c-1.23,1.16-2.39-1.65-3.51-2.73a4.38,4.38,0,0,0-6.74,1.87A7.14,7.14,0,0,0,128.61,130.64Z" style="fill:#b16668"></path><path d="M154.74,139.28c-4.56.17-8.64-.21-11.38-1.23s-7-5.08-8-8.66a13.5,13.5,0,0,0,7.53,10.49c4.18,2,8.88,1.84,11.87,1.78Z" style="fill:#9a4a4d"></path><path d="M147.47,111.72l-3.4,2.44a2.19,2.19,0,0,1,.5-3A2.05,2.05,0,0,1,147.47,111.72Z" style="fill:#263238"></path><path d="M162.32,112.26l-3.86-1.7a2,2,0,0,1,2.71-1.13A2.22,2.22,0,0,1,162.32,112.26Z" style="fill:#263238"></path><path d="M145.83,117.21a1.7,1.7,0,1,0,1.57-1.83A1.71,1.71,0,0,0,145.83,117.21Z" style="fill:#263238"></path><path d="M158.56,116.13a1.71,1.71,0,1,0,1.57-1.83A1.55,1.55,0,0,0,158.56,116.13Z" style="fill:#263238"></path><path d="M152.71,113.77l1.88,10.79,5.64-2.36A25.44,25.44,0,0,0,152.71,113.77Z" style="fill:#9a4a4d"></path><path d="M148.69,125.76l7,1.67a3.79,3.79,0,0,1-4.47,2.74A3.53,3.53,0,0,1,148.69,125.76Z" style="fill:#9a4a4d"></path><path d="M152.92,130.15a5.13,5.13,0,0,0-4.35-3.5,3.5,3.5,0,0,0,2.67,3.52A3.66,3.66,0,0,0,152.92,130.15Z" style="fill:#f28f8f"></path></g><g id="freepik--arm--inject-69"><path d="M94.58,259.66c.31.06,1.47-1,1.73-1.21a4.48,4.48,0,0,0,1.14-1.31,10.78,10.78,0,0,0,.74-4.45,1.84,1.84,0,0,0-.32-1.39,1.61,1.61,0,0,0-1.29-.33.48.48,0,0,1-.29,0c-.16-.08-.2-.29-.24-.46a1.76,1.76,0,0,0-2-1.23c-.28.06-.61.24-.9.16s-.31-.26-.53-.48-.94-.79-1.41-.69c-1.11.21-2.73,5.91-2,8.17S94.52,259.64,94.58,259.66Z" style="fill:#9a4a4d"></path><path d="M79.39,252.05a59.87,59.87,0,0,1-.41-8.36,53.31,53.31,0,0,1,1-7.31c1-6,2.67-25,5.09-34.19l15.53,10.15s-7.54,20.69-8.3,23.92c-.44,1.91,1.48,4.42,2.22,6.2a21,21,0,0,1,1.24,5.3,33.44,33.44,0,0,0,1.38,5.73,1.76,1.76,0,0,1,.14.71,1.2,1.2,0,0,1-1.33,1,2.65,2.65,0,0,1-1.58-.88,11.94,11.94,0,0,1-2.29-3.79c-.09-.2-.21-.42-.43-.45a.53.53,0,0,0-.46.31,5.72,5.72,0,0,0-.48,1.72,9.8,9.8,0,0,0,.82,4.42c.49,1.37,2.51,2.65,3,3.15-.22.15-.67.48-.92.62a8.4,8.4,0,0,1-1.39.66,3.7,3.7,0,0,1-2.75-.37c-1.15-.53-1.94-1.74-3.16-2.06a8.64,8.64,0,0,0-1-.15,3,3,0,0,1-2-1c-.42-.52-.6-1.22-1.12-1.63a5.43,5.43,0,0,0-.93-.48A3.88,3.88,0,0,1,79.39,252.05Z" style="fill:#b16668"></path><path d="M103.51,206.24s12.7-21.44,15.31-26.16,6.36-21.44-1-30.48c-7.75,3-12.06,4.92-17.31,15.38s-12.3,25.41-14.67,30.94c-1.79,4.18-2.53,6.34-3.53,15.24-.68,6-1,9.49-1,9.49s.68,3.12,6.61,4.67,8.68.27,8.68.27Z" style="fill:#37474f"></path></g></g></g></g><g id="freepik--Lines--inject-69"><g id="freepik--lines--inject-69"><path d="M250.2,47.06a.31.31,0,0,1-.31-.31V40.31a.31.31,0,0,1,.62,0v6.44A.31.31,0,0,1,250.2,47.06Z" style="fill:#7C61B3"></path><path d="M236.58,52a.31.31,0,0,1-.23-.11l-4-4.71a.31.31,0,0,1,.48-.4l4,4.71a.3.3,0,0,1,0,.43A.32.32,0,0,1,236.58,52Z" style="fill:#7C61B3"></path><path d="M227.47,67.37h-.05l-6.59-1.05a.31.31,0,1,1,.09-.61l6.6,1.05a.3.3,0,0,1,.25.35A.29.29,0,0,1,227.47,67.37Z" style="fill:#7C61B3"></path><path d="M225.84,88.58a.31.31,0,0,1-.27-.15.32.32,0,0,1,.11-.42L231,84.83a.32.32,0,0,1,.42.11.31.31,0,0,1-.11.43L226,88.54A.32.32,0,0,1,225.84,88.58Z" style="fill:#7C61B3"></path><path d="M263.62,52.26a.31.31,0,0,1-.2-.07.31.31,0,0,1,0-.44l4.2-5a.31.31,0,0,1,.47.4l-4.2,5A.32.32,0,0,1,263.62,52.26Z" style="fill:#7C61B3"></path><path d="M273.27,67.32a.32.32,0,0,1-.31-.26.31.31,0,0,1,.26-.35l6.18-1a.31.31,0,1,1,.1.61l-6.18,1Z" style="fill:#7C61B3"></path><path d="M274.53,88.56a.29.29,0,0,1-.16,0l-5.19-3.07a.31.31,0,0,1-.1-.42.3.3,0,0,1,.42-.11L274.68,88a.31.31,0,0,1-.15.57Z" style="fill:#7C61B3"></path></g></g></svg>
