
        <svg xmlns="http://www.w3.org/2000/svg" xmlns:xlink="http://www.w3.org/1999/xlink" version="1.1" width="3162.111047853983" height="957.9340257336229" viewBox="0 0 3162.111047853983 957.9340257336229">
			
			<g transform="scale(8.10555239269914) translate(10, 10)">
				<defs id="SvgjsDefs1328"/><g id="SvgjsG1329" featureKey="HKaMnE-0" transform="matrix(1.0440778732299805,0,0,1.0440778732299805,-1.4145400619125317,0.6050233701227361)" fill="#fff"><path xmlns="http://www.w3.org/2000/svg" d="M49.217,62.688c-0.072-0.765-0.281-1.467-0.483-2.145c-0.107-0.361-0.216-0.723-0.298-1.088  c-0.22-0.98-0.035-2.006,0.16-3.092c0.171-0.953,0.348-1.938,0.275-2.983c-0.059-0.841-0.205-1.635-0.347-2.403  c-0.243-1.323-0.473-2.572-0.215-3.875c0.443-2.247,0.439-4.535,0.436-6.748c-0.003-1.474-0.005-2.998,0.129-4.464  c0.049-0.531,0.165-1.075,0.289-1.65c0.278-1.292,0.594-2.756,0.084-4.275c-0.491-1.471-1.064-2.342-1.802-2.741  c-0.807-0.439-1.628-0.159-2.169,0.026c-0.182,0.063-0.387,0.133-0.499,0.143c-0.393,0.032-0.709,0.02-0.99,0.01  c-0.795-0.034-1.618-0.059-2.811,0.807c-0.438,0.316-0.884,0.622-1.33,0.927c-0.796,0.545-1.619,1.108-2.398,1.74  c-1.394,1.13-2.508,2.542-3.585,3.907l-0.119,0.151c-0.963,1.22-1.479,2.372-2.024,3.593c-0.141,0.313-0.285,0.637-0.442,0.972  c-0.288,0.613-0.64,1.151-0.98,1.673c-0.746,1.142-1.519,2.323-1.598,4.191c-0.061,1.443-0.126,2.475-0.473,3.613l-0.063,0.204  c-0.408,1.333-0.871,2.845-0.479,4.422c0.118,0.475,0.285,0.904,0.446,1.319c0.243,0.626,0.453,1.167,0.448,1.72  c-0.013,1.26,0.089,2.602,0.905,3.875c0.385,0.602,0.855,1.087,1.311,1.558c0.167,0.173,0.335,0.346,0.496,0.523  c0.294,0.325,0.505,0.773,0.729,1.249c0.388,0.825,0.828,1.761,1.837,2.352c1.364,0.8,2.644,1.646,3.803,2.513l0.489,0.371  c0.746,0.568,1.517,1.155,2.382,1.631c1.627,0.895,3.096,0.904,4.652,0.914c0.01,0,0.021,0,0.03,0c0.704,0,1.279-0.125,1.757-0.381  C49.336,69.876,49.518,65.836,49.217,62.688z M46.558,51.338c0.138,0.747,0.268,1.452,0.317,2.181  c0.056,0.798-0.092,1.62-0.248,2.491c-0.222,1.232-0.45,2.508-0.143,3.883c0.092,0.41,0.212,0.815,0.332,1.221  c0.183,0.613,0.355,1.193,0.41,1.764c0.332,3.491-0.189,5.96-1.397,6.604c-0.001,0-0.001,0-0.002,0.001  c-0.184,0.099-0.435,0.12-0.832,0.144c-1.407-0.009-2.518-0.016-3.7-0.666c-0.735-0.405-1.415-0.922-2.134-1.47l-0.502-0.381  c-1.219-0.912-2.562-1.8-3.991-2.638c-0.451-0.264-0.688-0.733-1.038-1.478c-0.263-0.56-0.562-1.193-1.056-1.739  c-0.176-0.194-0.358-0.384-0.542-0.573c-0.404-0.417-0.786-0.812-1.063-1.245c-0.505-0.788-0.6-1.646-0.589-2.777  c0.009-0.938-0.306-1.747-0.584-2.462c-0.145-0.374-0.282-0.727-0.369-1.079c-0.259-1.038,0.102-2.215,0.45-3.353l0.063-0.208  c0.446-1.468,0.503-2.812,0.557-4.111c0.056-1.318,0.594-2.141,1.274-3.182c0.36-0.552,0.769-1.177,1.116-1.917  c0.162-0.347,0.312-0.68,0.457-1.005c0.516-1.151,0.961-2.146,1.77-3.171l0.119-0.151c1.01-1.279,2.054-2.603,3.273-3.592  c0.717-0.58,1.472-1.097,2.27-1.644c0.46-0.315,0.921-0.631,1.373-0.958c0.509-0.368,0.772-0.437,1.204-0.437  c0.108,0,0.227,0.004,0.361,0.009c0.326,0.012,0.729,0.027,1.229-0.016c0.358-0.029,0.688-0.143,0.979-0.242  c0.184-0.063,0.51-0.168,0.568-0.161c0.016,0.009,0.393,0.227,0.858,1.618c0.335,1,0.104,2.078-0.143,3.22  c-0.131,0.608-0.267,1.237-0.326,1.89c-0.142,1.559-0.14,3.129-0.137,4.648c0.004,2.214,0.007,4.305-0.398,6.358  C46.016,48.392,46.291,49.89,46.558,51.338z"/><path xmlns="http://www.w3.org/2000/svg" d="M39.24,53.297c0.533,0.276,1.344,0.65,2.225,0.704c0.021,0.001,0.042,0.002,0.063,0.002c0.524,0,0.965-0.408,0.997-0.938  c0.034-0.552-0.386-1.025-0.937-1.06c-0.503-0.031-1.056-0.291-1.428-0.483c-1.245-0.645-2.278-1.527-2.91-2.485  c-0.885-1.341-1.304-3.035-1.151-4.65c0.185-1.952,0.849-3.75,1.823-4.933c0.938-1.138,2.322-1.777,3.707-1.7  c0.547,0.031,1.022-0.396,1.052-0.946c0.028-0.552-0.395-1.022-0.946-1.052c-2.008-0.094-4.016,0.801-5.355,2.427  c-1.223,1.482-2.051,3.676-2.271,6.016c-0.198,2.091,0.324,4.201,1.472,5.94C36.397,51.376,37.697,52.498,39.24,53.297z"/><path xmlns="http://www.w3.org/2000/svg" d="M43.846,48.623c-0.479-0.445-1.022-0.731-1.501-0.984c-0.386-0.202-0.749-0.395-1.026-0.639  c-0.441-0.388-0.781-0.898-0.956-1.437c-0.579-1.78,0.778-3.772,1.209-4.341c0.333-0.44,0.246-1.067-0.194-1.401  c-0.442-0.332-1.068-0.246-1.401,0.194c-0.74,0.979-2.37,3.539-1.516,6.167c0.289,0.887,0.82,1.688,1.537,2.319  c0.456,0.401,0.966,0.67,1.415,0.906c0.405,0.214,0.787,0.415,1.071,0.679c0.609,0.567,1.018,1.402,1.216,2.481  c0.158,0.869,0.376,2.059-0.036,2.745c-0.529,0.879-1.703,0.952-2.078,0.952c-0.006,0-0.012,0-0.017,0  c-1.029-0.006-2.104-0.718-3.02-1.413c-0.836-0.635-1.66-1.285-2.483-1.935c-0.464-0.366-0.927-0.731-1.393-1.095  c-0.871-0.679-1.466-1.539-1.673-2.422c-0.127-0.539-0.675-0.868-1.202-0.745c-0.538,0.127-0.871,0.665-0.745,1.202  c0.312,1.326,1.161,2.584,2.391,3.543c0.463,0.359,0.923,0.723,1.383,1.086c0.833,0.658,1.667,1.316,2.514,1.958  c1.178,0.896,2.6,1.811,4.217,1.82c0.012,0,0.022,0,0.034,0c1.647,0,3.061-0.717,3.786-1.921c0.802-1.334,0.493-3.021,0.289-4.136  C45.39,50.697,44.777,49.491,43.846,48.623z"/><path xmlns="http://www.w3.org/2000/svg" d="M40.307,59.507l-0.242-0.048c-2.395-0.476-4.628-1.546-6.636-3.183c-0.429-0.35-1.058-0.282-1.407,0.144  c-0.349,0.429-0.284,1.059,0.144,1.407c2.265,1.845,4.791,3.054,7.511,3.593l0.245,0.049c1.271,0.25,2.586,0.509,3.508,1.246  c0.421,0.338,0.485,0.891,0.464,1.295c-0.046,0.906-0.575,1.934-1.205,2.339c-0.464,0.3-0.598,0.919-0.299,1.383  c0.191,0.297,0.514,0.458,0.842,0.458c0.186,0,0.373-0.052,0.541-0.159c1.168-0.754,2.039-2.365,2.119-3.918  c0.063-1.232-0.367-2.282-1.212-2.958C43.374,60.109,41.744,59.789,40.307,59.507z"/><path xmlns="http://www.w3.org/2000/svg" d="M41.477,63.748c-0.686-0.163-2.688-0.718-3.71-1.324c-0.474-0.284-1.089-0.126-1.37,0.349  c-0.282,0.475-0.126,1.088,0.349,1.37c1.494,0.889,4.158,1.524,4.271,1.552c0.078,0.018,0.155,0.026,0.231,0.026  c0.453,0,0.863-0.31,0.972-0.77C42.347,64.414,42.014,63.875,41.477,63.748z"/><path xmlns="http://www.w3.org/2000/svg" d="M45.231,31.667c-1.364-0.977-3.973-0.263-5.306,1.005c-0.4,0.38-0.417,1.014-0.036,1.413c0.38,0.4,1.014,0.417,1.413,0.036  c0.93-0.883,2.526-1.065,2.769-0.827c0.001,0.003,0.099,0.252-0.232,0.974c-0.722,1.568-0.614,3.126-0.511,4.632  c0.024,0.359,0.05,0.72,0.063,1.08c0.056,1.621-0.072,2.676-0.876,2.921c-0.528,0.16-0.825,0.72-0.664,1.248  c0.131,0.431,0.527,0.708,0.956,0.708c0.097,0,0.194-0.014,0.292-0.044c2.433-0.741,2.337-3.551,2.29-4.901  c-0.013-0.383-0.039-0.767-0.065-1.149c-0.09-1.313-0.176-2.554,0.333-3.659C46.634,32.975,45.685,31.991,45.231,31.667z"/><path xmlns="http://www.w3.org/2000/svg" d="M68.159,63.846c0.224-0.476,0.435-0.924,0.729-1.249c0.161-0.178,0.329-0.351,0.496-0.523  c0.455-0.471,0.926-0.956,1.311-1.557c0.816-1.274,0.918-2.616,0.905-3.875c-0.005-0.555,0.205-1.096,0.448-1.722  c0.162-0.415,0.328-0.844,0.447-1.317c0.392-1.574-0.069-3.083-0.477-4.414l-0.064-0.213c-0.347-1.14-0.415-2.217-0.474-3.613  c-0.079-1.867-0.851-3.049-1.597-4.19c-0.341-0.521-0.692-1.061-0.98-1.674c-0.159-0.338-0.305-0.663-0.446-0.979  c-0.545-1.218-1.06-2.368-2.021-3.586l-0.125-0.158c-1.076-1.363-2.188-2.772-3.579-3.9c-0.777-0.63-1.6-1.192-2.395-1.736  c-0.446-0.307-0.894-0.612-1.333-0.931c-1.194-0.864-2.02-0.84-2.812-0.806c-0.283,0.009-0.599,0.022-0.991-0.01  c-0.111-0.01-0.316-0.08-0.498-0.143c-0.544-0.186-1.363-0.466-2.169-0.026c-0.735,0.398-1.308,1.269-1.802,2.741  c-0.509,1.52-0.194,2.983,0.084,4.275c0.124,0.575,0.24,1.119,0.289,1.65c0.134,1.466,0.132,2.988,0.129,4.462  c-0.003,2.214-0.007,4.503,0.437,6.75c0.257,1.302,0.027,2.55-0.216,3.872c-0.141,0.77-0.287,1.565-0.346,2.406  c-0.072,1.046,0.104,2.031,0.275,2.984c0.194,1.085,0.379,2.11,0.159,3.091c-0.082,0.365-0.19,0.726-0.297,1.087  c-0.202,0.679-0.411,1.381-0.483,2.146c-0.301,3.148-0.12,7.189,2.445,8.558c0.478,0.256,1.053,0.381,1.758,0.381  c0.01,0,0.021,0,0.031,0c1.555-0.01,3.023-0.02,4.649-0.914c0.866-0.476,1.637-1.063,2.383-1.631l0.489-0.37  c1.159-0.868,2.438-1.714,3.802-2.513C67.331,65.606,67.771,64.671,68.159,63.846z M65.311,64.473  c-1.429,0.837-2.771,1.725-3.99,2.638l-0.502,0.38c-0.719,0.548-1.398,1.064-2.135,1.47c-1.182,0.65-2.292,0.657-3.697,0.666  c-0.387,0.013-0.649-0.045-0.834-0.144c-0.001-0.001-0.001-0.001-0.002-0.001c-1.207-0.645-1.729-3.113-1.396-6.604  c0.055-0.571,0.228-1.151,0.41-1.766c0.12-0.404,0.239-0.81,0.331-1.219c0.308-1.374,0.079-2.649-0.142-3.882  c-0.156-0.871-0.305-1.693-0.248-2.492c0.05-0.729,0.18-1.436,0.317-2.184c0.266-1.448,0.541-2.944,0.211-4.62  c-0.406-2.055-0.402-4.146-0.399-6.36c0.003-1.519,0.005-3.089-0.137-4.646c-0.06-0.652-0.195-1.281-0.326-1.89  c-0.245-1.142-0.478-2.22-0.143-3.219c0.468-1.395,0.843-1.61,0.836-1.61c0.007-0.001,0.014-0.002,0.022-0.002  c0.117,0,0.396,0.096,0.568,0.154c0.291,0.1,0.621,0.213,0.979,0.242c0.501,0.043,0.905,0.027,1.23,0.016  c0.678-0.024,0.931-0.031,1.566,0.428c0.453,0.328,0.914,0.645,1.376,0.961c0.797,0.546,1.551,1.062,2.265,1.64  c1.219,0.988,2.261,2.309,3.27,3.586l0.125,0.158c0.808,1.022,1.251,2.015,1.766,3.164c0.146,0.327,0.297,0.663,0.461,1.012  c0.348,0.74,0.756,1.366,1.116,1.918c0.681,1.041,1.218,1.863,1.273,3.181c0.052,1.237,0.11,2.64,0.558,4.111l0.066,0.216  c0.347,1.135,0.706,2.31,0.448,3.345c-0.088,0.351-0.226,0.704-0.37,1.077c-0.278,0.715-0.594,1.525-0.585,2.465  c0.011,1.13-0.084,1.988-0.589,2.777c-0.277,0.433-0.659,0.827-1.063,1.244c-0.184,0.189-0.366,0.379-0.542,0.573  c-0.494,0.546-0.793,1.18-1.056,1.739C66,63.738,65.763,64.208,65.311,64.473z"/><path xmlns="http://www.w3.org/2000/svg" d="M57.299,36.807c0.029,0.551,0.495,0.977,1.052,0.946c1.389-0.072,2.77,0.562,3.708,1.7c0.974,1.181,1.638,2.979,1.823,4.933  c0.151,1.615-0.268,3.311-1.152,4.651c-0.631,0.957-1.664,1.839-2.91,2.484c-0.372,0.192-0.925,0.452-1.428,0.483  c-0.551,0.034-0.971,0.508-0.937,1.06c0.032,0.53,0.473,0.938,0.997,0.938c0.021,0,0.041-0.001,0.063-0.002  c0.881-0.054,1.691-0.428,2.225-0.704c1.545-0.8,2.845-1.922,3.66-3.159c1.147-1.739,1.67-3.849,1.473-5.94  c-0.222-2.342-1.049-4.535-2.271-6.016c-1.34-1.626-3.353-2.521-5.356-2.427C57.693,35.784,57.271,36.255,57.299,36.807z"/><path xmlns="http://www.w3.org/2000/svg" d="M58.389,58.266c0.012,0,0.022,0,0.034,0c1.619-0.01,3.04-0.926,4.217-1.819c0.856-0.65,1.7-1.316,2.544-1.982l1.352-1.063  c1.229-0.959,2.079-2.216,2.393-3.542c0.127-0.537-0.206-1.076-0.744-1.203c-0.537-0.123-1.075,0.205-1.203,0.744  c-0.208,0.884-0.803,1.744-1.675,2.424l-1.361,1.07c-0.833,0.657-1.667,1.315-2.515,1.959c-0.914,0.694-1.987,1.406-3.019,1.412  c-0.361-0.018-1.558-0.061-2.094-0.951c-0.413-0.688-0.195-1.877-0.037-2.746c0.198-1.079,0.606-1.914,1.215-2.48  c0.284-0.265,0.667-0.466,1.071-0.679c0.45-0.237,0.961-0.506,1.417-0.907c0.716-0.631,1.247-1.433,1.536-2.319  c0.855-2.626-0.774-5.188-1.515-6.167c-0.334-0.44-0.961-0.529-1.401-0.194c-0.44,0.333-0.527,0.96-0.194,1.401  c0.431,0.568,1.788,2.562,1.208,4.341c-0.175,0.538-0.515,1.049-0.956,1.438c-0.277,0.244-0.641,0.436-1.026,0.639  c-0.479,0.252-1.022,0.538-1.502,0.984c-0.931,0.867-1.543,2.073-1.819,3.585c-0.204,1.115-0.512,2.8,0.29,4.136  C55.328,57.549,56.741,58.266,58.389,58.266z"/><path xmlns="http://www.w3.org/2000/svg" d="M67.958,56.42c-0.349-0.426-0.977-0.493-1.407-0.144c-2.007,1.637-4.239,2.707-6.636,3.183l-0.242,0.047  c-1.437,0.283-3.065,0.604-4.372,1.648c-0.845,0.676-1.274,1.727-1.212,2.958c0.08,1.554,0.952,3.164,2.12,3.918  c0.168,0.107,0.355,0.159,0.541,0.159c0.328,0,0.65-0.161,0.842-0.458c0.299-0.465,0.165-1.083-0.299-1.383  c-0.63-0.406-1.16-1.433-1.206-2.338c-0.021-0.405,0.043-0.958,0.464-1.295c0.923-0.739,2.237-0.997,3.509-1.247l0.244-0.049  c2.721-0.539,5.248-1.748,7.511-3.593C68.242,57.478,68.307,56.848,67.958,56.42z"/><path xmlns="http://www.w3.org/2000/svg" d="M62.213,62.424c-1.021,0.606-3.024,1.161-3.71,1.324c-0.537,0.127-0.87,0.666-0.742,1.203c0.108,0.46,0.519,0.77,0.972,0.77  c0.076,0,0.153-0.009,0.231-0.026c0.112-0.027,2.776-0.663,4.271-1.552c0.475-0.282,0.631-0.896,0.349-1.37  S62.688,62.14,62.213,62.424z"/><path xmlns="http://www.w3.org/2000/svg" d="M54.656,38.762c-0.026,0.383-0.053,0.767-0.065,1.15c-0.046,1.35-0.141,4.159,2.291,4.9c0.098,0.03,0.195,0.044,0.292,0.044  c0.429,0,0.825-0.277,0.956-0.708c0.161-0.528-0.136-1.088-0.664-1.248c-0.804-0.245-0.931-1.3-0.877-2.921  c0.013-0.36,0.038-0.721,0.063-1.08c0.104-1.506,0.211-3.063-0.51-4.631c-0.33-0.719-0.235-0.97-0.237-0.97  c0.247-0.246,1.843-0.061,2.773,0.822c0.4,0.382,1.033,0.363,1.413-0.036c0.381-0.4,0.364-1.033-0.036-1.413  c-1.333-1.268-3.943-1.981-5.307-1.005c-0.453,0.324-1.402,1.308-0.424,3.437C54.832,36.208,54.746,37.448,54.656,38.762z"/><path xmlns="http://www.w3.org/2000/svg" d="M49.99,19.519c0.553,0,1-0.447,1-1V7.125c0-0.553-0.447-1-1-1s-1,0.447-1,1v11.394C48.99,19.071,49.438,19.519,49.99,19.519  z"/><path xmlns="http://www.w3.org/2000/svg" d="M34.312,23.547c0.187,0,0.375-0.052,0.543-0.161c0.463-0.3,0.596-0.919,0.295-1.383l-9.45-14.584  c-0.3-0.463-0.919-0.597-1.383-0.295c-0.463,0.3-0.596,0.919-0.295,1.383l9.45,14.584C33.663,23.386,33.983,23.547,34.312,23.547z"/><path xmlns="http://www.w3.org/2000/svg" d="M23.245,33.009l-9.867-5.696c-0.478-0.276-1.09-0.112-1.366,0.366s-0.112,1.09,0.366,1.366l9.867,5.696  c0.157,0.091,0.329,0.134,0.499,0.134c0.346,0,0.682-0.18,0.867-0.5C23.888,33.896,23.724,33.285,23.245,33.009z"/><path xmlns="http://www.w3.org/2000/svg" d="M11.267,50.501c0.001,0,0.003,0,0.005,0l7.127-0.032c0.552-0.003,0.998-0.452,0.995-1.005c-0.003-0.551-0.449-0.995-1-0.995  c-0.001,0-0.003,0-0.005,0l-7.127,0.032c-0.552,0.003-0.998,0.452-0.995,1.005C10.27,50.057,10.716,50.501,11.267,50.501z"/><path xmlns="http://www.w3.org/2000/svg" d="M21.924,64.281l-14.32,8.223c-0.479,0.275-0.645,0.886-0.369,1.365c0.185,0.322,0.521,0.502,0.868,0.502  c0.169,0,0.34-0.043,0.497-0.133l14.32-8.223c0.479-0.275,0.645-0.886,0.369-1.365C23.015,64.171,22.404,64.008,21.924,64.281z"/><path xmlns="http://www.w3.org/2000/svg" d="M34.249,75.846c-0.479-0.273-1.09-0.109-1.366,0.368l-4.832,8.396c-0.275,0.479-0.11,1.09,0.368,1.366  c0.157,0.09,0.329,0.133,0.498,0.133c0.346,0,0.683-0.18,0.868-0.501l4.832-8.396C34.893,76.733,34.728,76.122,34.249,75.846z"/><path xmlns="http://www.w3.org/2000/svg" d="M49.344,80.064c-0.553,0-1,0.447-1,1v11.394c0,0.553,0.447,1,1,1s1-0.447,1-1V81.064  C50.344,80.512,49.896,80.064,49.344,80.064z"/><path xmlns="http://www.w3.org/2000/svg" d="M65.89,76.536c-0.277-0.479-0.891-0.642-1.366-0.366c-0.479,0.276-0.643,0.889-0.366,1.366l7.032,12.167  c0.186,0.321,0.521,0.5,0.867,0.5c0.17,0,0.342-0.043,0.499-0.134c0.479-0.276,0.643-0.889,0.366-1.366L65.89,76.536z"/><path xmlns="http://www.w3.org/2000/svg" d="M86.955,70.539l-9.867-5.697c-0.479-0.276-1.09-0.113-1.366,0.366c-0.276,0.479-0.112,1.09,0.366,1.366l9.867,5.697  c0.157,0.091,0.329,0.134,0.499,0.134c0.346,0,0.682-0.179,0.867-0.5C87.598,71.427,87.434,70.815,86.955,70.539z"/><path xmlns="http://www.w3.org/2000/svg" d="M88.066,49.083c-0.001,0-0.003,0-0.005,0l-7.127,0.032c-0.552,0.003-0.998,0.452-0.995,1.005  c0.003,0.551,0.449,0.995,1,0.995c0.001,0,0.003,0,0.005,0l7.127-0.032c0.552-0.003,0.998-0.452,0.995-1.005  C89.063,49.527,88.617,49.083,88.066,49.083z"/><path xmlns="http://www.w3.org/2000/svg" d="M90.734,25.345l-14.321,8.224c-0.479,0.275-0.645,0.886-0.369,1.365c0.185,0.322,0.521,0.502,0.868,0.502  c0.169,0,0.34-0.043,0.497-0.133l14.321-8.224c0.479-0.275,0.645-0.886,0.369-1.365C91.825,25.234,91.215,25.07,90.734,25.345z"/><path xmlns="http://www.w3.org/2000/svg" d="M65.084,23.736c0.157,0.091,0.329,0.134,0.498,0.134c0.346,0,0.683-0.18,0.867-0.501l4.833-8.396  c0.275-0.479,0.11-1.09-0.368-1.366c-0.479-0.273-1.091-0.11-1.365,0.368l-4.833,8.396C64.44,22.85,64.605,23.461,65.084,23.736z"/></g><g id="SvgjsG1330" featureKey="J3GnXt-0" transform="matrix(2.8071022033691406,0,0,2.8071022033691406,104.28406570286381,20.301340735604633)" fill="#fff"><path d="M4.54 5.84 l4.5 10.72 l0.08 0 l4.46 -10.72 l2.86 0 l0 14.16 l-1.92 0 l0 -11.64 l-0.04 0 l-4.78 11.64 l-1.28 0 l-4.78 -11.64 l-0.04 0 l0 11.64 l-1.92 0 l0 -14.16 l2.86 0 z M20.52 5.800000000000001 c0.36 0 0.67002 0.13002 0.93002 0.39002 s0.39 0.57 0.39 0.93 c0 0.37334 -0.13334 0.68668 -0.4 0.94002 s-0.57332 0.38 -0.91998 0.38 c-0.37334 0 -0.68668 -0.12666 -0.94002 -0.38 s-0.38 -0.56668 -0.38 -0.94002 s0.13334 -0.68668 0.4 -0.94002 s0.57332 -0.38 0.91998 -0.38 z M21.42 10.52 l0 9.48 l-1.8 0 l0 -9.48 l1.8 0 z M29.240000000000002 10.28 c1.0667 0 1.9033 0.32 2.51 0.96 s0.91666 1.5 0.93 2.58 l0 6.18 l-1.8 0 l0 -5.66 c0 -0.73334 -0.19 -1.3133 -0.57 -1.74 s-0.91 -0.64 -1.59 -0.64 c-0.84 0 -1.49 0.28 -1.95 0.84 s-0.69 1.3067 -0.69 2.24 l0 4.96 l-1.8 0 l0 -9.48 l1.8 0 l0 1.46 l0.04 0 c0.25334 -0.53334 0.66334 -0.95 1.23 -1.25 s1.1967 -0.45 1.89 -0.45 z M44.900000000000006 4.880000000000001 l-0.000019531 15.12 l-1.8 0 l0 -1.36 l-0.04 0 c-0.34666 0.50666 -0.81666 0.9 -1.41 1.18 s-1.2233 0.42 -1.89 0.42 c-1.4267 -0.01334 -2.5834 -0.48668 -3.47 -1.42 s-1.3367 -2.12 -1.35 -3.56 c0 -1.4533 0.44334 -2.64 1.33 -3.56 s2.05 -1.3933 3.49 -1.42 c0.65334 0 1.28 0.14 1.88 0.42 s1.0733 0.67334 1.42 1.18 l0.04 0 l0 -7 l1.8 0 z M36.86000000000001 15.26 c0 0.97334 0.28666 1.7633 0.86 2.37 s1.3267 0.91666 2.26 0.93 c0.94666 0 1.7033 -0.30334 2.27 -0.91 s0.85 -1.4033 0.85 -2.39 c0 -0.97334 -0.28 -1.7633 -0.84 -2.37 s-1.3267 -0.91666 -2.3 -0.93 c-0.93334 0 -1.6833 0.30666 -2.25 0.92 s-0.85 1.4067 -0.85 2.38 z M50.800000000000004 5.84 l4.5 10.72 l0.08 0 l4.46 -10.72 l2.86 0 l0 14.16 l-1.92 0 l0 -11.64 l-0.04 0 l-4.78 11.64 l-1.28 0 l-4.78 -11.64 l-0.04 0 l0 11.64 l-1.92 0 l0 -14.16 l2.86 0 z M67.54 10.52 l0 5.68 c0 0.74666 0.19666 1.3267 0.59 1.74 s0.91668 0.62 1.57 0.62 c0.84 0 1.49 -0.27666 1.95 -0.83 s0.69 -1.3033 0.69 -2.25 l0 -4.96 l1.8 0 l0 9.48 l-1.8 0 l0 -1.46 l-0.04 0 c-0.25334 0.53334 -0.66668 0.95 -1.24 1.25 s-1.2 0.45 -1.88 0.45 c-1.0533 0 -1.89 -0.32666 -2.51 -0.98 s-0.93 -1.5067 -0.93 -2.56 l0 -6.18 l1.8 0 z M80.06000000000002 10.28 c0.72 0 1.3633 0.13338 1.93 0.40004 s1.0033 0.65332 1.31 1.16 l-1.4 1.06 c-0.53334 -0.62666 -1.18 -0.94 -1.94 -0.94 c-0.45334 0 -0.83 0.1 -1.13 0.3 s-0.45 0.45334 -0.45 0.76 c0 0.66666 0.62 1.12 1.86 1.36 c1.2133 0.22666 2.07 0.56 2.57 1 s0.75 1.0667 0.75 1.88 c0 0.92 -0.35 1.6433 -1.05 2.17 s-1.6367 0.79666 -2.81 0.81 c-0.88 0 -1.6033 -0.13666 -2.17 -0.41 s-1.0567 -0.69668 -1.47 -1.27 l1.36 -1.12 c0.72 0.74666 1.4867 1.12 2.3 1.12 c0.53334 0 0.98668 -0.10666 1.36 -0.32 s0.56 -0.50668 0.56 -0.88002 c0 -0.65334 -0.6 -1.1067 -1.8 -1.36 c-1.3333 -0.26666 -2.23 -0.62332 -2.69 -1.07 s-0.69 -1.0233 -0.69 -1.73 c0 -0.88 0.34 -1.5833 1.02 -2.11 s1.54 -0.79666 2.58 -0.81 z M90.08000000000001 10.28 c1.4533 0 2.5834 0.45664 3.39 1.37 s1.2167 2.17 1.23 3.77 l0 0.5 l-7.6 0 c0 0.77334 0.31 1.4233 0.93 1.95 s1.3767 0.79666 2.27 0.81 c0.98666 0 1.8533 -0.47334 2.6 -1.42 l1.36 1.04 c-1.0133 1.2933 -2.4134 1.94 -4.2 1.94 c-1.4533 0 -2.6234 -0.46334 -3.51 -1.39 s-1.3433 -2.1234 -1.37 -3.59 c0 -1.4133 0.45666 -2.59 1.37 -3.53 s2.09 -1.4233 3.53 -1.45 z M92.78000000000002 14.48 c-0.02666 -0.89334 -0.28 -1.5767 -0.76 -2.05 s-1.14 -0.71 -1.98 -0.71 c-0.56 0 -1.0633 0.13666 -1.51 0.41 s-0.79666 0.62668 -1.05 1.06 s-0.38 0.86334 -0.38 1.29 l5.68 0 z"/></g>
			</g>
		</svg>
	